M48
INCH
T1C0.0157
T2C0.0295
T3C0.0315
T4C0.0320
T5C0.0354
T6C0.0394
T7C0.0787
T8C0.1260
%
G90
G05
T1
X4.2Y-1.6
X4.25Y-1.5
X4.2846Y-1.3385
X4.3077Y-1.5423
X4.7638Y-1.3386
X4.96Y-2.01
X5.01Y-2.06
X5.03Y-2.78
X5.06Y-2.11
X5.12Y-2.17
X5.23Y-1.4
T2
X5.34Y-1.96
X5.39Y-1.96
X5.44Y-1.96
T3
X4.5089Y-1.4838
X4.5089Y-1.7838
X4.6089Y-1.4838
X4.6089Y-1.7838
X4.7089Y-1.4838
X4.7089Y-1.7838
X4.8089Y-1.4838
X4.8089Y-1.7838
X4.9089Y-1.4838
X4.9089Y-1.7838
X5.0089Y-1.4838
X5.0089Y-1.7838
X5.1089Y-1.4838
X5.1089Y-1.7838
X5.2089Y-1.4838
X5.2089Y-1.7838
X5.3089Y-1.4838
X5.3089Y-1.7838
X5.4089Y-1.4838
X5.4089Y-1.7838
X5.5089Y-1.4838
X5.5089Y-1.7838
X5.6089Y-1.4838
X5.6089Y-1.7838
X5.7089Y-1.4838
X5.7089Y-1.7838
X5.8089Y-1.4838
X5.8089Y-1.7838
T4
X5.2166Y-1.2588
X5.315Y-1.2588
X5.4134Y-1.2588
T5
X3.7295Y-3.2283
X3.8295Y-3.2283
X4.0051Y-3.2283
X4.1051Y-3.2283
X4.0051Y-2.6772
X4.1051Y-2.6772
X3.7295Y-2.126
X3.8295Y-2.126
X3.7295Y-2.6772
X3.8295Y-2.6772
X4.0051Y-1.5748
X4.1051Y-1.5748
X4.0051Y-2.126
X4.1051Y-2.126
X5.0287Y-1.2598
X5.1287Y-1.2598
X3.7295Y-1.5748
X3.8295Y-1.5748
T6
X3.5827Y-3.622
X3.6827Y-3.622
X3.7827Y-3.622
X3.8827Y-3.622
X3.9827Y-3.622
X4.0827Y-3.622
X4.1827Y-3.622
X4.2827Y-3.622
X4.3827Y-3.622
X4.4827Y-3.622
X5.689Y-2.5591
X5.689Y-2.6591
X5.689Y-2.7591
X5.689Y-2.8591
X5.689Y-2.9591
X5.689Y-3.0591
X5.689Y-3.1591
X5.689Y-3.2591
X5.689Y-3.3591
X4.622Y-2.6465
X4.622Y-2.7465
X4.622Y-2.8465
X4.622Y-2.9465
X4.622Y-3.0465
X4.622Y-3.1465
X4.622Y-3.2465
X4.622Y-3.3465
X5.522Y-2.6465
X5.522Y-2.7465
X5.522Y-2.8465
X5.522Y-2.9465
X5.522Y-3.0465
X5.522Y-3.1465
X5.522Y-3.2465
X5.522Y-3.3465
T8
X3.3071Y-3.5433
X5.7874Y-3.5433
X5.7874Y-1.2598
X3.2283Y-1.2598
T7
G00X3.2008Y-2.6969
M15
G01X3.2008Y-2.6575
M16
G05
G00X3.3858Y-2.6969
M15
G01X3.3858Y-2.6575
M16
G05
G00X3.5709Y-2.6969
M15
G01X3.5709Y-2.6575
M16
G05
G00X3.2008Y-1.5945
M15
G01X3.2008Y-1.5551
M16
G05
G00X3.3858Y-1.5945
M15
G01X3.3858Y-1.5551
M16
G05
G00X3.5709Y-1.5945
M15
G01X3.5709Y-1.5551
M16
G05
G00X3.2008Y-2.1457
M15
G01X3.2008Y-2.1063
M16
G05
G00X3.3858Y-2.1457
M15
G01X3.3858Y-2.1063
M16
G05
G00X3.5709Y-2.1457
M15
G01X3.5709Y-2.1063
M16
G05
G00X3.2008Y-3.248
M15
G01X3.2008Y-3.2087
M16
G05
G00X3.3858Y-3.248
M15
G01X3.3858Y-3.2087
M16
G05
G00X3.5709Y-3.248
M15
G01X3.5709Y-3.2087
M16
G05
T0
M30
