G04 #@! TF.GenerationSoftware,KiCad,Pcbnew,5.1.2-f72e74a~84~ubuntu18.04.1*
G04 #@! TF.CreationDate,2019-06-11T17:55:48+02:00*
G04 #@! TF.ProjectId,ESP-Multiio,4553502d-4d75-46c7-9469-696f2e6b6963,rev?*
G04 #@! TF.SameCoordinates,Original*
G04 #@! TF.FileFunction,Paste,Bot*
G04 #@! TF.FilePolarity,Positive*
%FSLAX46Y46*%
G04 Gerber Fmt 4.6, Leading zero omitted, Abs format (unit mm)*
G04 Created by KiCad (PCBNEW 5.1.2-f72e74a~84~ubuntu18.04.1) date 2019-06-11 17:55:48*
%MOMM*%
%LPD*%
G04 APERTURE LIST*
%ADD10C,0.050000*%
%ADD11C,0.100000*%
%ADD12C,1.425000*%
G04 APERTURE END LIST*
D10*
X152000000Y-95000000D02*
X77000000Y-95000000D01*
X152000000Y-27000000D02*
X152000000Y-95000000D01*
X77000000Y-27000000D02*
X152000000Y-27000000D01*
X77000000Y-27000000D02*
X77000000Y-95000000D01*
D11*
G36*
X142381504Y-55603704D02*
G01*
X142405773Y-55607304D01*
X142429571Y-55613265D01*
X142452671Y-55621530D01*
X142474849Y-55632020D01*
X142495893Y-55644633D01*
X142515598Y-55659247D01*
X142533777Y-55675723D01*
X142550253Y-55693902D01*
X142564867Y-55713607D01*
X142577480Y-55734651D01*
X142587970Y-55756829D01*
X142596235Y-55779929D01*
X142602196Y-55803727D01*
X142605796Y-55827996D01*
X142607000Y-55852500D01*
X142607000Y-56777500D01*
X142605796Y-56802004D01*
X142602196Y-56826273D01*
X142596235Y-56850071D01*
X142587970Y-56873171D01*
X142577480Y-56895349D01*
X142564867Y-56916393D01*
X142550253Y-56936098D01*
X142533777Y-56954277D01*
X142515598Y-56970753D01*
X142495893Y-56985367D01*
X142474849Y-56997980D01*
X142452671Y-57008470D01*
X142429571Y-57016735D01*
X142405773Y-57022696D01*
X142381504Y-57026296D01*
X142357000Y-57027500D01*
X141107000Y-57027500D01*
X141082496Y-57026296D01*
X141058227Y-57022696D01*
X141034429Y-57016735D01*
X141011329Y-57008470D01*
X140989151Y-56997980D01*
X140968107Y-56985367D01*
X140948402Y-56970753D01*
X140930223Y-56954277D01*
X140913747Y-56936098D01*
X140899133Y-56916393D01*
X140886520Y-56895349D01*
X140876030Y-56873171D01*
X140867765Y-56850071D01*
X140861804Y-56826273D01*
X140858204Y-56802004D01*
X140857000Y-56777500D01*
X140857000Y-55852500D01*
X140858204Y-55827996D01*
X140861804Y-55803727D01*
X140867765Y-55779929D01*
X140876030Y-55756829D01*
X140886520Y-55734651D01*
X140899133Y-55713607D01*
X140913747Y-55693902D01*
X140930223Y-55675723D01*
X140948402Y-55659247D01*
X140968107Y-55644633D01*
X140989151Y-55632020D01*
X141011329Y-55621530D01*
X141034429Y-55613265D01*
X141058227Y-55607304D01*
X141082496Y-55603704D01*
X141107000Y-55602500D01*
X142357000Y-55602500D01*
X142381504Y-55603704D01*
X142381504Y-55603704D01*
G37*
D12*
X141732000Y-56315000D03*
D11*
G36*
X142381504Y-52628704D02*
G01*
X142405773Y-52632304D01*
X142429571Y-52638265D01*
X142452671Y-52646530D01*
X142474849Y-52657020D01*
X142495893Y-52669633D01*
X142515598Y-52684247D01*
X142533777Y-52700723D01*
X142550253Y-52718902D01*
X142564867Y-52738607D01*
X142577480Y-52759651D01*
X142587970Y-52781829D01*
X142596235Y-52804929D01*
X142602196Y-52828727D01*
X142605796Y-52852996D01*
X142607000Y-52877500D01*
X142607000Y-53802500D01*
X142605796Y-53827004D01*
X142602196Y-53851273D01*
X142596235Y-53875071D01*
X142587970Y-53898171D01*
X142577480Y-53920349D01*
X142564867Y-53941393D01*
X142550253Y-53961098D01*
X142533777Y-53979277D01*
X142515598Y-53995753D01*
X142495893Y-54010367D01*
X142474849Y-54022980D01*
X142452671Y-54033470D01*
X142429571Y-54041735D01*
X142405773Y-54047696D01*
X142381504Y-54051296D01*
X142357000Y-54052500D01*
X141107000Y-54052500D01*
X141082496Y-54051296D01*
X141058227Y-54047696D01*
X141034429Y-54041735D01*
X141011329Y-54033470D01*
X140989151Y-54022980D01*
X140968107Y-54010367D01*
X140948402Y-53995753D01*
X140930223Y-53979277D01*
X140913747Y-53961098D01*
X140899133Y-53941393D01*
X140886520Y-53920349D01*
X140876030Y-53898171D01*
X140867765Y-53875071D01*
X140861804Y-53851273D01*
X140858204Y-53827004D01*
X140857000Y-53802500D01*
X140857000Y-52877500D01*
X140858204Y-52852996D01*
X140861804Y-52828727D01*
X140867765Y-52804929D01*
X140876030Y-52781829D01*
X140886520Y-52759651D01*
X140899133Y-52738607D01*
X140913747Y-52718902D01*
X140930223Y-52700723D01*
X140948402Y-52684247D01*
X140968107Y-52669633D01*
X140989151Y-52657020D01*
X141011329Y-52646530D01*
X141034429Y-52638265D01*
X141058227Y-52632304D01*
X141082496Y-52628704D01*
X141107000Y-52627500D01*
X142357000Y-52627500D01*
X142381504Y-52628704D01*
X142381504Y-52628704D01*
G37*
D12*
X141732000Y-53340000D03*
D11*
G36*
X131062004Y-28126204D02*
G01*
X131086273Y-28129804D01*
X131110071Y-28135765D01*
X131133171Y-28144030D01*
X131155349Y-28154520D01*
X131176393Y-28167133D01*
X131196098Y-28181747D01*
X131214277Y-28198223D01*
X131230753Y-28216402D01*
X131245367Y-28236107D01*
X131257980Y-28257151D01*
X131268470Y-28279329D01*
X131276735Y-28302429D01*
X131282696Y-28326227D01*
X131286296Y-28350496D01*
X131287500Y-28375000D01*
X131287500Y-29625000D01*
X131286296Y-29649504D01*
X131282696Y-29673773D01*
X131276735Y-29697571D01*
X131268470Y-29720671D01*
X131257980Y-29742849D01*
X131245367Y-29763893D01*
X131230753Y-29783598D01*
X131214277Y-29801777D01*
X131196098Y-29818253D01*
X131176393Y-29832867D01*
X131155349Y-29845480D01*
X131133171Y-29855970D01*
X131110071Y-29864235D01*
X131086273Y-29870196D01*
X131062004Y-29873796D01*
X131037500Y-29875000D01*
X130112500Y-29875000D01*
X130087996Y-29873796D01*
X130063727Y-29870196D01*
X130039929Y-29864235D01*
X130016829Y-29855970D01*
X129994651Y-29845480D01*
X129973607Y-29832867D01*
X129953902Y-29818253D01*
X129935723Y-29801777D01*
X129919247Y-29783598D01*
X129904633Y-29763893D01*
X129892020Y-29742849D01*
X129881530Y-29720671D01*
X129873265Y-29697571D01*
X129867304Y-29673773D01*
X129863704Y-29649504D01*
X129862500Y-29625000D01*
X129862500Y-28375000D01*
X129863704Y-28350496D01*
X129867304Y-28326227D01*
X129873265Y-28302429D01*
X129881530Y-28279329D01*
X129892020Y-28257151D01*
X129904633Y-28236107D01*
X129919247Y-28216402D01*
X129935723Y-28198223D01*
X129953902Y-28181747D01*
X129973607Y-28167133D01*
X129994651Y-28154520D01*
X130016829Y-28144030D01*
X130039929Y-28135765D01*
X130063727Y-28129804D01*
X130087996Y-28126204D01*
X130112500Y-28125000D01*
X131037500Y-28125000D01*
X131062004Y-28126204D01*
X131062004Y-28126204D01*
G37*
D12*
X130575000Y-29000000D03*
D11*
G36*
X128087004Y-28126204D02*
G01*
X128111273Y-28129804D01*
X128135071Y-28135765D01*
X128158171Y-28144030D01*
X128180349Y-28154520D01*
X128201393Y-28167133D01*
X128221098Y-28181747D01*
X128239277Y-28198223D01*
X128255753Y-28216402D01*
X128270367Y-28236107D01*
X128282980Y-28257151D01*
X128293470Y-28279329D01*
X128301735Y-28302429D01*
X128307696Y-28326227D01*
X128311296Y-28350496D01*
X128312500Y-28375000D01*
X128312500Y-29625000D01*
X128311296Y-29649504D01*
X128307696Y-29673773D01*
X128301735Y-29697571D01*
X128293470Y-29720671D01*
X128282980Y-29742849D01*
X128270367Y-29763893D01*
X128255753Y-29783598D01*
X128239277Y-29801777D01*
X128221098Y-29818253D01*
X128201393Y-29832867D01*
X128180349Y-29845480D01*
X128158171Y-29855970D01*
X128135071Y-29864235D01*
X128111273Y-29870196D01*
X128087004Y-29873796D01*
X128062500Y-29875000D01*
X127137500Y-29875000D01*
X127112996Y-29873796D01*
X127088727Y-29870196D01*
X127064929Y-29864235D01*
X127041829Y-29855970D01*
X127019651Y-29845480D01*
X126998607Y-29832867D01*
X126978902Y-29818253D01*
X126960723Y-29801777D01*
X126944247Y-29783598D01*
X126929633Y-29763893D01*
X126917020Y-29742849D01*
X126906530Y-29720671D01*
X126898265Y-29697571D01*
X126892304Y-29673773D01*
X126888704Y-29649504D01*
X126887500Y-29625000D01*
X126887500Y-28375000D01*
X126888704Y-28350496D01*
X126892304Y-28326227D01*
X126898265Y-28302429D01*
X126906530Y-28279329D01*
X126917020Y-28257151D01*
X126929633Y-28236107D01*
X126944247Y-28216402D01*
X126960723Y-28198223D01*
X126978902Y-28181747D01*
X126998607Y-28167133D01*
X127019651Y-28154520D01*
X127041829Y-28144030D01*
X127064929Y-28135765D01*
X127088727Y-28129804D01*
X127112996Y-28126204D01*
X127137500Y-28125000D01*
X128062500Y-28125000D01*
X128087004Y-28126204D01*
X128087004Y-28126204D01*
G37*
D12*
X127600000Y-29000000D03*
D11*
G36*
X140749504Y-30801204D02*
G01*
X140773773Y-30804804D01*
X140797571Y-30810765D01*
X140820671Y-30819030D01*
X140842849Y-30829520D01*
X140863893Y-30842133D01*
X140883598Y-30856747D01*
X140901777Y-30873223D01*
X140918253Y-30891402D01*
X140932867Y-30911107D01*
X140945480Y-30932151D01*
X140955970Y-30954329D01*
X140964235Y-30977429D01*
X140970196Y-31001227D01*
X140973796Y-31025496D01*
X140975000Y-31050000D01*
X140975000Y-31975000D01*
X140973796Y-31999504D01*
X140970196Y-32023773D01*
X140964235Y-32047571D01*
X140955970Y-32070671D01*
X140945480Y-32092849D01*
X140932867Y-32113893D01*
X140918253Y-32133598D01*
X140901777Y-32151777D01*
X140883598Y-32168253D01*
X140863893Y-32182867D01*
X140842849Y-32195480D01*
X140820671Y-32205970D01*
X140797571Y-32214235D01*
X140773773Y-32220196D01*
X140749504Y-32223796D01*
X140725000Y-32225000D01*
X139475000Y-32225000D01*
X139450496Y-32223796D01*
X139426227Y-32220196D01*
X139402429Y-32214235D01*
X139379329Y-32205970D01*
X139357151Y-32195480D01*
X139336107Y-32182867D01*
X139316402Y-32168253D01*
X139298223Y-32151777D01*
X139281747Y-32133598D01*
X139267133Y-32113893D01*
X139254520Y-32092849D01*
X139244030Y-32070671D01*
X139235765Y-32047571D01*
X139229804Y-32023773D01*
X139226204Y-31999504D01*
X139225000Y-31975000D01*
X139225000Y-31050000D01*
X139226204Y-31025496D01*
X139229804Y-31001227D01*
X139235765Y-30977429D01*
X139244030Y-30954329D01*
X139254520Y-30932151D01*
X139267133Y-30911107D01*
X139281747Y-30891402D01*
X139298223Y-30873223D01*
X139316402Y-30856747D01*
X139336107Y-30842133D01*
X139357151Y-30829520D01*
X139379329Y-30819030D01*
X139402429Y-30810765D01*
X139426227Y-30804804D01*
X139450496Y-30801204D01*
X139475000Y-30800000D01*
X140725000Y-30800000D01*
X140749504Y-30801204D01*
X140749504Y-30801204D01*
G37*
D12*
X140100000Y-31512500D03*
D11*
G36*
X140749504Y-33776204D02*
G01*
X140773773Y-33779804D01*
X140797571Y-33785765D01*
X140820671Y-33794030D01*
X140842849Y-33804520D01*
X140863893Y-33817133D01*
X140883598Y-33831747D01*
X140901777Y-33848223D01*
X140918253Y-33866402D01*
X140932867Y-33886107D01*
X140945480Y-33907151D01*
X140955970Y-33929329D01*
X140964235Y-33952429D01*
X140970196Y-33976227D01*
X140973796Y-34000496D01*
X140975000Y-34025000D01*
X140975000Y-34950000D01*
X140973796Y-34974504D01*
X140970196Y-34998773D01*
X140964235Y-35022571D01*
X140955970Y-35045671D01*
X140945480Y-35067849D01*
X140932867Y-35088893D01*
X140918253Y-35108598D01*
X140901777Y-35126777D01*
X140883598Y-35143253D01*
X140863893Y-35157867D01*
X140842849Y-35170480D01*
X140820671Y-35180970D01*
X140797571Y-35189235D01*
X140773773Y-35195196D01*
X140749504Y-35198796D01*
X140725000Y-35200000D01*
X139475000Y-35200000D01*
X139450496Y-35198796D01*
X139426227Y-35195196D01*
X139402429Y-35189235D01*
X139379329Y-35180970D01*
X139357151Y-35170480D01*
X139336107Y-35157867D01*
X139316402Y-35143253D01*
X139298223Y-35126777D01*
X139281747Y-35108598D01*
X139267133Y-35088893D01*
X139254520Y-35067849D01*
X139244030Y-35045671D01*
X139235765Y-35022571D01*
X139229804Y-34998773D01*
X139226204Y-34974504D01*
X139225000Y-34950000D01*
X139225000Y-34025000D01*
X139226204Y-34000496D01*
X139229804Y-33976227D01*
X139235765Y-33952429D01*
X139244030Y-33929329D01*
X139254520Y-33907151D01*
X139267133Y-33886107D01*
X139281747Y-33866402D01*
X139298223Y-33848223D01*
X139316402Y-33831747D01*
X139336107Y-33817133D01*
X139357151Y-33804520D01*
X139379329Y-33794030D01*
X139402429Y-33785765D01*
X139426227Y-33779804D01*
X139450496Y-33776204D01*
X139475000Y-33775000D01*
X140725000Y-33775000D01*
X140749504Y-33776204D01*
X140749504Y-33776204D01*
G37*
D12*
X140100000Y-34487500D03*
D11*
G36*
X136074504Y-28126204D02*
G01*
X136098773Y-28129804D01*
X136122571Y-28135765D01*
X136145671Y-28144030D01*
X136167849Y-28154520D01*
X136188893Y-28167133D01*
X136208598Y-28181747D01*
X136226777Y-28198223D01*
X136243253Y-28216402D01*
X136257867Y-28236107D01*
X136270480Y-28257151D01*
X136280970Y-28279329D01*
X136289235Y-28302429D01*
X136295196Y-28326227D01*
X136298796Y-28350496D01*
X136300000Y-28375000D01*
X136300000Y-29625000D01*
X136298796Y-29649504D01*
X136295196Y-29673773D01*
X136289235Y-29697571D01*
X136280970Y-29720671D01*
X136270480Y-29742849D01*
X136257867Y-29763893D01*
X136243253Y-29783598D01*
X136226777Y-29801777D01*
X136208598Y-29818253D01*
X136188893Y-29832867D01*
X136167849Y-29845480D01*
X136145671Y-29855970D01*
X136122571Y-29864235D01*
X136098773Y-29870196D01*
X136074504Y-29873796D01*
X136050000Y-29875000D01*
X135125000Y-29875000D01*
X135100496Y-29873796D01*
X135076227Y-29870196D01*
X135052429Y-29864235D01*
X135029329Y-29855970D01*
X135007151Y-29845480D01*
X134986107Y-29832867D01*
X134966402Y-29818253D01*
X134948223Y-29801777D01*
X134931747Y-29783598D01*
X134917133Y-29763893D01*
X134904520Y-29742849D01*
X134894030Y-29720671D01*
X134885765Y-29697571D01*
X134879804Y-29673773D01*
X134876204Y-29649504D01*
X134875000Y-29625000D01*
X134875000Y-28375000D01*
X134876204Y-28350496D01*
X134879804Y-28326227D01*
X134885765Y-28302429D01*
X134894030Y-28279329D01*
X134904520Y-28257151D01*
X134917133Y-28236107D01*
X134931747Y-28216402D01*
X134948223Y-28198223D01*
X134966402Y-28181747D01*
X134986107Y-28167133D01*
X135007151Y-28154520D01*
X135029329Y-28144030D01*
X135052429Y-28135765D01*
X135076227Y-28129804D01*
X135100496Y-28126204D01*
X135125000Y-28125000D01*
X136050000Y-28125000D01*
X136074504Y-28126204D01*
X136074504Y-28126204D01*
G37*
D12*
X135587500Y-29000000D03*
D11*
G36*
X133099504Y-28126204D02*
G01*
X133123773Y-28129804D01*
X133147571Y-28135765D01*
X133170671Y-28144030D01*
X133192849Y-28154520D01*
X133213893Y-28167133D01*
X133233598Y-28181747D01*
X133251777Y-28198223D01*
X133268253Y-28216402D01*
X133282867Y-28236107D01*
X133295480Y-28257151D01*
X133305970Y-28279329D01*
X133314235Y-28302429D01*
X133320196Y-28326227D01*
X133323796Y-28350496D01*
X133325000Y-28375000D01*
X133325000Y-29625000D01*
X133323796Y-29649504D01*
X133320196Y-29673773D01*
X133314235Y-29697571D01*
X133305970Y-29720671D01*
X133295480Y-29742849D01*
X133282867Y-29763893D01*
X133268253Y-29783598D01*
X133251777Y-29801777D01*
X133233598Y-29818253D01*
X133213893Y-29832867D01*
X133192849Y-29845480D01*
X133170671Y-29855970D01*
X133147571Y-29864235D01*
X133123773Y-29870196D01*
X133099504Y-29873796D01*
X133075000Y-29875000D01*
X132150000Y-29875000D01*
X132125496Y-29873796D01*
X132101227Y-29870196D01*
X132077429Y-29864235D01*
X132054329Y-29855970D01*
X132032151Y-29845480D01*
X132011107Y-29832867D01*
X131991402Y-29818253D01*
X131973223Y-29801777D01*
X131956747Y-29783598D01*
X131942133Y-29763893D01*
X131929520Y-29742849D01*
X131919030Y-29720671D01*
X131910765Y-29697571D01*
X131904804Y-29673773D01*
X131901204Y-29649504D01*
X131900000Y-29625000D01*
X131900000Y-28375000D01*
X131901204Y-28350496D01*
X131904804Y-28326227D01*
X131910765Y-28302429D01*
X131919030Y-28279329D01*
X131929520Y-28257151D01*
X131942133Y-28236107D01*
X131956747Y-28216402D01*
X131973223Y-28198223D01*
X131991402Y-28181747D01*
X132011107Y-28167133D01*
X132032151Y-28154520D01*
X132054329Y-28144030D01*
X132077429Y-28135765D01*
X132101227Y-28129804D01*
X132125496Y-28126204D01*
X132150000Y-28125000D01*
X133075000Y-28125000D01*
X133099504Y-28126204D01*
X133099504Y-28126204D01*
G37*
D12*
X132612500Y-29000000D03*
D11*
G36*
X130562004Y-34626204D02*
G01*
X130586273Y-34629804D01*
X130610071Y-34635765D01*
X130633171Y-34644030D01*
X130655349Y-34654520D01*
X130676393Y-34667133D01*
X130696098Y-34681747D01*
X130714277Y-34698223D01*
X130730753Y-34716402D01*
X130745367Y-34736107D01*
X130757980Y-34757151D01*
X130768470Y-34779329D01*
X130776735Y-34802429D01*
X130782696Y-34826227D01*
X130786296Y-34850496D01*
X130787500Y-34875000D01*
X130787500Y-36125000D01*
X130786296Y-36149504D01*
X130782696Y-36173773D01*
X130776735Y-36197571D01*
X130768470Y-36220671D01*
X130757980Y-36242849D01*
X130745367Y-36263893D01*
X130730753Y-36283598D01*
X130714277Y-36301777D01*
X130696098Y-36318253D01*
X130676393Y-36332867D01*
X130655349Y-36345480D01*
X130633171Y-36355970D01*
X130610071Y-36364235D01*
X130586273Y-36370196D01*
X130562004Y-36373796D01*
X130537500Y-36375000D01*
X129612500Y-36375000D01*
X129587996Y-36373796D01*
X129563727Y-36370196D01*
X129539929Y-36364235D01*
X129516829Y-36355970D01*
X129494651Y-36345480D01*
X129473607Y-36332867D01*
X129453902Y-36318253D01*
X129435723Y-36301777D01*
X129419247Y-36283598D01*
X129404633Y-36263893D01*
X129392020Y-36242849D01*
X129381530Y-36220671D01*
X129373265Y-36197571D01*
X129367304Y-36173773D01*
X129363704Y-36149504D01*
X129362500Y-36125000D01*
X129362500Y-34875000D01*
X129363704Y-34850496D01*
X129367304Y-34826227D01*
X129373265Y-34802429D01*
X129381530Y-34779329D01*
X129392020Y-34757151D01*
X129404633Y-34736107D01*
X129419247Y-34716402D01*
X129435723Y-34698223D01*
X129453902Y-34681747D01*
X129473607Y-34667133D01*
X129494651Y-34654520D01*
X129516829Y-34644030D01*
X129539929Y-34635765D01*
X129563727Y-34629804D01*
X129587996Y-34626204D01*
X129612500Y-34625000D01*
X130537500Y-34625000D01*
X130562004Y-34626204D01*
X130562004Y-34626204D01*
G37*
D12*
X130075000Y-35500000D03*
D11*
G36*
X127587004Y-34626204D02*
G01*
X127611273Y-34629804D01*
X127635071Y-34635765D01*
X127658171Y-34644030D01*
X127680349Y-34654520D01*
X127701393Y-34667133D01*
X127721098Y-34681747D01*
X127739277Y-34698223D01*
X127755753Y-34716402D01*
X127770367Y-34736107D01*
X127782980Y-34757151D01*
X127793470Y-34779329D01*
X127801735Y-34802429D01*
X127807696Y-34826227D01*
X127811296Y-34850496D01*
X127812500Y-34875000D01*
X127812500Y-36125000D01*
X127811296Y-36149504D01*
X127807696Y-36173773D01*
X127801735Y-36197571D01*
X127793470Y-36220671D01*
X127782980Y-36242849D01*
X127770367Y-36263893D01*
X127755753Y-36283598D01*
X127739277Y-36301777D01*
X127721098Y-36318253D01*
X127701393Y-36332867D01*
X127680349Y-36345480D01*
X127658171Y-36355970D01*
X127635071Y-36364235D01*
X127611273Y-36370196D01*
X127587004Y-36373796D01*
X127562500Y-36375000D01*
X126637500Y-36375000D01*
X126612996Y-36373796D01*
X126588727Y-36370196D01*
X126564929Y-36364235D01*
X126541829Y-36355970D01*
X126519651Y-36345480D01*
X126498607Y-36332867D01*
X126478902Y-36318253D01*
X126460723Y-36301777D01*
X126444247Y-36283598D01*
X126429633Y-36263893D01*
X126417020Y-36242849D01*
X126406530Y-36220671D01*
X126398265Y-36197571D01*
X126392304Y-36173773D01*
X126388704Y-36149504D01*
X126387500Y-36125000D01*
X126387500Y-34875000D01*
X126388704Y-34850496D01*
X126392304Y-34826227D01*
X126398265Y-34802429D01*
X126406530Y-34779329D01*
X126417020Y-34757151D01*
X126429633Y-34736107D01*
X126444247Y-34716402D01*
X126460723Y-34698223D01*
X126478902Y-34681747D01*
X126498607Y-34667133D01*
X126519651Y-34654520D01*
X126541829Y-34644030D01*
X126564929Y-34635765D01*
X126588727Y-34629804D01*
X126612996Y-34626204D01*
X126637500Y-34625000D01*
X127562500Y-34625000D01*
X127587004Y-34626204D01*
X127587004Y-34626204D01*
G37*
D12*
X127100000Y-35500000D03*
D11*
G36*
X124512004Y-47126204D02*
G01*
X124536273Y-47129804D01*
X124560071Y-47135765D01*
X124583171Y-47144030D01*
X124605349Y-47154520D01*
X124626393Y-47167133D01*
X124646098Y-47181747D01*
X124664277Y-47198223D01*
X124680753Y-47216402D01*
X124695367Y-47236107D01*
X124707980Y-47257151D01*
X124718470Y-47279329D01*
X124726735Y-47302429D01*
X124732696Y-47326227D01*
X124736296Y-47350496D01*
X124737500Y-47375000D01*
X124737500Y-48625000D01*
X124736296Y-48649504D01*
X124732696Y-48673773D01*
X124726735Y-48697571D01*
X124718470Y-48720671D01*
X124707980Y-48742849D01*
X124695367Y-48763893D01*
X124680753Y-48783598D01*
X124664277Y-48801777D01*
X124646098Y-48818253D01*
X124626393Y-48832867D01*
X124605349Y-48845480D01*
X124583171Y-48855970D01*
X124560071Y-48864235D01*
X124536273Y-48870196D01*
X124512004Y-48873796D01*
X124487500Y-48875000D01*
X123562500Y-48875000D01*
X123537996Y-48873796D01*
X123513727Y-48870196D01*
X123489929Y-48864235D01*
X123466829Y-48855970D01*
X123444651Y-48845480D01*
X123423607Y-48832867D01*
X123403902Y-48818253D01*
X123385723Y-48801777D01*
X123369247Y-48783598D01*
X123354633Y-48763893D01*
X123342020Y-48742849D01*
X123331530Y-48720671D01*
X123323265Y-48697571D01*
X123317304Y-48673773D01*
X123313704Y-48649504D01*
X123312500Y-48625000D01*
X123312500Y-47375000D01*
X123313704Y-47350496D01*
X123317304Y-47326227D01*
X123323265Y-47302429D01*
X123331530Y-47279329D01*
X123342020Y-47257151D01*
X123354633Y-47236107D01*
X123369247Y-47216402D01*
X123385723Y-47198223D01*
X123403902Y-47181747D01*
X123423607Y-47167133D01*
X123444651Y-47154520D01*
X123466829Y-47144030D01*
X123489929Y-47135765D01*
X123513727Y-47129804D01*
X123537996Y-47126204D01*
X123562500Y-47125000D01*
X124487500Y-47125000D01*
X124512004Y-47126204D01*
X124512004Y-47126204D01*
G37*
D12*
X124025000Y-48000000D03*
D11*
G36*
X127487004Y-47126204D02*
G01*
X127511273Y-47129804D01*
X127535071Y-47135765D01*
X127558171Y-47144030D01*
X127580349Y-47154520D01*
X127601393Y-47167133D01*
X127621098Y-47181747D01*
X127639277Y-47198223D01*
X127655753Y-47216402D01*
X127670367Y-47236107D01*
X127682980Y-47257151D01*
X127693470Y-47279329D01*
X127701735Y-47302429D01*
X127707696Y-47326227D01*
X127711296Y-47350496D01*
X127712500Y-47375000D01*
X127712500Y-48625000D01*
X127711296Y-48649504D01*
X127707696Y-48673773D01*
X127701735Y-48697571D01*
X127693470Y-48720671D01*
X127682980Y-48742849D01*
X127670367Y-48763893D01*
X127655753Y-48783598D01*
X127639277Y-48801777D01*
X127621098Y-48818253D01*
X127601393Y-48832867D01*
X127580349Y-48845480D01*
X127558171Y-48855970D01*
X127535071Y-48864235D01*
X127511273Y-48870196D01*
X127487004Y-48873796D01*
X127462500Y-48875000D01*
X126537500Y-48875000D01*
X126512996Y-48873796D01*
X126488727Y-48870196D01*
X126464929Y-48864235D01*
X126441829Y-48855970D01*
X126419651Y-48845480D01*
X126398607Y-48832867D01*
X126378902Y-48818253D01*
X126360723Y-48801777D01*
X126344247Y-48783598D01*
X126329633Y-48763893D01*
X126317020Y-48742849D01*
X126306530Y-48720671D01*
X126298265Y-48697571D01*
X126292304Y-48673773D01*
X126288704Y-48649504D01*
X126287500Y-48625000D01*
X126287500Y-47375000D01*
X126288704Y-47350496D01*
X126292304Y-47326227D01*
X126298265Y-47302429D01*
X126306530Y-47279329D01*
X126317020Y-47257151D01*
X126329633Y-47236107D01*
X126344247Y-47216402D01*
X126360723Y-47198223D01*
X126378902Y-47181747D01*
X126398607Y-47167133D01*
X126419651Y-47154520D01*
X126441829Y-47144030D01*
X126464929Y-47135765D01*
X126488727Y-47129804D01*
X126512996Y-47126204D01*
X126537500Y-47125000D01*
X127462500Y-47125000D01*
X127487004Y-47126204D01*
X127487004Y-47126204D01*
G37*
D12*
X127000000Y-48000000D03*
D11*
G36*
X100462004Y-84126204D02*
G01*
X100486273Y-84129804D01*
X100510071Y-84135765D01*
X100533171Y-84144030D01*
X100555349Y-84154520D01*
X100576393Y-84167133D01*
X100596098Y-84181747D01*
X100614277Y-84198223D01*
X100630753Y-84216402D01*
X100645367Y-84236107D01*
X100657980Y-84257151D01*
X100668470Y-84279329D01*
X100676735Y-84302429D01*
X100682696Y-84326227D01*
X100686296Y-84350496D01*
X100687500Y-84375000D01*
X100687500Y-85625000D01*
X100686296Y-85649504D01*
X100682696Y-85673773D01*
X100676735Y-85697571D01*
X100668470Y-85720671D01*
X100657980Y-85742849D01*
X100645367Y-85763893D01*
X100630753Y-85783598D01*
X100614277Y-85801777D01*
X100596098Y-85818253D01*
X100576393Y-85832867D01*
X100555349Y-85845480D01*
X100533171Y-85855970D01*
X100510071Y-85864235D01*
X100486273Y-85870196D01*
X100462004Y-85873796D01*
X100437500Y-85875000D01*
X99512500Y-85875000D01*
X99487996Y-85873796D01*
X99463727Y-85870196D01*
X99439929Y-85864235D01*
X99416829Y-85855970D01*
X99394651Y-85845480D01*
X99373607Y-85832867D01*
X99353902Y-85818253D01*
X99335723Y-85801777D01*
X99319247Y-85783598D01*
X99304633Y-85763893D01*
X99292020Y-85742849D01*
X99281530Y-85720671D01*
X99273265Y-85697571D01*
X99267304Y-85673773D01*
X99263704Y-85649504D01*
X99262500Y-85625000D01*
X99262500Y-84375000D01*
X99263704Y-84350496D01*
X99267304Y-84326227D01*
X99273265Y-84302429D01*
X99281530Y-84279329D01*
X99292020Y-84257151D01*
X99304633Y-84236107D01*
X99319247Y-84216402D01*
X99335723Y-84198223D01*
X99353902Y-84181747D01*
X99373607Y-84167133D01*
X99394651Y-84154520D01*
X99416829Y-84144030D01*
X99439929Y-84135765D01*
X99463727Y-84129804D01*
X99487996Y-84126204D01*
X99512500Y-84125000D01*
X100437500Y-84125000D01*
X100462004Y-84126204D01*
X100462004Y-84126204D01*
G37*
D12*
X99975000Y-85000000D03*
D11*
G36*
X97487004Y-84126204D02*
G01*
X97511273Y-84129804D01*
X97535071Y-84135765D01*
X97558171Y-84144030D01*
X97580349Y-84154520D01*
X97601393Y-84167133D01*
X97621098Y-84181747D01*
X97639277Y-84198223D01*
X97655753Y-84216402D01*
X97670367Y-84236107D01*
X97682980Y-84257151D01*
X97693470Y-84279329D01*
X97701735Y-84302429D01*
X97707696Y-84326227D01*
X97711296Y-84350496D01*
X97712500Y-84375000D01*
X97712500Y-85625000D01*
X97711296Y-85649504D01*
X97707696Y-85673773D01*
X97701735Y-85697571D01*
X97693470Y-85720671D01*
X97682980Y-85742849D01*
X97670367Y-85763893D01*
X97655753Y-85783598D01*
X97639277Y-85801777D01*
X97621098Y-85818253D01*
X97601393Y-85832867D01*
X97580349Y-85845480D01*
X97558171Y-85855970D01*
X97535071Y-85864235D01*
X97511273Y-85870196D01*
X97487004Y-85873796D01*
X97462500Y-85875000D01*
X96537500Y-85875000D01*
X96512996Y-85873796D01*
X96488727Y-85870196D01*
X96464929Y-85864235D01*
X96441829Y-85855970D01*
X96419651Y-85845480D01*
X96398607Y-85832867D01*
X96378902Y-85818253D01*
X96360723Y-85801777D01*
X96344247Y-85783598D01*
X96329633Y-85763893D01*
X96317020Y-85742849D01*
X96306530Y-85720671D01*
X96298265Y-85697571D01*
X96292304Y-85673773D01*
X96288704Y-85649504D01*
X96287500Y-85625000D01*
X96287500Y-84375000D01*
X96288704Y-84350496D01*
X96292304Y-84326227D01*
X96298265Y-84302429D01*
X96306530Y-84279329D01*
X96317020Y-84257151D01*
X96329633Y-84236107D01*
X96344247Y-84216402D01*
X96360723Y-84198223D01*
X96378902Y-84181747D01*
X96398607Y-84167133D01*
X96419651Y-84154520D01*
X96441829Y-84144030D01*
X96464929Y-84135765D01*
X96488727Y-84129804D01*
X96512996Y-84126204D01*
X96537500Y-84125000D01*
X97462500Y-84125000D01*
X97487004Y-84126204D01*
X97487004Y-84126204D01*
G37*
D12*
X97000000Y-85000000D03*
D11*
G36*
X108462004Y-84126204D02*
G01*
X108486273Y-84129804D01*
X108510071Y-84135765D01*
X108533171Y-84144030D01*
X108555349Y-84154520D01*
X108576393Y-84167133D01*
X108596098Y-84181747D01*
X108614277Y-84198223D01*
X108630753Y-84216402D01*
X108645367Y-84236107D01*
X108657980Y-84257151D01*
X108668470Y-84279329D01*
X108676735Y-84302429D01*
X108682696Y-84326227D01*
X108686296Y-84350496D01*
X108687500Y-84375000D01*
X108687500Y-85625000D01*
X108686296Y-85649504D01*
X108682696Y-85673773D01*
X108676735Y-85697571D01*
X108668470Y-85720671D01*
X108657980Y-85742849D01*
X108645367Y-85763893D01*
X108630753Y-85783598D01*
X108614277Y-85801777D01*
X108596098Y-85818253D01*
X108576393Y-85832867D01*
X108555349Y-85845480D01*
X108533171Y-85855970D01*
X108510071Y-85864235D01*
X108486273Y-85870196D01*
X108462004Y-85873796D01*
X108437500Y-85875000D01*
X107512500Y-85875000D01*
X107487996Y-85873796D01*
X107463727Y-85870196D01*
X107439929Y-85864235D01*
X107416829Y-85855970D01*
X107394651Y-85845480D01*
X107373607Y-85832867D01*
X107353902Y-85818253D01*
X107335723Y-85801777D01*
X107319247Y-85783598D01*
X107304633Y-85763893D01*
X107292020Y-85742849D01*
X107281530Y-85720671D01*
X107273265Y-85697571D01*
X107267304Y-85673773D01*
X107263704Y-85649504D01*
X107262500Y-85625000D01*
X107262500Y-84375000D01*
X107263704Y-84350496D01*
X107267304Y-84326227D01*
X107273265Y-84302429D01*
X107281530Y-84279329D01*
X107292020Y-84257151D01*
X107304633Y-84236107D01*
X107319247Y-84216402D01*
X107335723Y-84198223D01*
X107353902Y-84181747D01*
X107373607Y-84167133D01*
X107394651Y-84154520D01*
X107416829Y-84144030D01*
X107439929Y-84135765D01*
X107463727Y-84129804D01*
X107487996Y-84126204D01*
X107512500Y-84125000D01*
X108437500Y-84125000D01*
X108462004Y-84126204D01*
X108462004Y-84126204D01*
G37*
D12*
X107975000Y-85000000D03*
D11*
G36*
X105487004Y-84126204D02*
G01*
X105511273Y-84129804D01*
X105535071Y-84135765D01*
X105558171Y-84144030D01*
X105580349Y-84154520D01*
X105601393Y-84167133D01*
X105621098Y-84181747D01*
X105639277Y-84198223D01*
X105655753Y-84216402D01*
X105670367Y-84236107D01*
X105682980Y-84257151D01*
X105693470Y-84279329D01*
X105701735Y-84302429D01*
X105707696Y-84326227D01*
X105711296Y-84350496D01*
X105712500Y-84375000D01*
X105712500Y-85625000D01*
X105711296Y-85649504D01*
X105707696Y-85673773D01*
X105701735Y-85697571D01*
X105693470Y-85720671D01*
X105682980Y-85742849D01*
X105670367Y-85763893D01*
X105655753Y-85783598D01*
X105639277Y-85801777D01*
X105621098Y-85818253D01*
X105601393Y-85832867D01*
X105580349Y-85845480D01*
X105558171Y-85855970D01*
X105535071Y-85864235D01*
X105511273Y-85870196D01*
X105487004Y-85873796D01*
X105462500Y-85875000D01*
X104537500Y-85875000D01*
X104512996Y-85873796D01*
X104488727Y-85870196D01*
X104464929Y-85864235D01*
X104441829Y-85855970D01*
X104419651Y-85845480D01*
X104398607Y-85832867D01*
X104378902Y-85818253D01*
X104360723Y-85801777D01*
X104344247Y-85783598D01*
X104329633Y-85763893D01*
X104317020Y-85742849D01*
X104306530Y-85720671D01*
X104298265Y-85697571D01*
X104292304Y-85673773D01*
X104288704Y-85649504D01*
X104287500Y-85625000D01*
X104287500Y-84375000D01*
X104288704Y-84350496D01*
X104292304Y-84326227D01*
X104298265Y-84302429D01*
X104306530Y-84279329D01*
X104317020Y-84257151D01*
X104329633Y-84236107D01*
X104344247Y-84216402D01*
X104360723Y-84198223D01*
X104378902Y-84181747D01*
X104398607Y-84167133D01*
X104419651Y-84154520D01*
X104441829Y-84144030D01*
X104464929Y-84135765D01*
X104488727Y-84129804D01*
X104512996Y-84126204D01*
X104537500Y-84125000D01*
X105462500Y-84125000D01*
X105487004Y-84126204D01*
X105487004Y-84126204D01*
G37*
D12*
X105000000Y-85000000D03*
D11*
G36*
X100462004Y-70126204D02*
G01*
X100486273Y-70129804D01*
X100510071Y-70135765D01*
X100533171Y-70144030D01*
X100555349Y-70154520D01*
X100576393Y-70167133D01*
X100596098Y-70181747D01*
X100614277Y-70198223D01*
X100630753Y-70216402D01*
X100645367Y-70236107D01*
X100657980Y-70257151D01*
X100668470Y-70279329D01*
X100676735Y-70302429D01*
X100682696Y-70326227D01*
X100686296Y-70350496D01*
X100687500Y-70375000D01*
X100687500Y-71625000D01*
X100686296Y-71649504D01*
X100682696Y-71673773D01*
X100676735Y-71697571D01*
X100668470Y-71720671D01*
X100657980Y-71742849D01*
X100645367Y-71763893D01*
X100630753Y-71783598D01*
X100614277Y-71801777D01*
X100596098Y-71818253D01*
X100576393Y-71832867D01*
X100555349Y-71845480D01*
X100533171Y-71855970D01*
X100510071Y-71864235D01*
X100486273Y-71870196D01*
X100462004Y-71873796D01*
X100437500Y-71875000D01*
X99512500Y-71875000D01*
X99487996Y-71873796D01*
X99463727Y-71870196D01*
X99439929Y-71864235D01*
X99416829Y-71855970D01*
X99394651Y-71845480D01*
X99373607Y-71832867D01*
X99353902Y-71818253D01*
X99335723Y-71801777D01*
X99319247Y-71783598D01*
X99304633Y-71763893D01*
X99292020Y-71742849D01*
X99281530Y-71720671D01*
X99273265Y-71697571D01*
X99267304Y-71673773D01*
X99263704Y-71649504D01*
X99262500Y-71625000D01*
X99262500Y-70375000D01*
X99263704Y-70350496D01*
X99267304Y-70326227D01*
X99273265Y-70302429D01*
X99281530Y-70279329D01*
X99292020Y-70257151D01*
X99304633Y-70236107D01*
X99319247Y-70216402D01*
X99335723Y-70198223D01*
X99353902Y-70181747D01*
X99373607Y-70167133D01*
X99394651Y-70154520D01*
X99416829Y-70144030D01*
X99439929Y-70135765D01*
X99463727Y-70129804D01*
X99487996Y-70126204D01*
X99512500Y-70125000D01*
X100437500Y-70125000D01*
X100462004Y-70126204D01*
X100462004Y-70126204D01*
G37*
D12*
X99975000Y-71000000D03*
D11*
G36*
X97487004Y-70126204D02*
G01*
X97511273Y-70129804D01*
X97535071Y-70135765D01*
X97558171Y-70144030D01*
X97580349Y-70154520D01*
X97601393Y-70167133D01*
X97621098Y-70181747D01*
X97639277Y-70198223D01*
X97655753Y-70216402D01*
X97670367Y-70236107D01*
X97682980Y-70257151D01*
X97693470Y-70279329D01*
X97701735Y-70302429D01*
X97707696Y-70326227D01*
X97711296Y-70350496D01*
X97712500Y-70375000D01*
X97712500Y-71625000D01*
X97711296Y-71649504D01*
X97707696Y-71673773D01*
X97701735Y-71697571D01*
X97693470Y-71720671D01*
X97682980Y-71742849D01*
X97670367Y-71763893D01*
X97655753Y-71783598D01*
X97639277Y-71801777D01*
X97621098Y-71818253D01*
X97601393Y-71832867D01*
X97580349Y-71845480D01*
X97558171Y-71855970D01*
X97535071Y-71864235D01*
X97511273Y-71870196D01*
X97487004Y-71873796D01*
X97462500Y-71875000D01*
X96537500Y-71875000D01*
X96512996Y-71873796D01*
X96488727Y-71870196D01*
X96464929Y-71864235D01*
X96441829Y-71855970D01*
X96419651Y-71845480D01*
X96398607Y-71832867D01*
X96378902Y-71818253D01*
X96360723Y-71801777D01*
X96344247Y-71783598D01*
X96329633Y-71763893D01*
X96317020Y-71742849D01*
X96306530Y-71720671D01*
X96298265Y-71697571D01*
X96292304Y-71673773D01*
X96288704Y-71649504D01*
X96287500Y-71625000D01*
X96287500Y-70375000D01*
X96288704Y-70350496D01*
X96292304Y-70326227D01*
X96298265Y-70302429D01*
X96306530Y-70279329D01*
X96317020Y-70257151D01*
X96329633Y-70236107D01*
X96344247Y-70216402D01*
X96360723Y-70198223D01*
X96378902Y-70181747D01*
X96398607Y-70167133D01*
X96419651Y-70154520D01*
X96441829Y-70144030D01*
X96464929Y-70135765D01*
X96488727Y-70129804D01*
X96512996Y-70126204D01*
X96537500Y-70125000D01*
X97462500Y-70125000D01*
X97487004Y-70126204D01*
X97487004Y-70126204D01*
G37*
D12*
X97000000Y-71000000D03*
D11*
G36*
X108462004Y-70126204D02*
G01*
X108486273Y-70129804D01*
X108510071Y-70135765D01*
X108533171Y-70144030D01*
X108555349Y-70154520D01*
X108576393Y-70167133D01*
X108596098Y-70181747D01*
X108614277Y-70198223D01*
X108630753Y-70216402D01*
X108645367Y-70236107D01*
X108657980Y-70257151D01*
X108668470Y-70279329D01*
X108676735Y-70302429D01*
X108682696Y-70326227D01*
X108686296Y-70350496D01*
X108687500Y-70375000D01*
X108687500Y-71625000D01*
X108686296Y-71649504D01*
X108682696Y-71673773D01*
X108676735Y-71697571D01*
X108668470Y-71720671D01*
X108657980Y-71742849D01*
X108645367Y-71763893D01*
X108630753Y-71783598D01*
X108614277Y-71801777D01*
X108596098Y-71818253D01*
X108576393Y-71832867D01*
X108555349Y-71845480D01*
X108533171Y-71855970D01*
X108510071Y-71864235D01*
X108486273Y-71870196D01*
X108462004Y-71873796D01*
X108437500Y-71875000D01*
X107512500Y-71875000D01*
X107487996Y-71873796D01*
X107463727Y-71870196D01*
X107439929Y-71864235D01*
X107416829Y-71855970D01*
X107394651Y-71845480D01*
X107373607Y-71832867D01*
X107353902Y-71818253D01*
X107335723Y-71801777D01*
X107319247Y-71783598D01*
X107304633Y-71763893D01*
X107292020Y-71742849D01*
X107281530Y-71720671D01*
X107273265Y-71697571D01*
X107267304Y-71673773D01*
X107263704Y-71649504D01*
X107262500Y-71625000D01*
X107262500Y-70375000D01*
X107263704Y-70350496D01*
X107267304Y-70326227D01*
X107273265Y-70302429D01*
X107281530Y-70279329D01*
X107292020Y-70257151D01*
X107304633Y-70236107D01*
X107319247Y-70216402D01*
X107335723Y-70198223D01*
X107353902Y-70181747D01*
X107373607Y-70167133D01*
X107394651Y-70154520D01*
X107416829Y-70144030D01*
X107439929Y-70135765D01*
X107463727Y-70129804D01*
X107487996Y-70126204D01*
X107512500Y-70125000D01*
X108437500Y-70125000D01*
X108462004Y-70126204D01*
X108462004Y-70126204D01*
G37*
D12*
X107975000Y-71000000D03*
D11*
G36*
X105487004Y-70126204D02*
G01*
X105511273Y-70129804D01*
X105535071Y-70135765D01*
X105558171Y-70144030D01*
X105580349Y-70154520D01*
X105601393Y-70167133D01*
X105621098Y-70181747D01*
X105639277Y-70198223D01*
X105655753Y-70216402D01*
X105670367Y-70236107D01*
X105682980Y-70257151D01*
X105693470Y-70279329D01*
X105701735Y-70302429D01*
X105707696Y-70326227D01*
X105711296Y-70350496D01*
X105712500Y-70375000D01*
X105712500Y-71625000D01*
X105711296Y-71649504D01*
X105707696Y-71673773D01*
X105701735Y-71697571D01*
X105693470Y-71720671D01*
X105682980Y-71742849D01*
X105670367Y-71763893D01*
X105655753Y-71783598D01*
X105639277Y-71801777D01*
X105621098Y-71818253D01*
X105601393Y-71832867D01*
X105580349Y-71845480D01*
X105558171Y-71855970D01*
X105535071Y-71864235D01*
X105511273Y-71870196D01*
X105487004Y-71873796D01*
X105462500Y-71875000D01*
X104537500Y-71875000D01*
X104512996Y-71873796D01*
X104488727Y-71870196D01*
X104464929Y-71864235D01*
X104441829Y-71855970D01*
X104419651Y-71845480D01*
X104398607Y-71832867D01*
X104378902Y-71818253D01*
X104360723Y-71801777D01*
X104344247Y-71783598D01*
X104329633Y-71763893D01*
X104317020Y-71742849D01*
X104306530Y-71720671D01*
X104298265Y-71697571D01*
X104292304Y-71673773D01*
X104288704Y-71649504D01*
X104287500Y-71625000D01*
X104287500Y-70375000D01*
X104288704Y-70350496D01*
X104292304Y-70326227D01*
X104298265Y-70302429D01*
X104306530Y-70279329D01*
X104317020Y-70257151D01*
X104329633Y-70236107D01*
X104344247Y-70216402D01*
X104360723Y-70198223D01*
X104378902Y-70181747D01*
X104398607Y-70167133D01*
X104419651Y-70154520D01*
X104441829Y-70144030D01*
X104464929Y-70135765D01*
X104488727Y-70129804D01*
X104512996Y-70126204D01*
X104537500Y-70125000D01*
X105462500Y-70125000D01*
X105487004Y-70126204D01*
X105487004Y-70126204D01*
G37*
D12*
X105000000Y-71000000D03*
D11*
G36*
X100487004Y-56126204D02*
G01*
X100511273Y-56129804D01*
X100535071Y-56135765D01*
X100558171Y-56144030D01*
X100580349Y-56154520D01*
X100601393Y-56167133D01*
X100621098Y-56181747D01*
X100639277Y-56198223D01*
X100655753Y-56216402D01*
X100670367Y-56236107D01*
X100682980Y-56257151D01*
X100693470Y-56279329D01*
X100701735Y-56302429D01*
X100707696Y-56326227D01*
X100711296Y-56350496D01*
X100712500Y-56375000D01*
X100712500Y-57625000D01*
X100711296Y-57649504D01*
X100707696Y-57673773D01*
X100701735Y-57697571D01*
X100693470Y-57720671D01*
X100682980Y-57742849D01*
X100670367Y-57763893D01*
X100655753Y-57783598D01*
X100639277Y-57801777D01*
X100621098Y-57818253D01*
X100601393Y-57832867D01*
X100580349Y-57845480D01*
X100558171Y-57855970D01*
X100535071Y-57864235D01*
X100511273Y-57870196D01*
X100487004Y-57873796D01*
X100462500Y-57875000D01*
X99537500Y-57875000D01*
X99512996Y-57873796D01*
X99488727Y-57870196D01*
X99464929Y-57864235D01*
X99441829Y-57855970D01*
X99419651Y-57845480D01*
X99398607Y-57832867D01*
X99378902Y-57818253D01*
X99360723Y-57801777D01*
X99344247Y-57783598D01*
X99329633Y-57763893D01*
X99317020Y-57742849D01*
X99306530Y-57720671D01*
X99298265Y-57697571D01*
X99292304Y-57673773D01*
X99288704Y-57649504D01*
X99287500Y-57625000D01*
X99287500Y-56375000D01*
X99288704Y-56350496D01*
X99292304Y-56326227D01*
X99298265Y-56302429D01*
X99306530Y-56279329D01*
X99317020Y-56257151D01*
X99329633Y-56236107D01*
X99344247Y-56216402D01*
X99360723Y-56198223D01*
X99378902Y-56181747D01*
X99398607Y-56167133D01*
X99419651Y-56154520D01*
X99441829Y-56144030D01*
X99464929Y-56135765D01*
X99488727Y-56129804D01*
X99512996Y-56126204D01*
X99537500Y-56125000D01*
X100462500Y-56125000D01*
X100487004Y-56126204D01*
X100487004Y-56126204D01*
G37*
D12*
X100000000Y-57000000D03*
D11*
G36*
X97512004Y-56126204D02*
G01*
X97536273Y-56129804D01*
X97560071Y-56135765D01*
X97583171Y-56144030D01*
X97605349Y-56154520D01*
X97626393Y-56167133D01*
X97646098Y-56181747D01*
X97664277Y-56198223D01*
X97680753Y-56216402D01*
X97695367Y-56236107D01*
X97707980Y-56257151D01*
X97718470Y-56279329D01*
X97726735Y-56302429D01*
X97732696Y-56326227D01*
X97736296Y-56350496D01*
X97737500Y-56375000D01*
X97737500Y-57625000D01*
X97736296Y-57649504D01*
X97732696Y-57673773D01*
X97726735Y-57697571D01*
X97718470Y-57720671D01*
X97707980Y-57742849D01*
X97695367Y-57763893D01*
X97680753Y-57783598D01*
X97664277Y-57801777D01*
X97646098Y-57818253D01*
X97626393Y-57832867D01*
X97605349Y-57845480D01*
X97583171Y-57855970D01*
X97560071Y-57864235D01*
X97536273Y-57870196D01*
X97512004Y-57873796D01*
X97487500Y-57875000D01*
X96562500Y-57875000D01*
X96537996Y-57873796D01*
X96513727Y-57870196D01*
X96489929Y-57864235D01*
X96466829Y-57855970D01*
X96444651Y-57845480D01*
X96423607Y-57832867D01*
X96403902Y-57818253D01*
X96385723Y-57801777D01*
X96369247Y-57783598D01*
X96354633Y-57763893D01*
X96342020Y-57742849D01*
X96331530Y-57720671D01*
X96323265Y-57697571D01*
X96317304Y-57673773D01*
X96313704Y-57649504D01*
X96312500Y-57625000D01*
X96312500Y-56375000D01*
X96313704Y-56350496D01*
X96317304Y-56326227D01*
X96323265Y-56302429D01*
X96331530Y-56279329D01*
X96342020Y-56257151D01*
X96354633Y-56236107D01*
X96369247Y-56216402D01*
X96385723Y-56198223D01*
X96403902Y-56181747D01*
X96423607Y-56167133D01*
X96444651Y-56154520D01*
X96466829Y-56144030D01*
X96489929Y-56135765D01*
X96513727Y-56129804D01*
X96537996Y-56126204D01*
X96562500Y-56125000D01*
X97487500Y-56125000D01*
X97512004Y-56126204D01*
X97512004Y-56126204D01*
G37*
D12*
X97025000Y-57000000D03*
D11*
G36*
X108462004Y-56126204D02*
G01*
X108486273Y-56129804D01*
X108510071Y-56135765D01*
X108533171Y-56144030D01*
X108555349Y-56154520D01*
X108576393Y-56167133D01*
X108596098Y-56181747D01*
X108614277Y-56198223D01*
X108630753Y-56216402D01*
X108645367Y-56236107D01*
X108657980Y-56257151D01*
X108668470Y-56279329D01*
X108676735Y-56302429D01*
X108682696Y-56326227D01*
X108686296Y-56350496D01*
X108687500Y-56375000D01*
X108687500Y-57625000D01*
X108686296Y-57649504D01*
X108682696Y-57673773D01*
X108676735Y-57697571D01*
X108668470Y-57720671D01*
X108657980Y-57742849D01*
X108645367Y-57763893D01*
X108630753Y-57783598D01*
X108614277Y-57801777D01*
X108596098Y-57818253D01*
X108576393Y-57832867D01*
X108555349Y-57845480D01*
X108533171Y-57855970D01*
X108510071Y-57864235D01*
X108486273Y-57870196D01*
X108462004Y-57873796D01*
X108437500Y-57875000D01*
X107512500Y-57875000D01*
X107487996Y-57873796D01*
X107463727Y-57870196D01*
X107439929Y-57864235D01*
X107416829Y-57855970D01*
X107394651Y-57845480D01*
X107373607Y-57832867D01*
X107353902Y-57818253D01*
X107335723Y-57801777D01*
X107319247Y-57783598D01*
X107304633Y-57763893D01*
X107292020Y-57742849D01*
X107281530Y-57720671D01*
X107273265Y-57697571D01*
X107267304Y-57673773D01*
X107263704Y-57649504D01*
X107262500Y-57625000D01*
X107262500Y-56375000D01*
X107263704Y-56350496D01*
X107267304Y-56326227D01*
X107273265Y-56302429D01*
X107281530Y-56279329D01*
X107292020Y-56257151D01*
X107304633Y-56236107D01*
X107319247Y-56216402D01*
X107335723Y-56198223D01*
X107353902Y-56181747D01*
X107373607Y-56167133D01*
X107394651Y-56154520D01*
X107416829Y-56144030D01*
X107439929Y-56135765D01*
X107463727Y-56129804D01*
X107487996Y-56126204D01*
X107512500Y-56125000D01*
X108437500Y-56125000D01*
X108462004Y-56126204D01*
X108462004Y-56126204D01*
G37*
D12*
X107975000Y-57000000D03*
D11*
G36*
X105487004Y-56126204D02*
G01*
X105511273Y-56129804D01*
X105535071Y-56135765D01*
X105558171Y-56144030D01*
X105580349Y-56154520D01*
X105601393Y-56167133D01*
X105621098Y-56181747D01*
X105639277Y-56198223D01*
X105655753Y-56216402D01*
X105670367Y-56236107D01*
X105682980Y-56257151D01*
X105693470Y-56279329D01*
X105701735Y-56302429D01*
X105707696Y-56326227D01*
X105711296Y-56350496D01*
X105712500Y-56375000D01*
X105712500Y-57625000D01*
X105711296Y-57649504D01*
X105707696Y-57673773D01*
X105701735Y-57697571D01*
X105693470Y-57720671D01*
X105682980Y-57742849D01*
X105670367Y-57763893D01*
X105655753Y-57783598D01*
X105639277Y-57801777D01*
X105621098Y-57818253D01*
X105601393Y-57832867D01*
X105580349Y-57845480D01*
X105558171Y-57855970D01*
X105535071Y-57864235D01*
X105511273Y-57870196D01*
X105487004Y-57873796D01*
X105462500Y-57875000D01*
X104537500Y-57875000D01*
X104512996Y-57873796D01*
X104488727Y-57870196D01*
X104464929Y-57864235D01*
X104441829Y-57855970D01*
X104419651Y-57845480D01*
X104398607Y-57832867D01*
X104378902Y-57818253D01*
X104360723Y-57801777D01*
X104344247Y-57783598D01*
X104329633Y-57763893D01*
X104317020Y-57742849D01*
X104306530Y-57720671D01*
X104298265Y-57697571D01*
X104292304Y-57673773D01*
X104288704Y-57649504D01*
X104287500Y-57625000D01*
X104287500Y-56375000D01*
X104288704Y-56350496D01*
X104292304Y-56326227D01*
X104298265Y-56302429D01*
X104306530Y-56279329D01*
X104317020Y-56257151D01*
X104329633Y-56236107D01*
X104344247Y-56216402D01*
X104360723Y-56198223D01*
X104378902Y-56181747D01*
X104398607Y-56167133D01*
X104419651Y-56154520D01*
X104441829Y-56144030D01*
X104464929Y-56135765D01*
X104488727Y-56129804D01*
X104512996Y-56126204D01*
X104537500Y-56125000D01*
X105462500Y-56125000D01*
X105487004Y-56126204D01*
X105487004Y-56126204D01*
G37*
D12*
X105000000Y-57000000D03*
D11*
G36*
X100462004Y-42126204D02*
G01*
X100486273Y-42129804D01*
X100510071Y-42135765D01*
X100533171Y-42144030D01*
X100555349Y-42154520D01*
X100576393Y-42167133D01*
X100596098Y-42181747D01*
X100614277Y-42198223D01*
X100630753Y-42216402D01*
X100645367Y-42236107D01*
X100657980Y-42257151D01*
X100668470Y-42279329D01*
X100676735Y-42302429D01*
X100682696Y-42326227D01*
X100686296Y-42350496D01*
X100687500Y-42375000D01*
X100687500Y-43625000D01*
X100686296Y-43649504D01*
X100682696Y-43673773D01*
X100676735Y-43697571D01*
X100668470Y-43720671D01*
X100657980Y-43742849D01*
X100645367Y-43763893D01*
X100630753Y-43783598D01*
X100614277Y-43801777D01*
X100596098Y-43818253D01*
X100576393Y-43832867D01*
X100555349Y-43845480D01*
X100533171Y-43855970D01*
X100510071Y-43864235D01*
X100486273Y-43870196D01*
X100462004Y-43873796D01*
X100437500Y-43875000D01*
X99512500Y-43875000D01*
X99487996Y-43873796D01*
X99463727Y-43870196D01*
X99439929Y-43864235D01*
X99416829Y-43855970D01*
X99394651Y-43845480D01*
X99373607Y-43832867D01*
X99353902Y-43818253D01*
X99335723Y-43801777D01*
X99319247Y-43783598D01*
X99304633Y-43763893D01*
X99292020Y-43742849D01*
X99281530Y-43720671D01*
X99273265Y-43697571D01*
X99267304Y-43673773D01*
X99263704Y-43649504D01*
X99262500Y-43625000D01*
X99262500Y-42375000D01*
X99263704Y-42350496D01*
X99267304Y-42326227D01*
X99273265Y-42302429D01*
X99281530Y-42279329D01*
X99292020Y-42257151D01*
X99304633Y-42236107D01*
X99319247Y-42216402D01*
X99335723Y-42198223D01*
X99353902Y-42181747D01*
X99373607Y-42167133D01*
X99394651Y-42154520D01*
X99416829Y-42144030D01*
X99439929Y-42135765D01*
X99463727Y-42129804D01*
X99487996Y-42126204D01*
X99512500Y-42125000D01*
X100437500Y-42125000D01*
X100462004Y-42126204D01*
X100462004Y-42126204D01*
G37*
D12*
X99975000Y-43000000D03*
D11*
G36*
X97487004Y-42126204D02*
G01*
X97511273Y-42129804D01*
X97535071Y-42135765D01*
X97558171Y-42144030D01*
X97580349Y-42154520D01*
X97601393Y-42167133D01*
X97621098Y-42181747D01*
X97639277Y-42198223D01*
X97655753Y-42216402D01*
X97670367Y-42236107D01*
X97682980Y-42257151D01*
X97693470Y-42279329D01*
X97701735Y-42302429D01*
X97707696Y-42326227D01*
X97711296Y-42350496D01*
X97712500Y-42375000D01*
X97712500Y-43625000D01*
X97711296Y-43649504D01*
X97707696Y-43673773D01*
X97701735Y-43697571D01*
X97693470Y-43720671D01*
X97682980Y-43742849D01*
X97670367Y-43763893D01*
X97655753Y-43783598D01*
X97639277Y-43801777D01*
X97621098Y-43818253D01*
X97601393Y-43832867D01*
X97580349Y-43845480D01*
X97558171Y-43855970D01*
X97535071Y-43864235D01*
X97511273Y-43870196D01*
X97487004Y-43873796D01*
X97462500Y-43875000D01*
X96537500Y-43875000D01*
X96512996Y-43873796D01*
X96488727Y-43870196D01*
X96464929Y-43864235D01*
X96441829Y-43855970D01*
X96419651Y-43845480D01*
X96398607Y-43832867D01*
X96378902Y-43818253D01*
X96360723Y-43801777D01*
X96344247Y-43783598D01*
X96329633Y-43763893D01*
X96317020Y-43742849D01*
X96306530Y-43720671D01*
X96298265Y-43697571D01*
X96292304Y-43673773D01*
X96288704Y-43649504D01*
X96287500Y-43625000D01*
X96287500Y-42375000D01*
X96288704Y-42350496D01*
X96292304Y-42326227D01*
X96298265Y-42302429D01*
X96306530Y-42279329D01*
X96317020Y-42257151D01*
X96329633Y-42236107D01*
X96344247Y-42216402D01*
X96360723Y-42198223D01*
X96378902Y-42181747D01*
X96398607Y-42167133D01*
X96419651Y-42154520D01*
X96441829Y-42144030D01*
X96464929Y-42135765D01*
X96488727Y-42129804D01*
X96512996Y-42126204D01*
X96537500Y-42125000D01*
X97462500Y-42125000D01*
X97487004Y-42126204D01*
X97487004Y-42126204D01*
G37*
D12*
X97000000Y-43000000D03*
D11*
G36*
X106974504Y-42126204D02*
G01*
X106998773Y-42129804D01*
X107022571Y-42135765D01*
X107045671Y-42144030D01*
X107067849Y-42154520D01*
X107088893Y-42167133D01*
X107108598Y-42181747D01*
X107126777Y-42198223D01*
X107143253Y-42216402D01*
X107157867Y-42236107D01*
X107170480Y-42257151D01*
X107180970Y-42279329D01*
X107189235Y-42302429D01*
X107195196Y-42326227D01*
X107198796Y-42350496D01*
X107200000Y-42375000D01*
X107200000Y-43625000D01*
X107198796Y-43649504D01*
X107195196Y-43673773D01*
X107189235Y-43697571D01*
X107180970Y-43720671D01*
X107170480Y-43742849D01*
X107157867Y-43763893D01*
X107143253Y-43783598D01*
X107126777Y-43801777D01*
X107108598Y-43818253D01*
X107088893Y-43832867D01*
X107067849Y-43845480D01*
X107045671Y-43855970D01*
X107022571Y-43864235D01*
X106998773Y-43870196D01*
X106974504Y-43873796D01*
X106950000Y-43875000D01*
X106025000Y-43875000D01*
X106000496Y-43873796D01*
X105976227Y-43870196D01*
X105952429Y-43864235D01*
X105929329Y-43855970D01*
X105907151Y-43845480D01*
X105886107Y-43832867D01*
X105866402Y-43818253D01*
X105848223Y-43801777D01*
X105831747Y-43783598D01*
X105817133Y-43763893D01*
X105804520Y-43742849D01*
X105794030Y-43720671D01*
X105785765Y-43697571D01*
X105779804Y-43673773D01*
X105776204Y-43649504D01*
X105775000Y-43625000D01*
X105775000Y-42375000D01*
X105776204Y-42350496D01*
X105779804Y-42326227D01*
X105785765Y-42302429D01*
X105794030Y-42279329D01*
X105804520Y-42257151D01*
X105817133Y-42236107D01*
X105831747Y-42216402D01*
X105848223Y-42198223D01*
X105866402Y-42181747D01*
X105886107Y-42167133D01*
X105907151Y-42154520D01*
X105929329Y-42144030D01*
X105952429Y-42135765D01*
X105976227Y-42129804D01*
X106000496Y-42126204D01*
X106025000Y-42125000D01*
X106950000Y-42125000D01*
X106974504Y-42126204D01*
X106974504Y-42126204D01*
G37*
D12*
X106487500Y-43000000D03*
D11*
G36*
X103999504Y-42126204D02*
G01*
X104023773Y-42129804D01*
X104047571Y-42135765D01*
X104070671Y-42144030D01*
X104092849Y-42154520D01*
X104113893Y-42167133D01*
X104133598Y-42181747D01*
X104151777Y-42198223D01*
X104168253Y-42216402D01*
X104182867Y-42236107D01*
X104195480Y-42257151D01*
X104205970Y-42279329D01*
X104214235Y-42302429D01*
X104220196Y-42326227D01*
X104223796Y-42350496D01*
X104225000Y-42375000D01*
X104225000Y-43625000D01*
X104223796Y-43649504D01*
X104220196Y-43673773D01*
X104214235Y-43697571D01*
X104205970Y-43720671D01*
X104195480Y-43742849D01*
X104182867Y-43763893D01*
X104168253Y-43783598D01*
X104151777Y-43801777D01*
X104133598Y-43818253D01*
X104113893Y-43832867D01*
X104092849Y-43845480D01*
X104070671Y-43855970D01*
X104047571Y-43864235D01*
X104023773Y-43870196D01*
X103999504Y-43873796D01*
X103975000Y-43875000D01*
X103050000Y-43875000D01*
X103025496Y-43873796D01*
X103001227Y-43870196D01*
X102977429Y-43864235D01*
X102954329Y-43855970D01*
X102932151Y-43845480D01*
X102911107Y-43832867D01*
X102891402Y-43818253D01*
X102873223Y-43801777D01*
X102856747Y-43783598D01*
X102842133Y-43763893D01*
X102829520Y-43742849D01*
X102819030Y-43720671D01*
X102810765Y-43697571D01*
X102804804Y-43673773D01*
X102801204Y-43649504D01*
X102800000Y-43625000D01*
X102800000Y-42375000D01*
X102801204Y-42350496D01*
X102804804Y-42326227D01*
X102810765Y-42302429D01*
X102819030Y-42279329D01*
X102829520Y-42257151D01*
X102842133Y-42236107D01*
X102856747Y-42216402D01*
X102873223Y-42198223D01*
X102891402Y-42181747D01*
X102911107Y-42167133D01*
X102932151Y-42154520D01*
X102954329Y-42144030D01*
X102977429Y-42135765D01*
X103001227Y-42129804D01*
X103025496Y-42126204D01*
X103050000Y-42125000D01*
X103975000Y-42125000D01*
X103999504Y-42126204D01*
X103999504Y-42126204D01*
G37*
D12*
X103512500Y-43000000D03*
M02*
