G04 #@! TF.GenerationSoftware,KiCad,Pcbnew,5.1.2-f72e74a~84~ubuntu18.04.1*
G04 #@! TF.CreationDate,2019-06-11T17:55:48+02:00*
G04 #@! TF.ProjectId,ESP-Multiio,4553502d-4d75-46c7-9469-696f2e6b6963,rev?*
G04 #@! TF.SameCoordinates,Original*
G04 #@! TF.FileFunction,Soldermask,Top*
G04 #@! TF.FilePolarity,Negative*
%FSLAX46Y46*%
G04 Gerber Fmt 4.6, Leading zero omitted, Abs format (unit mm)*
G04 Created by KiCad (PCBNEW 5.1.2-f72e74a~84~ubuntu18.04.1) date 2019-06-11 17:55:48*
%MOMM*%
%LPD*%
G04 APERTURE LIST*
%ADD10C,0.050000*%
%ADD11C,0.100000*%
G04 APERTURE END LIST*
D10*
X152000000Y-95000000D02*
X77000000Y-95000000D01*
X152000000Y-27000000D02*
X152000000Y-95000000D01*
X77000000Y-27000000D02*
X152000000Y-27000000D01*
X77000000Y-27000000D02*
X77000000Y-95000000D01*
D11*
G36*
X103810442Y-91105518D02*
G01*
X103876627Y-91112037D01*
X104046466Y-91163557D01*
X104202991Y-91247222D01*
X104238729Y-91276552D01*
X104340186Y-91359814D01*
X104423448Y-91461271D01*
X104452778Y-91497009D01*
X104536443Y-91653534D01*
X104587963Y-91823373D01*
X104605359Y-92000000D01*
X104587963Y-92176627D01*
X104536443Y-92346466D01*
X104452778Y-92502991D01*
X104423448Y-92538729D01*
X104340186Y-92640186D01*
X104238729Y-92723448D01*
X104202991Y-92752778D01*
X104046466Y-92836443D01*
X103876627Y-92887963D01*
X103810443Y-92894481D01*
X103744260Y-92901000D01*
X103655740Y-92901000D01*
X103589557Y-92894481D01*
X103523373Y-92887963D01*
X103353534Y-92836443D01*
X103197009Y-92752778D01*
X103161271Y-92723448D01*
X103059814Y-92640186D01*
X102976552Y-92538729D01*
X102947222Y-92502991D01*
X102863557Y-92346466D01*
X102812037Y-92176627D01*
X102794641Y-92000000D01*
X102812037Y-91823373D01*
X102863557Y-91653534D01*
X102947222Y-91497009D01*
X102976552Y-91461271D01*
X103059814Y-91359814D01*
X103161271Y-91276552D01*
X103197009Y-91247222D01*
X103353534Y-91163557D01*
X103523373Y-91112037D01*
X103589558Y-91105518D01*
X103655740Y-91099000D01*
X103744260Y-91099000D01*
X103810442Y-91105518D01*
X103810442Y-91105518D01*
G37*
G36*
X91901000Y-92901000D02*
G01*
X90099000Y-92901000D01*
X90099000Y-91099000D01*
X91901000Y-91099000D01*
X91901000Y-92901000D01*
X91901000Y-92901000D01*
G37*
G36*
X93650442Y-91105518D02*
G01*
X93716627Y-91112037D01*
X93886466Y-91163557D01*
X94042991Y-91247222D01*
X94078729Y-91276552D01*
X94180186Y-91359814D01*
X94263448Y-91461271D01*
X94292778Y-91497009D01*
X94376443Y-91653534D01*
X94427963Y-91823373D01*
X94445359Y-92000000D01*
X94427963Y-92176627D01*
X94376443Y-92346466D01*
X94292778Y-92502991D01*
X94263448Y-92538729D01*
X94180186Y-92640186D01*
X94078729Y-92723448D01*
X94042991Y-92752778D01*
X93886466Y-92836443D01*
X93716627Y-92887963D01*
X93650443Y-92894481D01*
X93584260Y-92901000D01*
X93495740Y-92901000D01*
X93429557Y-92894481D01*
X93363373Y-92887963D01*
X93193534Y-92836443D01*
X93037009Y-92752778D01*
X93001271Y-92723448D01*
X92899814Y-92640186D01*
X92816552Y-92538729D01*
X92787222Y-92502991D01*
X92703557Y-92346466D01*
X92652037Y-92176627D01*
X92634641Y-92000000D01*
X92652037Y-91823373D01*
X92703557Y-91653534D01*
X92787222Y-91497009D01*
X92816552Y-91461271D01*
X92899814Y-91359814D01*
X93001271Y-91276552D01*
X93037009Y-91247222D01*
X93193534Y-91163557D01*
X93363373Y-91112037D01*
X93429558Y-91105518D01*
X93495740Y-91099000D01*
X93584260Y-91099000D01*
X93650442Y-91105518D01*
X93650442Y-91105518D01*
G37*
G36*
X96190442Y-91105518D02*
G01*
X96256627Y-91112037D01*
X96426466Y-91163557D01*
X96582991Y-91247222D01*
X96618729Y-91276552D01*
X96720186Y-91359814D01*
X96803448Y-91461271D01*
X96832778Y-91497009D01*
X96916443Y-91653534D01*
X96967963Y-91823373D01*
X96985359Y-92000000D01*
X96967963Y-92176627D01*
X96916443Y-92346466D01*
X96832778Y-92502991D01*
X96803448Y-92538729D01*
X96720186Y-92640186D01*
X96618729Y-92723448D01*
X96582991Y-92752778D01*
X96426466Y-92836443D01*
X96256627Y-92887963D01*
X96190443Y-92894481D01*
X96124260Y-92901000D01*
X96035740Y-92901000D01*
X95969557Y-92894481D01*
X95903373Y-92887963D01*
X95733534Y-92836443D01*
X95577009Y-92752778D01*
X95541271Y-92723448D01*
X95439814Y-92640186D01*
X95356552Y-92538729D01*
X95327222Y-92502991D01*
X95243557Y-92346466D01*
X95192037Y-92176627D01*
X95174641Y-92000000D01*
X95192037Y-91823373D01*
X95243557Y-91653534D01*
X95327222Y-91497009D01*
X95356552Y-91461271D01*
X95439814Y-91359814D01*
X95541271Y-91276552D01*
X95577009Y-91247222D01*
X95733534Y-91163557D01*
X95903373Y-91112037D01*
X95969558Y-91105518D01*
X96035740Y-91099000D01*
X96124260Y-91099000D01*
X96190442Y-91105518D01*
X96190442Y-91105518D01*
G37*
G36*
X98730442Y-91105518D02*
G01*
X98796627Y-91112037D01*
X98966466Y-91163557D01*
X99122991Y-91247222D01*
X99158729Y-91276552D01*
X99260186Y-91359814D01*
X99343448Y-91461271D01*
X99372778Y-91497009D01*
X99456443Y-91653534D01*
X99507963Y-91823373D01*
X99525359Y-92000000D01*
X99507963Y-92176627D01*
X99456443Y-92346466D01*
X99372778Y-92502991D01*
X99343448Y-92538729D01*
X99260186Y-92640186D01*
X99158729Y-92723448D01*
X99122991Y-92752778D01*
X98966466Y-92836443D01*
X98796627Y-92887963D01*
X98730443Y-92894481D01*
X98664260Y-92901000D01*
X98575740Y-92901000D01*
X98509557Y-92894481D01*
X98443373Y-92887963D01*
X98273534Y-92836443D01*
X98117009Y-92752778D01*
X98081271Y-92723448D01*
X97979814Y-92640186D01*
X97896552Y-92538729D01*
X97867222Y-92502991D01*
X97783557Y-92346466D01*
X97732037Y-92176627D01*
X97714641Y-92000000D01*
X97732037Y-91823373D01*
X97783557Y-91653534D01*
X97867222Y-91497009D01*
X97896552Y-91461271D01*
X97979814Y-91359814D01*
X98081271Y-91276552D01*
X98117009Y-91247222D01*
X98273534Y-91163557D01*
X98443373Y-91112037D01*
X98509558Y-91105518D01*
X98575740Y-91099000D01*
X98664260Y-91099000D01*
X98730442Y-91105518D01*
X98730442Y-91105518D01*
G37*
G36*
X101270442Y-91105518D02*
G01*
X101336627Y-91112037D01*
X101506466Y-91163557D01*
X101662991Y-91247222D01*
X101698729Y-91276552D01*
X101800186Y-91359814D01*
X101883448Y-91461271D01*
X101912778Y-91497009D01*
X101996443Y-91653534D01*
X102047963Y-91823373D01*
X102065359Y-92000000D01*
X102047963Y-92176627D01*
X101996443Y-92346466D01*
X101912778Y-92502991D01*
X101883448Y-92538729D01*
X101800186Y-92640186D01*
X101698729Y-92723448D01*
X101662991Y-92752778D01*
X101506466Y-92836443D01*
X101336627Y-92887963D01*
X101270443Y-92894481D01*
X101204260Y-92901000D01*
X101115740Y-92901000D01*
X101049557Y-92894481D01*
X100983373Y-92887963D01*
X100813534Y-92836443D01*
X100657009Y-92752778D01*
X100621271Y-92723448D01*
X100519814Y-92640186D01*
X100436552Y-92538729D01*
X100407222Y-92502991D01*
X100323557Y-92346466D01*
X100272037Y-92176627D01*
X100254641Y-92000000D01*
X100272037Y-91823373D01*
X100323557Y-91653534D01*
X100407222Y-91497009D01*
X100436552Y-91461271D01*
X100519814Y-91359814D01*
X100621271Y-91276552D01*
X100657009Y-91247222D01*
X100813534Y-91163557D01*
X100983373Y-91112037D01*
X101049558Y-91105518D01*
X101115740Y-91099000D01*
X101204260Y-91099000D01*
X101270442Y-91105518D01*
X101270442Y-91105518D01*
G37*
G36*
X111430442Y-91105518D02*
G01*
X111496627Y-91112037D01*
X111666466Y-91163557D01*
X111822991Y-91247222D01*
X111858729Y-91276552D01*
X111960186Y-91359814D01*
X112043448Y-91461271D01*
X112072778Y-91497009D01*
X112156443Y-91653534D01*
X112207963Y-91823373D01*
X112225359Y-92000000D01*
X112207963Y-92176627D01*
X112156443Y-92346466D01*
X112072778Y-92502991D01*
X112043448Y-92538729D01*
X111960186Y-92640186D01*
X111858729Y-92723448D01*
X111822991Y-92752778D01*
X111666466Y-92836443D01*
X111496627Y-92887963D01*
X111430443Y-92894481D01*
X111364260Y-92901000D01*
X111275740Y-92901000D01*
X111209557Y-92894481D01*
X111143373Y-92887963D01*
X110973534Y-92836443D01*
X110817009Y-92752778D01*
X110781271Y-92723448D01*
X110679814Y-92640186D01*
X110596552Y-92538729D01*
X110567222Y-92502991D01*
X110483557Y-92346466D01*
X110432037Y-92176627D01*
X110414641Y-92000000D01*
X110432037Y-91823373D01*
X110483557Y-91653534D01*
X110567222Y-91497009D01*
X110596552Y-91461271D01*
X110679814Y-91359814D01*
X110781271Y-91276552D01*
X110817009Y-91247222D01*
X110973534Y-91163557D01*
X111143373Y-91112037D01*
X111209558Y-91105518D01*
X111275740Y-91099000D01*
X111364260Y-91099000D01*
X111430442Y-91105518D01*
X111430442Y-91105518D01*
G37*
G36*
X113970442Y-91105518D02*
G01*
X114036627Y-91112037D01*
X114206466Y-91163557D01*
X114362991Y-91247222D01*
X114398729Y-91276552D01*
X114500186Y-91359814D01*
X114583448Y-91461271D01*
X114612778Y-91497009D01*
X114696443Y-91653534D01*
X114747963Y-91823373D01*
X114765359Y-92000000D01*
X114747963Y-92176627D01*
X114696443Y-92346466D01*
X114612778Y-92502991D01*
X114583448Y-92538729D01*
X114500186Y-92640186D01*
X114398729Y-92723448D01*
X114362991Y-92752778D01*
X114206466Y-92836443D01*
X114036627Y-92887963D01*
X113970443Y-92894481D01*
X113904260Y-92901000D01*
X113815740Y-92901000D01*
X113749557Y-92894481D01*
X113683373Y-92887963D01*
X113513534Y-92836443D01*
X113357009Y-92752778D01*
X113321271Y-92723448D01*
X113219814Y-92640186D01*
X113136552Y-92538729D01*
X113107222Y-92502991D01*
X113023557Y-92346466D01*
X112972037Y-92176627D01*
X112954641Y-92000000D01*
X112972037Y-91823373D01*
X113023557Y-91653534D01*
X113107222Y-91497009D01*
X113136552Y-91461271D01*
X113219814Y-91359814D01*
X113321271Y-91276552D01*
X113357009Y-91247222D01*
X113513534Y-91163557D01*
X113683373Y-91112037D01*
X113749558Y-91105518D01*
X113815740Y-91099000D01*
X113904260Y-91099000D01*
X113970442Y-91105518D01*
X113970442Y-91105518D01*
G37*
G36*
X106350442Y-91105518D02*
G01*
X106416627Y-91112037D01*
X106586466Y-91163557D01*
X106742991Y-91247222D01*
X106778729Y-91276552D01*
X106880186Y-91359814D01*
X106963448Y-91461271D01*
X106992778Y-91497009D01*
X107076443Y-91653534D01*
X107127963Y-91823373D01*
X107145359Y-92000000D01*
X107127963Y-92176627D01*
X107076443Y-92346466D01*
X106992778Y-92502991D01*
X106963448Y-92538729D01*
X106880186Y-92640186D01*
X106778729Y-92723448D01*
X106742991Y-92752778D01*
X106586466Y-92836443D01*
X106416627Y-92887963D01*
X106350443Y-92894481D01*
X106284260Y-92901000D01*
X106195740Y-92901000D01*
X106129557Y-92894481D01*
X106063373Y-92887963D01*
X105893534Y-92836443D01*
X105737009Y-92752778D01*
X105701271Y-92723448D01*
X105599814Y-92640186D01*
X105516552Y-92538729D01*
X105487222Y-92502991D01*
X105403557Y-92346466D01*
X105352037Y-92176627D01*
X105334641Y-92000000D01*
X105352037Y-91823373D01*
X105403557Y-91653534D01*
X105487222Y-91497009D01*
X105516552Y-91461271D01*
X105599814Y-91359814D01*
X105701271Y-91276552D01*
X105737009Y-91247222D01*
X105893534Y-91163557D01*
X106063373Y-91112037D01*
X106129558Y-91105518D01*
X106195740Y-91099000D01*
X106284260Y-91099000D01*
X106350442Y-91105518D01*
X106350442Y-91105518D01*
G37*
G36*
X108890442Y-91105518D02*
G01*
X108956627Y-91112037D01*
X109126466Y-91163557D01*
X109282991Y-91247222D01*
X109318729Y-91276552D01*
X109420186Y-91359814D01*
X109503448Y-91461271D01*
X109532778Y-91497009D01*
X109616443Y-91653534D01*
X109667963Y-91823373D01*
X109685359Y-92000000D01*
X109667963Y-92176627D01*
X109616443Y-92346466D01*
X109532778Y-92502991D01*
X109503448Y-92538729D01*
X109420186Y-92640186D01*
X109318729Y-92723448D01*
X109282991Y-92752778D01*
X109126466Y-92836443D01*
X108956627Y-92887963D01*
X108890443Y-92894481D01*
X108824260Y-92901000D01*
X108735740Y-92901000D01*
X108669557Y-92894481D01*
X108603373Y-92887963D01*
X108433534Y-92836443D01*
X108277009Y-92752778D01*
X108241271Y-92723448D01*
X108139814Y-92640186D01*
X108056552Y-92538729D01*
X108027222Y-92502991D01*
X107943557Y-92346466D01*
X107892037Y-92176627D01*
X107874641Y-92000000D01*
X107892037Y-91823373D01*
X107943557Y-91653534D01*
X108027222Y-91497009D01*
X108056552Y-91461271D01*
X108139814Y-91359814D01*
X108241271Y-91276552D01*
X108277009Y-91247222D01*
X108433534Y-91163557D01*
X108603373Y-91112037D01*
X108669558Y-91105518D01*
X108735740Y-91099000D01*
X108824260Y-91099000D01*
X108890442Y-91105518D01*
X108890442Y-91105518D01*
G37*
G36*
X147375256Y-88391298D02*
G01*
X147481579Y-88412447D01*
X147782042Y-88536903D01*
X148052451Y-88717585D01*
X148282415Y-88947549D01*
X148463097Y-89217958D01*
X148587553Y-89518421D01*
X148651000Y-89837391D01*
X148651000Y-90162609D01*
X148587553Y-90481579D01*
X148463097Y-90782042D01*
X148282415Y-91052451D01*
X148052451Y-91282415D01*
X147782042Y-91463097D01*
X147481579Y-91587553D01*
X147375256Y-91608702D01*
X147162611Y-91651000D01*
X146837389Y-91651000D01*
X146624744Y-91608702D01*
X146518421Y-91587553D01*
X146217958Y-91463097D01*
X145947549Y-91282415D01*
X145717585Y-91052451D01*
X145536903Y-90782042D01*
X145412447Y-90481579D01*
X145349000Y-90162609D01*
X145349000Y-89837391D01*
X145412447Y-89518421D01*
X145536903Y-89217958D01*
X145717585Y-88947549D01*
X145947549Y-88717585D01*
X146217958Y-88536903D01*
X146518421Y-88412447D01*
X146624744Y-88391298D01*
X146837389Y-88349000D01*
X147162611Y-88349000D01*
X147375256Y-88391298D01*
X147375256Y-88391298D01*
G37*
G36*
X84375256Y-88391298D02*
G01*
X84481579Y-88412447D01*
X84782042Y-88536903D01*
X85052451Y-88717585D01*
X85282415Y-88947549D01*
X85463097Y-89217958D01*
X85587553Y-89518421D01*
X85651000Y-89837391D01*
X85651000Y-90162609D01*
X85587553Y-90481579D01*
X85463097Y-90782042D01*
X85282415Y-91052451D01*
X85052451Y-91282415D01*
X84782042Y-91463097D01*
X84481579Y-91587553D01*
X84375256Y-91608702D01*
X84162611Y-91651000D01*
X83837389Y-91651000D01*
X83624744Y-91608702D01*
X83518421Y-91587553D01*
X83217958Y-91463097D01*
X82947549Y-91282415D01*
X82717585Y-91052451D01*
X82536903Y-90782042D01*
X82412447Y-90481579D01*
X82349000Y-90162609D01*
X82349000Y-89837391D01*
X82412447Y-89518421D01*
X82536903Y-89217958D01*
X82717585Y-88947549D01*
X82947549Y-88717585D01*
X83217958Y-88536903D01*
X83518421Y-88412447D01*
X83624744Y-88391298D01*
X83837389Y-88349000D01*
X84162611Y-88349000D01*
X84375256Y-88391298D01*
X84375256Y-88391298D01*
G37*
G36*
X144610443Y-84425519D02*
G01*
X144676627Y-84432037D01*
X144846466Y-84483557D01*
X145002991Y-84567222D01*
X145038729Y-84596552D01*
X145140186Y-84679814D01*
X145223448Y-84781271D01*
X145252778Y-84817009D01*
X145336443Y-84973534D01*
X145387963Y-85143373D01*
X145405359Y-85320000D01*
X145387963Y-85496627D01*
X145336443Y-85666466D01*
X145252778Y-85822991D01*
X145229791Y-85851000D01*
X145140186Y-85960186D01*
X145038729Y-86043448D01*
X145002991Y-86072778D01*
X144846466Y-86156443D01*
X144676627Y-86207963D01*
X144610442Y-86214482D01*
X144544260Y-86221000D01*
X144455740Y-86221000D01*
X144389558Y-86214482D01*
X144323373Y-86207963D01*
X144153534Y-86156443D01*
X143997009Y-86072778D01*
X143961271Y-86043448D01*
X143859814Y-85960186D01*
X143770209Y-85851000D01*
X143747222Y-85822991D01*
X143663557Y-85666466D01*
X143612037Y-85496627D01*
X143594641Y-85320000D01*
X143612037Y-85143373D01*
X143663557Y-84973534D01*
X143747222Y-84817009D01*
X143776552Y-84781271D01*
X143859814Y-84679814D01*
X143961271Y-84596552D01*
X143997009Y-84567222D01*
X144153534Y-84483557D01*
X144323373Y-84432037D01*
X144389557Y-84425519D01*
X144455740Y-84419000D01*
X144544260Y-84419000D01*
X144610443Y-84425519D01*
X144610443Y-84425519D01*
G37*
G36*
X118451000Y-86051000D02*
G01*
X116349000Y-86051000D01*
X116349000Y-83949000D01*
X118451000Y-83949000D01*
X118451000Y-86051000D01*
X118451000Y-86051000D01*
G37*
G36*
X140626823Y-84161313D02*
G01*
X140787242Y-84209976D01*
X140919906Y-84280886D01*
X140935078Y-84288996D01*
X141064659Y-84395341D01*
X141171004Y-84524922D01*
X141171005Y-84524924D01*
X141250024Y-84672758D01*
X141250025Y-84672761D01*
X141252165Y-84679815D01*
X141298687Y-84833177D01*
X141315117Y-85000000D01*
X141298687Y-85166823D01*
X141250024Y-85327242D01*
X141179114Y-85459906D01*
X141171004Y-85475078D01*
X141064659Y-85604659D01*
X140935078Y-85711004D01*
X140935076Y-85711005D01*
X140787242Y-85790024D01*
X140626823Y-85838687D01*
X140501804Y-85851000D01*
X140018196Y-85851000D01*
X139893177Y-85838687D01*
X139732758Y-85790024D01*
X139584924Y-85711005D01*
X139584922Y-85711004D01*
X139455341Y-85604659D01*
X139348996Y-85475078D01*
X139340886Y-85459906D01*
X139269976Y-85327242D01*
X139221313Y-85166823D01*
X139204883Y-85000000D01*
X139221313Y-84833177D01*
X139267835Y-84679815D01*
X139269975Y-84672761D01*
X139269976Y-84672758D01*
X139348995Y-84524924D01*
X139348996Y-84524922D01*
X139455341Y-84395341D01*
X139584922Y-84288996D01*
X139600094Y-84280886D01*
X139732758Y-84209976D01*
X139893177Y-84161313D01*
X140018196Y-84149000D01*
X140501804Y-84149000D01*
X140626823Y-84161313D01*
X140626823Y-84161313D01*
G37*
G36*
X91102065Y-79478677D02*
G01*
X91388085Y-79565440D01*
X91488684Y-79595956D01*
X91844983Y-79786402D01*
X91844986Y-79786404D01*
X91844987Y-79786405D01*
X92157293Y-80042707D01*
X92413595Y-80355013D01*
X92413598Y-80355017D01*
X92604044Y-80711316D01*
X92604045Y-80711319D01*
X92721323Y-81097934D01*
X92737414Y-81261309D01*
X92751000Y-81399249D01*
X92751000Y-82600750D01*
X92748432Y-82626823D01*
X92721323Y-82902065D01*
X92639741Y-83171005D01*
X92604044Y-83288684D01*
X92413598Y-83644983D01*
X92413596Y-83644986D01*
X92413595Y-83644987D01*
X92157293Y-83957293D01*
X91844987Y-84213595D01*
X91844983Y-84213598D01*
X91488684Y-84404044D01*
X91488681Y-84404045D01*
X91102066Y-84521323D01*
X90700000Y-84560923D01*
X90297935Y-84521323D01*
X89911320Y-84404045D01*
X89911317Y-84404044D01*
X89555018Y-84213598D01*
X89555014Y-84213595D01*
X89242708Y-83957293D01*
X88986406Y-83644987D01*
X88986405Y-83644986D01*
X88986403Y-83644983D01*
X88795956Y-83288684D01*
X88784229Y-83250024D01*
X88678677Y-82902066D01*
X88649539Y-82606225D01*
X88649000Y-82600751D01*
X88649000Y-81399250D01*
X88662586Y-81261309D01*
X88678677Y-81097935D01*
X88795955Y-80711320D01*
X88795956Y-80711316D01*
X88986402Y-80355017D01*
X88986405Y-80355013D01*
X89242707Y-80042707D01*
X89555013Y-79786405D01*
X89555014Y-79786404D01*
X89555017Y-79786402D01*
X89911316Y-79595956D01*
X89911319Y-79595955D01*
X90297934Y-79478677D01*
X90700000Y-79439077D01*
X91102065Y-79478677D01*
X91102065Y-79478677D01*
G37*
G36*
X81702065Y-79478677D02*
G01*
X81988085Y-79565440D01*
X82088684Y-79595956D01*
X82444983Y-79786402D01*
X82444986Y-79786404D01*
X82444987Y-79786405D01*
X82757293Y-80042707D01*
X83013595Y-80355013D01*
X83013598Y-80355017D01*
X83204044Y-80711316D01*
X83204045Y-80711319D01*
X83321323Y-81097934D01*
X83337414Y-81261309D01*
X83351000Y-81399249D01*
X83351000Y-82600750D01*
X83348432Y-82626823D01*
X83321323Y-82902065D01*
X83239741Y-83171005D01*
X83204044Y-83288684D01*
X83013598Y-83644983D01*
X83013596Y-83644986D01*
X83013595Y-83644987D01*
X82757293Y-83957293D01*
X82444987Y-84213595D01*
X82444983Y-84213598D01*
X82088684Y-84404044D01*
X82088681Y-84404045D01*
X81702066Y-84521323D01*
X81300000Y-84560923D01*
X80897935Y-84521323D01*
X80511320Y-84404045D01*
X80511317Y-84404044D01*
X80155018Y-84213598D01*
X80155014Y-84213595D01*
X79842708Y-83957293D01*
X79586406Y-83644987D01*
X79586405Y-83644986D01*
X79586403Y-83644983D01*
X79395956Y-83288684D01*
X79384229Y-83250024D01*
X79278677Y-82902066D01*
X79249539Y-82606225D01*
X79249000Y-82600751D01*
X79249000Y-81399250D01*
X79262586Y-81261309D01*
X79278677Y-81097935D01*
X79395955Y-80711320D01*
X79395956Y-80711316D01*
X79586402Y-80355017D01*
X79586405Y-80355013D01*
X79842707Y-80042707D01*
X80155013Y-79786405D01*
X80155014Y-79786404D01*
X80155017Y-79786402D01*
X80511316Y-79595956D01*
X80511319Y-79595955D01*
X80897934Y-79478677D01*
X81300000Y-79439077D01*
X81702065Y-79478677D01*
X81702065Y-79478677D01*
G37*
G36*
X86402065Y-79478677D02*
G01*
X86688085Y-79565440D01*
X86788684Y-79595956D01*
X87144983Y-79786402D01*
X87144986Y-79786404D01*
X87144987Y-79786405D01*
X87457293Y-80042707D01*
X87713595Y-80355013D01*
X87713598Y-80355017D01*
X87904044Y-80711316D01*
X87904045Y-80711319D01*
X88021323Y-81097934D01*
X88037414Y-81261309D01*
X88051000Y-81399249D01*
X88051000Y-82600750D01*
X88048432Y-82626823D01*
X88021323Y-82902065D01*
X87939741Y-83171005D01*
X87904044Y-83288684D01*
X87713598Y-83644983D01*
X87713596Y-83644986D01*
X87713595Y-83644987D01*
X87457293Y-83957293D01*
X87144987Y-84213595D01*
X87144983Y-84213598D01*
X86788684Y-84404044D01*
X86788681Y-84404045D01*
X86402066Y-84521323D01*
X86000000Y-84560923D01*
X85597935Y-84521323D01*
X85211320Y-84404045D01*
X85211317Y-84404044D01*
X84855018Y-84213598D01*
X84855014Y-84213595D01*
X84542708Y-83957293D01*
X84286406Y-83644987D01*
X84286405Y-83644986D01*
X84286403Y-83644983D01*
X84095956Y-83288684D01*
X84084229Y-83250024D01*
X83978677Y-82902066D01*
X83949539Y-82606225D01*
X83949000Y-82600751D01*
X83949000Y-81399250D01*
X83962586Y-81261309D01*
X83978677Y-81097935D01*
X84095955Y-80711320D01*
X84095956Y-80711316D01*
X84286402Y-80355017D01*
X84286405Y-80355013D01*
X84542707Y-80042707D01*
X84855013Y-79786405D01*
X84855014Y-79786404D01*
X84855017Y-79786402D01*
X85211316Y-79595956D01*
X85211319Y-79595955D01*
X85597934Y-79478677D01*
X86000000Y-79439077D01*
X86402065Y-79478677D01*
X86402065Y-79478677D01*
G37*
G36*
X144610442Y-81885518D02*
G01*
X144676627Y-81892037D01*
X144846466Y-81943557D01*
X145002991Y-82027222D01*
X145038729Y-82056552D01*
X145140186Y-82139814D01*
X145223448Y-82241271D01*
X145252778Y-82277009D01*
X145336443Y-82433534D01*
X145387963Y-82603373D01*
X145405359Y-82780000D01*
X145387963Y-82956627D01*
X145336443Y-83126466D01*
X145252778Y-83282991D01*
X145229791Y-83311000D01*
X145140186Y-83420186D01*
X145038729Y-83503448D01*
X145002991Y-83532778D01*
X144846466Y-83616443D01*
X144676627Y-83667963D01*
X144610442Y-83674482D01*
X144544260Y-83681000D01*
X144455740Y-83681000D01*
X144389558Y-83674482D01*
X144323373Y-83667963D01*
X144153534Y-83616443D01*
X143997009Y-83532778D01*
X143961271Y-83503448D01*
X143859814Y-83420186D01*
X143770209Y-83311000D01*
X143747222Y-83282991D01*
X143663557Y-83126466D01*
X143612037Y-82956627D01*
X143594641Y-82780000D01*
X143612037Y-82603373D01*
X143663557Y-82433534D01*
X143747222Y-82277009D01*
X143776552Y-82241271D01*
X143859814Y-82139814D01*
X143961271Y-82056552D01*
X143997009Y-82027222D01*
X144153534Y-81943557D01*
X144323373Y-81892037D01*
X144389558Y-81885518D01*
X144455740Y-81879000D01*
X144544260Y-81879000D01*
X144610442Y-81885518D01*
X144610442Y-81885518D01*
G37*
G36*
X140626823Y-81621313D02*
G01*
X140787242Y-81669976D01*
X140885702Y-81722604D01*
X140935078Y-81748996D01*
X141064659Y-81855341D01*
X141171004Y-81984922D01*
X141171005Y-81984924D01*
X141250024Y-82132758D01*
X141250025Y-82132761D01*
X141252165Y-82139815D01*
X141298687Y-82293177D01*
X141315117Y-82460000D01*
X141298687Y-82626823D01*
X141250024Y-82787242D01*
X141188651Y-82902063D01*
X141171004Y-82935078D01*
X141064659Y-83064659D01*
X140935078Y-83171004D01*
X140935076Y-83171005D01*
X140787242Y-83250024D01*
X140626823Y-83298687D01*
X140501804Y-83311000D01*
X140018196Y-83311000D01*
X139893177Y-83298687D01*
X139732758Y-83250024D01*
X139584924Y-83171005D01*
X139584922Y-83171004D01*
X139455341Y-83064659D01*
X139348996Y-82935078D01*
X139331349Y-82902063D01*
X139269976Y-82787242D01*
X139221313Y-82626823D01*
X139204883Y-82460000D01*
X139221313Y-82293177D01*
X139267835Y-82139815D01*
X139269975Y-82132761D01*
X139269976Y-82132758D01*
X139348995Y-81984924D01*
X139348996Y-81984922D01*
X139455341Y-81855341D01*
X139584922Y-81748996D01*
X139634298Y-81722604D01*
X139732758Y-81669976D01*
X139893177Y-81621313D01*
X140018196Y-81609000D01*
X140501804Y-81609000D01*
X140626823Y-81621313D01*
X140626823Y-81621313D01*
G37*
G36*
X117766823Y-81621313D02*
G01*
X117927242Y-81669976D01*
X118025702Y-81722604D01*
X118075078Y-81748996D01*
X118204659Y-81855341D01*
X118311004Y-81984922D01*
X118311005Y-81984924D01*
X118390024Y-82132758D01*
X118390025Y-82132761D01*
X118392165Y-82139815D01*
X118438687Y-82293177D01*
X118455117Y-82460000D01*
X118438687Y-82626823D01*
X118390024Y-82787242D01*
X118328651Y-82902063D01*
X118311004Y-82935078D01*
X118204659Y-83064659D01*
X118075078Y-83171004D01*
X118075076Y-83171005D01*
X117927242Y-83250024D01*
X117766823Y-83298687D01*
X117641804Y-83311000D01*
X117158196Y-83311000D01*
X117033177Y-83298687D01*
X116872758Y-83250024D01*
X116724924Y-83171005D01*
X116724922Y-83171004D01*
X116595341Y-83064659D01*
X116488996Y-82935078D01*
X116471349Y-82902063D01*
X116409976Y-82787242D01*
X116361313Y-82626823D01*
X116344883Y-82460000D01*
X116361313Y-82293177D01*
X116407835Y-82139815D01*
X116409975Y-82132761D01*
X116409976Y-82132758D01*
X116488995Y-81984924D01*
X116488996Y-81984922D01*
X116595341Y-81855341D01*
X116724922Y-81748996D01*
X116774298Y-81722604D01*
X116872758Y-81669976D01*
X117033177Y-81621313D01*
X117158196Y-81609000D01*
X117641804Y-81609000D01*
X117766823Y-81621313D01*
X117766823Y-81621313D01*
G37*
G36*
X97547395Y-81085546D02*
G01*
X97720466Y-81157234D01*
X97720467Y-81157235D01*
X97876227Y-81261310D01*
X98008690Y-81393773D01*
X98012350Y-81399251D01*
X98112766Y-81549534D01*
X98184454Y-81722605D01*
X98221000Y-81906333D01*
X98221000Y-82093667D01*
X98184454Y-82277395D01*
X98112766Y-82450466D01*
X98061081Y-82527818D01*
X98008690Y-82606227D01*
X97876227Y-82738690D01*
X97814402Y-82780000D01*
X97720466Y-82842766D01*
X97547395Y-82914454D01*
X97363667Y-82951000D01*
X97176333Y-82951000D01*
X96992605Y-82914454D01*
X96819534Y-82842766D01*
X96725598Y-82780000D01*
X96663773Y-82738690D01*
X96531310Y-82606227D01*
X96478919Y-82527818D01*
X96427234Y-82450466D01*
X96355546Y-82277395D01*
X96319000Y-82093667D01*
X96319000Y-81906333D01*
X96355546Y-81722605D01*
X96427234Y-81549534D01*
X96527650Y-81399251D01*
X96531310Y-81393773D01*
X96663773Y-81261310D01*
X96819533Y-81157235D01*
X96819534Y-81157234D01*
X96992605Y-81085546D01*
X97176333Y-81049000D01*
X97363667Y-81049000D01*
X97547395Y-81085546D01*
X97547395Y-81085546D01*
G37*
G36*
X102681000Y-82951000D02*
G01*
X100779000Y-82951000D01*
X100779000Y-81049000D01*
X102681000Y-81049000D01*
X102681000Y-82951000D01*
X102681000Y-82951000D01*
G37*
G36*
X95681000Y-82951000D02*
G01*
X93779000Y-82951000D01*
X93779000Y-81049000D01*
X95681000Y-81049000D01*
X95681000Y-82951000D01*
X95681000Y-82951000D01*
G37*
G36*
X104547395Y-81085546D02*
G01*
X104720466Y-81157234D01*
X104720467Y-81157235D01*
X104876227Y-81261310D01*
X105008690Y-81393773D01*
X105012350Y-81399251D01*
X105112766Y-81549534D01*
X105184454Y-81722605D01*
X105221000Y-81906333D01*
X105221000Y-82093667D01*
X105184454Y-82277395D01*
X105112766Y-82450466D01*
X105061081Y-82527818D01*
X105008690Y-82606227D01*
X104876227Y-82738690D01*
X104814402Y-82780000D01*
X104720466Y-82842766D01*
X104547395Y-82914454D01*
X104363667Y-82951000D01*
X104176333Y-82951000D01*
X103992605Y-82914454D01*
X103819534Y-82842766D01*
X103725598Y-82780000D01*
X103663773Y-82738690D01*
X103531310Y-82606227D01*
X103478919Y-82527818D01*
X103427234Y-82450466D01*
X103355546Y-82277395D01*
X103319000Y-82093667D01*
X103319000Y-81906333D01*
X103355546Y-81722605D01*
X103427234Y-81549534D01*
X103527650Y-81399251D01*
X103531310Y-81393773D01*
X103663773Y-81261310D01*
X103819533Y-81157235D01*
X103819534Y-81157234D01*
X103992605Y-81085546D01*
X104176333Y-81049000D01*
X104363667Y-81049000D01*
X104547395Y-81085546D01*
X104547395Y-81085546D01*
G37*
G36*
X144610442Y-79345518D02*
G01*
X144676627Y-79352037D01*
X144846466Y-79403557D01*
X145002991Y-79487222D01*
X145038729Y-79516552D01*
X145140186Y-79599814D01*
X145223448Y-79701271D01*
X145252778Y-79737009D01*
X145336443Y-79893534D01*
X145387963Y-80063373D01*
X145405359Y-80240000D01*
X145387963Y-80416627D01*
X145336443Y-80586466D01*
X145252778Y-80742991D01*
X145229791Y-80771000D01*
X145140186Y-80880186D01*
X145038729Y-80963448D01*
X145002991Y-80992778D01*
X144846466Y-81076443D01*
X144676627Y-81127963D01*
X144610442Y-81134482D01*
X144544260Y-81141000D01*
X144455740Y-81141000D01*
X144389558Y-81134482D01*
X144323373Y-81127963D01*
X144153534Y-81076443D01*
X143997009Y-80992778D01*
X143961271Y-80963448D01*
X143859814Y-80880186D01*
X143770209Y-80771000D01*
X143747222Y-80742991D01*
X143663557Y-80586466D01*
X143612037Y-80416627D01*
X143594641Y-80240000D01*
X143612037Y-80063373D01*
X143663557Y-79893534D01*
X143747222Y-79737009D01*
X143776552Y-79701271D01*
X143859814Y-79599814D01*
X143961271Y-79516552D01*
X143997009Y-79487222D01*
X144153534Y-79403557D01*
X144323373Y-79352037D01*
X144389558Y-79345518D01*
X144455740Y-79339000D01*
X144544260Y-79339000D01*
X144610442Y-79345518D01*
X144610442Y-79345518D01*
G37*
G36*
X117766823Y-79081313D02*
G01*
X117927242Y-79129976D01*
X118059906Y-79200886D01*
X118075078Y-79208996D01*
X118204659Y-79315341D01*
X118311004Y-79444922D01*
X118311005Y-79444924D01*
X118390024Y-79592758D01*
X118390025Y-79592761D01*
X118392165Y-79599815D01*
X118438687Y-79753177D01*
X118455117Y-79920000D01*
X118438687Y-80086823D01*
X118390024Y-80247242D01*
X118332419Y-80355013D01*
X118311004Y-80395078D01*
X118204659Y-80524659D01*
X118075078Y-80631004D01*
X118075076Y-80631005D01*
X117927242Y-80710024D01*
X117766823Y-80758687D01*
X117641804Y-80771000D01*
X117158196Y-80771000D01*
X117033177Y-80758687D01*
X116872758Y-80710024D01*
X116724924Y-80631005D01*
X116724922Y-80631004D01*
X116595341Y-80524659D01*
X116488996Y-80395078D01*
X116467581Y-80355013D01*
X116409976Y-80247242D01*
X116361313Y-80086823D01*
X116344883Y-79920000D01*
X116361313Y-79753177D01*
X116407835Y-79599815D01*
X116409975Y-79592761D01*
X116409976Y-79592758D01*
X116488995Y-79444924D01*
X116488996Y-79444922D01*
X116595341Y-79315341D01*
X116724922Y-79208996D01*
X116740094Y-79200886D01*
X116872758Y-79129976D01*
X117033177Y-79081313D01*
X117158196Y-79069000D01*
X117641804Y-79069000D01*
X117766823Y-79081313D01*
X117766823Y-79081313D01*
G37*
G36*
X140626823Y-79081313D02*
G01*
X140787242Y-79129976D01*
X140919906Y-79200886D01*
X140935078Y-79208996D01*
X141064659Y-79315341D01*
X141171004Y-79444922D01*
X141171005Y-79444924D01*
X141250024Y-79592758D01*
X141250025Y-79592761D01*
X141252165Y-79599815D01*
X141298687Y-79753177D01*
X141315117Y-79920000D01*
X141298687Y-80086823D01*
X141250024Y-80247242D01*
X141192419Y-80355013D01*
X141171004Y-80395078D01*
X141064659Y-80524659D01*
X140935078Y-80631004D01*
X140935076Y-80631005D01*
X140787242Y-80710024D01*
X140626823Y-80758687D01*
X140501804Y-80771000D01*
X140018196Y-80771000D01*
X139893177Y-80758687D01*
X139732758Y-80710024D01*
X139584924Y-80631005D01*
X139584922Y-80631004D01*
X139455341Y-80524659D01*
X139348996Y-80395078D01*
X139327581Y-80355013D01*
X139269976Y-80247242D01*
X139221313Y-80086823D01*
X139204883Y-79920000D01*
X139221313Y-79753177D01*
X139267835Y-79599815D01*
X139269975Y-79592761D01*
X139269976Y-79592758D01*
X139348995Y-79444924D01*
X139348996Y-79444922D01*
X139455341Y-79315341D01*
X139584922Y-79208996D01*
X139600094Y-79200886D01*
X139732758Y-79129976D01*
X139893177Y-79081313D01*
X140018196Y-79069000D01*
X140501804Y-79069000D01*
X140626823Y-79081313D01*
X140626823Y-79081313D01*
G37*
G36*
X144610442Y-76805518D02*
G01*
X144676627Y-76812037D01*
X144846466Y-76863557D01*
X145002991Y-76947222D01*
X145038729Y-76976552D01*
X145140186Y-77059814D01*
X145223448Y-77161271D01*
X145252778Y-77197009D01*
X145336443Y-77353534D01*
X145387963Y-77523373D01*
X145405359Y-77700000D01*
X145387963Y-77876627D01*
X145336443Y-78046466D01*
X145252778Y-78202991D01*
X145229791Y-78231000D01*
X145140186Y-78340186D01*
X145038729Y-78423448D01*
X145002991Y-78452778D01*
X144846466Y-78536443D01*
X144676627Y-78587963D01*
X144610443Y-78594481D01*
X144544260Y-78601000D01*
X144455740Y-78601000D01*
X144389557Y-78594481D01*
X144323373Y-78587963D01*
X144153534Y-78536443D01*
X143997009Y-78452778D01*
X143961271Y-78423448D01*
X143859814Y-78340186D01*
X143770209Y-78231000D01*
X143747222Y-78202991D01*
X143663557Y-78046466D01*
X143612037Y-77876627D01*
X143594641Y-77700000D01*
X143612037Y-77523373D01*
X143663557Y-77353534D01*
X143747222Y-77197009D01*
X143776552Y-77161271D01*
X143859814Y-77059814D01*
X143961271Y-76976552D01*
X143997009Y-76947222D01*
X144153534Y-76863557D01*
X144323373Y-76812037D01*
X144389558Y-76805518D01*
X144455740Y-76799000D01*
X144544260Y-76799000D01*
X144610442Y-76805518D01*
X144610442Y-76805518D01*
G37*
G36*
X140626823Y-76541313D02*
G01*
X140787242Y-76589976D01*
X140919906Y-76660886D01*
X140935078Y-76668996D01*
X141064659Y-76775341D01*
X141171004Y-76904922D01*
X141171005Y-76904924D01*
X141250024Y-77052758D01*
X141250025Y-77052761D01*
X141252165Y-77059815D01*
X141298687Y-77213177D01*
X141315117Y-77380000D01*
X141298687Y-77546823D01*
X141250024Y-77707242D01*
X141179114Y-77839906D01*
X141171004Y-77855078D01*
X141064659Y-77984659D01*
X140935078Y-78091004D01*
X140935076Y-78091005D01*
X140787242Y-78170024D01*
X140626823Y-78218687D01*
X140501804Y-78231000D01*
X140018196Y-78231000D01*
X139893177Y-78218687D01*
X139732758Y-78170024D01*
X139584924Y-78091005D01*
X139584922Y-78091004D01*
X139455341Y-77984659D01*
X139348996Y-77855078D01*
X139340886Y-77839906D01*
X139269976Y-77707242D01*
X139221313Y-77546823D01*
X139204883Y-77380000D01*
X139221313Y-77213177D01*
X139267835Y-77059815D01*
X139269975Y-77052761D01*
X139269976Y-77052758D01*
X139348995Y-76904924D01*
X139348996Y-76904922D01*
X139455341Y-76775341D01*
X139584922Y-76668996D01*
X139600094Y-76660886D01*
X139732758Y-76589976D01*
X139893177Y-76541313D01*
X140018196Y-76529000D01*
X140501804Y-76529000D01*
X140626823Y-76541313D01*
X140626823Y-76541313D01*
G37*
G36*
X117766823Y-76541313D02*
G01*
X117927242Y-76589976D01*
X118059906Y-76660886D01*
X118075078Y-76668996D01*
X118204659Y-76775341D01*
X118311004Y-76904922D01*
X118311005Y-76904924D01*
X118390024Y-77052758D01*
X118390025Y-77052761D01*
X118392165Y-77059815D01*
X118438687Y-77213177D01*
X118455117Y-77380000D01*
X118438687Y-77546823D01*
X118390024Y-77707242D01*
X118319114Y-77839906D01*
X118311004Y-77855078D01*
X118204659Y-77984659D01*
X118075078Y-78091004D01*
X118075076Y-78091005D01*
X117927242Y-78170024D01*
X117766823Y-78218687D01*
X117641804Y-78231000D01*
X117158196Y-78231000D01*
X117033177Y-78218687D01*
X116872758Y-78170024D01*
X116724924Y-78091005D01*
X116724922Y-78091004D01*
X116595341Y-77984659D01*
X116488996Y-77855078D01*
X116480886Y-77839906D01*
X116409976Y-77707242D01*
X116361313Y-77546823D01*
X116344883Y-77380000D01*
X116361313Y-77213177D01*
X116407835Y-77059815D01*
X116409975Y-77052761D01*
X116409976Y-77052758D01*
X116488995Y-76904924D01*
X116488996Y-76904922D01*
X116595341Y-76775341D01*
X116724922Y-76668996D01*
X116740094Y-76660886D01*
X116872758Y-76589976D01*
X117033177Y-76541313D01*
X117158196Y-76529000D01*
X117641804Y-76529000D01*
X117766823Y-76541313D01*
X117766823Y-76541313D01*
G37*
G36*
X144610443Y-74265519D02*
G01*
X144676627Y-74272037D01*
X144846466Y-74323557D01*
X145002991Y-74407222D01*
X145038729Y-74436552D01*
X145140186Y-74519814D01*
X145223448Y-74621271D01*
X145252778Y-74657009D01*
X145336443Y-74813534D01*
X145387963Y-74983373D01*
X145405359Y-75160000D01*
X145387963Y-75336627D01*
X145336443Y-75506466D01*
X145252778Y-75662991D01*
X145229791Y-75691000D01*
X145140186Y-75800186D01*
X145038729Y-75883448D01*
X145002991Y-75912778D01*
X144846466Y-75996443D01*
X144676627Y-76047963D01*
X144610442Y-76054482D01*
X144544260Y-76061000D01*
X144455740Y-76061000D01*
X144389558Y-76054482D01*
X144323373Y-76047963D01*
X144153534Y-75996443D01*
X143997009Y-75912778D01*
X143961271Y-75883448D01*
X143859814Y-75800186D01*
X143770209Y-75691000D01*
X143747222Y-75662991D01*
X143663557Y-75506466D01*
X143612037Y-75336627D01*
X143594641Y-75160000D01*
X143612037Y-74983373D01*
X143663557Y-74813534D01*
X143747222Y-74657009D01*
X143776552Y-74621271D01*
X143859814Y-74519814D01*
X143961271Y-74436552D01*
X143997009Y-74407222D01*
X144153534Y-74323557D01*
X144323373Y-74272037D01*
X144389557Y-74265519D01*
X144455740Y-74259000D01*
X144544260Y-74259000D01*
X144610443Y-74265519D01*
X144610443Y-74265519D01*
G37*
G36*
X140626823Y-74001313D02*
G01*
X140787242Y-74049976D01*
X140919906Y-74120886D01*
X140935078Y-74128996D01*
X141064659Y-74235341D01*
X141171004Y-74364922D01*
X141171005Y-74364924D01*
X141250024Y-74512758D01*
X141250025Y-74512761D01*
X141252165Y-74519815D01*
X141298687Y-74673177D01*
X141315117Y-74840000D01*
X141298687Y-75006823D01*
X141250024Y-75167242D01*
X141179114Y-75299906D01*
X141171004Y-75315078D01*
X141064659Y-75444659D01*
X140935078Y-75551004D01*
X140935076Y-75551005D01*
X140787242Y-75630024D01*
X140626823Y-75678687D01*
X140501804Y-75691000D01*
X140018196Y-75691000D01*
X139893177Y-75678687D01*
X139732758Y-75630024D01*
X139584924Y-75551005D01*
X139584922Y-75551004D01*
X139455341Y-75444659D01*
X139348996Y-75315078D01*
X139340886Y-75299906D01*
X139269976Y-75167242D01*
X139221313Y-75006823D01*
X139204883Y-74840000D01*
X139221313Y-74673177D01*
X139267835Y-74519815D01*
X139269975Y-74512761D01*
X139269976Y-74512758D01*
X139348995Y-74364924D01*
X139348996Y-74364922D01*
X139455341Y-74235341D01*
X139584922Y-74128996D01*
X139600094Y-74120886D01*
X139732758Y-74049976D01*
X139893177Y-74001313D01*
X140018196Y-73989000D01*
X140501804Y-73989000D01*
X140626823Y-74001313D01*
X140626823Y-74001313D01*
G37*
G36*
X117766823Y-74001313D02*
G01*
X117927242Y-74049976D01*
X118059906Y-74120886D01*
X118075078Y-74128996D01*
X118204659Y-74235341D01*
X118311004Y-74364922D01*
X118311005Y-74364924D01*
X118390024Y-74512758D01*
X118390025Y-74512761D01*
X118392165Y-74519815D01*
X118438687Y-74673177D01*
X118455117Y-74840000D01*
X118438687Y-75006823D01*
X118390024Y-75167242D01*
X118319114Y-75299906D01*
X118311004Y-75315078D01*
X118204659Y-75444659D01*
X118075078Y-75551004D01*
X118075076Y-75551005D01*
X117927242Y-75630024D01*
X117766823Y-75678687D01*
X117641804Y-75691000D01*
X117158196Y-75691000D01*
X117033177Y-75678687D01*
X116872758Y-75630024D01*
X116724924Y-75551005D01*
X116724922Y-75551004D01*
X116595341Y-75444659D01*
X116488996Y-75315078D01*
X116480886Y-75299906D01*
X116409976Y-75167242D01*
X116361313Y-75006823D01*
X116344883Y-74840000D01*
X116361313Y-74673177D01*
X116407835Y-74519815D01*
X116409975Y-74512761D01*
X116409976Y-74512758D01*
X116488995Y-74364924D01*
X116488996Y-74364922D01*
X116595341Y-74235341D01*
X116724922Y-74128996D01*
X116740094Y-74120886D01*
X116872758Y-74049976D01*
X117033177Y-74001313D01*
X117158196Y-73989000D01*
X117641804Y-73989000D01*
X117766823Y-74001313D01*
X117766823Y-74001313D01*
G37*
G36*
X144610442Y-71725518D02*
G01*
X144676627Y-71732037D01*
X144846466Y-71783557D01*
X145002991Y-71867222D01*
X145038729Y-71896552D01*
X145140186Y-71979814D01*
X145223448Y-72081271D01*
X145252778Y-72117009D01*
X145336443Y-72273534D01*
X145387963Y-72443373D01*
X145405359Y-72620000D01*
X145387963Y-72796627D01*
X145336443Y-72966466D01*
X145252778Y-73122991D01*
X145229791Y-73151000D01*
X145140186Y-73260186D01*
X145038729Y-73343448D01*
X145002991Y-73372778D01*
X144846466Y-73456443D01*
X144676627Y-73507963D01*
X144610443Y-73514481D01*
X144544260Y-73521000D01*
X144455740Y-73521000D01*
X144389557Y-73514481D01*
X144323373Y-73507963D01*
X144153534Y-73456443D01*
X143997009Y-73372778D01*
X143961271Y-73343448D01*
X143859814Y-73260186D01*
X143770209Y-73151000D01*
X143747222Y-73122991D01*
X143663557Y-72966466D01*
X143612037Y-72796627D01*
X143594641Y-72620000D01*
X143612037Y-72443373D01*
X143663557Y-72273534D01*
X143747222Y-72117009D01*
X143776552Y-72081271D01*
X143859814Y-71979814D01*
X143961271Y-71896552D01*
X143997009Y-71867222D01*
X144153534Y-71783557D01*
X144323373Y-71732037D01*
X144389558Y-71725518D01*
X144455740Y-71719000D01*
X144544260Y-71719000D01*
X144610442Y-71725518D01*
X144610442Y-71725518D01*
G37*
G36*
X117766823Y-71461313D02*
G01*
X117927242Y-71509976D01*
X118059906Y-71580886D01*
X118075078Y-71588996D01*
X118204659Y-71695341D01*
X118311004Y-71824922D01*
X118311005Y-71824924D01*
X118390024Y-71972758D01*
X118390025Y-71972761D01*
X118392165Y-71979815D01*
X118438687Y-72133177D01*
X118455117Y-72300000D01*
X118438687Y-72466823D01*
X118390024Y-72627242D01*
X118319114Y-72759906D01*
X118311004Y-72775078D01*
X118204659Y-72904659D01*
X118075078Y-73011004D01*
X118075076Y-73011005D01*
X117927242Y-73090024D01*
X117766823Y-73138687D01*
X117641804Y-73151000D01*
X117158196Y-73151000D01*
X117033177Y-73138687D01*
X116872758Y-73090024D01*
X116724924Y-73011005D01*
X116724922Y-73011004D01*
X116595341Y-72904659D01*
X116488996Y-72775078D01*
X116480886Y-72759906D01*
X116409976Y-72627242D01*
X116361313Y-72466823D01*
X116344883Y-72300000D01*
X116361313Y-72133177D01*
X116407835Y-71979815D01*
X116409975Y-71972761D01*
X116409976Y-71972758D01*
X116488995Y-71824924D01*
X116488996Y-71824922D01*
X116595341Y-71695341D01*
X116724922Y-71588996D01*
X116740094Y-71580886D01*
X116872758Y-71509976D01*
X117033177Y-71461313D01*
X117158196Y-71449000D01*
X117641804Y-71449000D01*
X117766823Y-71461313D01*
X117766823Y-71461313D01*
G37*
G36*
X140626823Y-71461313D02*
G01*
X140787242Y-71509976D01*
X140919906Y-71580886D01*
X140935078Y-71588996D01*
X141064659Y-71695341D01*
X141171004Y-71824922D01*
X141171005Y-71824924D01*
X141250024Y-71972758D01*
X141250025Y-71972761D01*
X141252165Y-71979815D01*
X141298687Y-72133177D01*
X141315117Y-72300000D01*
X141298687Y-72466823D01*
X141250024Y-72627242D01*
X141179114Y-72759906D01*
X141171004Y-72775078D01*
X141064659Y-72904659D01*
X140935078Y-73011004D01*
X140935076Y-73011005D01*
X140787242Y-73090024D01*
X140626823Y-73138687D01*
X140501804Y-73151000D01*
X140018196Y-73151000D01*
X139893177Y-73138687D01*
X139732758Y-73090024D01*
X139584924Y-73011005D01*
X139584922Y-73011004D01*
X139455341Y-72904659D01*
X139348996Y-72775078D01*
X139340886Y-72759906D01*
X139269976Y-72627242D01*
X139221313Y-72466823D01*
X139204883Y-72300000D01*
X139221313Y-72133177D01*
X139267835Y-71979815D01*
X139269975Y-71972761D01*
X139269976Y-71972758D01*
X139348995Y-71824924D01*
X139348996Y-71824922D01*
X139455341Y-71695341D01*
X139584922Y-71588996D01*
X139600094Y-71580886D01*
X139732758Y-71509976D01*
X139893177Y-71461313D01*
X140018196Y-71449000D01*
X140501804Y-71449000D01*
X140626823Y-71461313D01*
X140626823Y-71461313D01*
G37*
G36*
X144610442Y-69185518D02*
G01*
X144676627Y-69192037D01*
X144846466Y-69243557D01*
X145002991Y-69327222D01*
X145038729Y-69356552D01*
X145140186Y-69439814D01*
X145223448Y-69541271D01*
X145252778Y-69577009D01*
X145336443Y-69733534D01*
X145387963Y-69903373D01*
X145405359Y-70080000D01*
X145387963Y-70256627D01*
X145336443Y-70426466D01*
X145252778Y-70582991D01*
X145229791Y-70611000D01*
X145140186Y-70720186D01*
X145038729Y-70803448D01*
X145002991Y-70832778D01*
X144846466Y-70916443D01*
X144676627Y-70967963D01*
X144610442Y-70974482D01*
X144544260Y-70981000D01*
X144455740Y-70981000D01*
X144389558Y-70974482D01*
X144323373Y-70967963D01*
X144153534Y-70916443D01*
X143997009Y-70832778D01*
X143961271Y-70803448D01*
X143859814Y-70720186D01*
X143770209Y-70611000D01*
X143747222Y-70582991D01*
X143663557Y-70426466D01*
X143612037Y-70256627D01*
X143594641Y-70080000D01*
X143612037Y-69903373D01*
X143663557Y-69733534D01*
X143747222Y-69577009D01*
X143776552Y-69541271D01*
X143859814Y-69439814D01*
X143961271Y-69356552D01*
X143997009Y-69327222D01*
X144153534Y-69243557D01*
X144323373Y-69192037D01*
X144389558Y-69185518D01*
X144455740Y-69179000D01*
X144544260Y-69179000D01*
X144610442Y-69185518D01*
X144610442Y-69185518D01*
G37*
G36*
X117766823Y-68921313D02*
G01*
X117927242Y-68969976D01*
X118059906Y-69040886D01*
X118075078Y-69048996D01*
X118204659Y-69155341D01*
X118311004Y-69284922D01*
X118311005Y-69284924D01*
X118390024Y-69432758D01*
X118390025Y-69432761D01*
X118392165Y-69439815D01*
X118438687Y-69593177D01*
X118455117Y-69760000D01*
X118438687Y-69926823D01*
X118390024Y-70087242D01*
X118322487Y-70213595D01*
X118311004Y-70235078D01*
X118204659Y-70364659D01*
X118075078Y-70471004D01*
X118075076Y-70471005D01*
X117927242Y-70550024D01*
X117766823Y-70598687D01*
X117641804Y-70611000D01*
X117158196Y-70611000D01*
X117033177Y-70598687D01*
X116872758Y-70550024D01*
X116724924Y-70471005D01*
X116724922Y-70471004D01*
X116595341Y-70364659D01*
X116488996Y-70235078D01*
X116477513Y-70213595D01*
X116409976Y-70087242D01*
X116361313Y-69926823D01*
X116344883Y-69760000D01*
X116361313Y-69593177D01*
X116407835Y-69439815D01*
X116409975Y-69432761D01*
X116409976Y-69432758D01*
X116488995Y-69284924D01*
X116488996Y-69284922D01*
X116595341Y-69155341D01*
X116724922Y-69048996D01*
X116740094Y-69040886D01*
X116872758Y-68969976D01*
X117033177Y-68921313D01*
X117158196Y-68909000D01*
X117641804Y-68909000D01*
X117766823Y-68921313D01*
X117766823Y-68921313D01*
G37*
G36*
X140626823Y-68921313D02*
G01*
X140787242Y-68969976D01*
X140919906Y-69040886D01*
X140935078Y-69048996D01*
X141064659Y-69155341D01*
X141171004Y-69284922D01*
X141171005Y-69284924D01*
X141250024Y-69432758D01*
X141250025Y-69432761D01*
X141252165Y-69439815D01*
X141298687Y-69593177D01*
X141315117Y-69760000D01*
X141298687Y-69926823D01*
X141250024Y-70087242D01*
X141182487Y-70213595D01*
X141171004Y-70235078D01*
X141064659Y-70364659D01*
X140935078Y-70471004D01*
X140935076Y-70471005D01*
X140787242Y-70550024D01*
X140626823Y-70598687D01*
X140501804Y-70611000D01*
X140018196Y-70611000D01*
X139893177Y-70598687D01*
X139732758Y-70550024D01*
X139584924Y-70471005D01*
X139584922Y-70471004D01*
X139455341Y-70364659D01*
X139348996Y-70235078D01*
X139337513Y-70213595D01*
X139269976Y-70087242D01*
X139221313Y-69926823D01*
X139204883Y-69760000D01*
X139221313Y-69593177D01*
X139267835Y-69439815D01*
X139269975Y-69432761D01*
X139269976Y-69432758D01*
X139348995Y-69284924D01*
X139348996Y-69284922D01*
X139455341Y-69155341D01*
X139584922Y-69048996D01*
X139600094Y-69040886D01*
X139732758Y-68969976D01*
X139893177Y-68921313D01*
X140018196Y-68909000D01*
X140501804Y-68909000D01*
X140626823Y-68921313D01*
X140626823Y-68921313D01*
G37*
G36*
X91102065Y-65478677D02*
G01*
X91388085Y-65565440D01*
X91488684Y-65595956D01*
X91844983Y-65786402D01*
X91844986Y-65786404D01*
X91844987Y-65786405D01*
X92157293Y-66042707D01*
X92413595Y-66355013D01*
X92413598Y-66355017D01*
X92604044Y-66711316D01*
X92604045Y-66711319D01*
X92721323Y-67097934D01*
X92730739Y-67193534D01*
X92751000Y-67399249D01*
X92751000Y-68600750D01*
X92741108Y-68701188D01*
X92721323Y-68902065D01*
X92700722Y-68969976D01*
X92604044Y-69288684D01*
X92413598Y-69644983D01*
X92413596Y-69644986D01*
X92413595Y-69644987D01*
X92157293Y-69957293D01*
X91844987Y-70213595D01*
X91844983Y-70213598D01*
X91488684Y-70404044D01*
X91488681Y-70404045D01*
X91102066Y-70521323D01*
X90700000Y-70560923D01*
X90297935Y-70521323D01*
X89911320Y-70404045D01*
X89911317Y-70404044D01*
X89555018Y-70213598D01*
X89555014Y-70213595D01*
X89242708Y-69957293D01*
X88986406Y-69644987D01*
X88986405Y-69644986D01*
X88986403Y-69644983D01*
X88795956Y-69288684D01*
X88782267Y-69243557D01*
X88678677Y-68902066D01*
X88649000Y-68600750D01*
X88649000Y-67399251D01*
X88649540Y-67393773D01*
X88669262Y-67193532D01*
X88678677Y-67097935D01*
X88795955Y-66711320D01*
X88795956Y-66711316D01*
X88986402Y-66355017D01*
X88986405Y-66355013D01*
X89242707Y-66042707D01*
X89555013Y-65786405D01*
X89555014Y-65786404D01*
X89555017Y-65786402D01*
X89911316Y-65595956D01*
X89911319Y-65595955D01*
X90297934Y-65478677D01*
X90700000Y-65439077D01*
X91102065Y-65478677D01*
X91102065Y-65478677D01*
G37*
G36*
X86402065Y-65478677D02*
G01*
X86688085Y-65565440D01*
X86788684Y-65595956D01*
X87144983Y-65786402D01*
X87144986Y-65786404D01*
X87144987Y-65786405D01*
X87457293Y-66042707D01*
X87713595Y-66355013D01*
X87713598Y-66355017D01*
X87904044Y-66711316D01*
X87904045Y-66711319D01*
X88021323Y-67097934D01*
X88030739Y-67193534D01*
X88051000Y-67399249D01*
X88051000Y-68600750D01*
X88041108Y-68701188D01*
X88021323Y-68902065D01*
X88000722Y-68969976D01*
X87904044Y-69288684D01*
X87713598Y-69644983D01*
X87713596Y-69644986D01*
X87713595Y-69644987D01*
X87457293Y-69957293D01*
X87144987Y-70213595D01*
X87144983Y-70213598D01*
X86788684Y-70404044D01*
X86788681Y-70404045D01*
X86402066Y-70521323D01*
X86000000Y-70560923D01*
X85597935Y-70521323D01*
X85211320Y-70404045D01*
X85211317Y-70404044D01*
X84855018Y-70213598D01*
X84855014Y-70213595D01*
X84542708Y-69957293D01*
X84286406Y-69644987D01*
X84286405Y-69644986D01*
X84286403Y-69644983D01*
X84095956Y-69288684D01*
X84082267Y-69243557D01*
X83978677Y-68902066D01*
X83949000Y-68600750D01*
X83949000Y-67399251D01*
X83949540Y-67393773D01*
X83969262Y-67193532D01*
X83978677Y-67097935D01*
X84095955Y-66711320D01*
X84095956Y-66711316D01*
X84286402Y-66355017D01*
X84286405Y-66355013D01*
X84542707Y-66042707D01*
X84855013Y-65786405D01*
X84855014Y-65786404D01*
X84855017Y-65786402D01*
X85211316Y-65595956D01*
X85211319Y-65595955D01*
X85597934Y-65478677D01*
X86000000Y-65439077D01*
X86402065Y-65478677D01*
X86402065Y-65478677D01*
G37*
G36*
X81702065Y-65478677D02*
G01*
X81988085Y-65565440D01*
X82088684Y-65595956D01*
X82444983Y-65786402D01*
X82444986Y-65786404D01*
X82444987Y-65786405D01*
X82757293Y-66042707D01*
X83013595Y-66355013D01*
X83013598Y-66355017D01*
X83204044Y-66711316D01*
X83204045Y-66711319D01*
X83321323Y-67097934D01*
X83330739Y-67193534D01*
X83351000Y-67399249D01*
X83351000Y-68600750D01*
X83341108Y-68701188D01*
X83321323Y-68902065D01*
X83300722Y-68969976D01*
X83204044Y-69288684D01*
X83013598Y-69644983D01*
X83013596Y-69644986D01*
X83013595Y-69644987D01*
X82757293Y-69957293D01*
X82444987Y-70213595D01*
X82444983Y-70213598D01*
X82088684Y-70404044D01*
X82088681Y-70404045D01*
X81702066Y-70521323D01*
X81300000Y-70560923D01*
X80897935Y-70521323D01*
X80511320Y-70404045D01*
X80511317Y-70404044D01*
X80155018Y-70213598D01*
X80155014Y-70213595D01*
X79842708Y-69957293D01*
X79586406Y-69644987D01*
X79586405Y-69644986D01*
X79586403Y-69644983D01*
X79395956Y-69288684D01*
X79382267Y-69243557D01*
X79278677Y-68902066D01*
X79249000Y-68600750D01*
X79249000Y-67399251D01*
X79249540Y-67393773D01*
X79269262Y-67193532D01*
X79278677Y-67097935D01*
X79395955Y-66711320D01*
X79395956Y-66711316D01*
X79586402Y-66355017D01*
X79586405Y-66355013D01*
X79842707Y-66042707D01*
X80155013Y-65786405D01*
X80155014Y-65786404D01*
X80155017Y-65786402D01*
X80511316Y-65595956D01*
X80511319Y-65595955D01*
X80897934Y-65478677D01*
X81300000Y-65439077D01*
X81702065Y-65478677D01*
X81702065Y-65478677D01*
G37*
G36*
X104547395Y-67085546D02*
G01*
X104720466Y-67157234D01*
X104720467Y-67157235D01*
X104876227Y-67261310D01*
X105008690Y-67393773D01*
X105012350Y-67399251D01*
X105112766Y-67549534D01*
X105184454Y-67722605D01*
X105221000Y-67906333D01*
X105221000Y-68093667D01*
X105184454Y-68277395D01*
X105112766Y-68450466D01*
X105112765Y-68450467D01*
X105008690Y-68606227D01*
X104876227Y-68738690D01*
X104797818Y-68791081D01*
X104720466Y-68842766D01*
X104547395Y-68914454D01*
X104363667Y-68951000D01*
X104176333Y-68951000D01*
X103992605Y-68914454D01*
X103819534Y-68842766D01*
X103742182Y-68791081D01*
X103663773Y-68738690D01*
X103531310Y-68606227D01*
X103427235Y-68450467D01*
X103427234Y-68450466D01*
X103355546Y-68277395D01*
X103319000Y-68093667D01*
X103319000Y-67906333D01*
X103355546Y-67722605D01*
X103427234Y-67549534D01*
X103527650Y-67399251D01*
X103531310Y-67393773D01*
X103663773Y-67261310D01*
X103819533Y-67157235D01*
X103819534Y-67157234D01*
X103992605Y-67085546D01*
X104176333Y-67049000D01*
X104363667Y-67049000D01*
X104547395Y-67085546D01*
X104547395Y-67085546D01*
G37*
G36*
X102681000Y-68951000D02*
G01*
X100779000Y-68951000D01*
X100779000Y-67049000D01*
X102681000Y-67049000D01*
X102681000Y-68951000D01*
X102681000Y-68951000D01*
G37*
G36*
X95681000Y-68951000D02*
G01*
X93779000Y-68951000D01*
X93779000Y-67049000D01*
X95681000Y-67049000D01*
X95681000Y-68951000D01*
X95681000Y-68951000D01*
G37*
G36*
X97547395Y-67085546D02*
G01*
X97720466Y-67157234D01*
X97720467Y-67157235D01*
X97876227Y-67261310D01*
X98008690Y-67393773D01*
X98012350Y-67399251D01*
X98112766Y-67549534D01*
X98184454Y-67722605D01*
X98221000Y-67906333D01*
X98221000Y-68093667D01*
X98184454Y-68277395D01*
X98112766Y-68450466D01*
X98112765Y-68450467D01*
X98008690Y-68606227D01*
X97876227Y-68738690D01*
X97797818Y-68791081D01*
X97720466Y-68842766D01*
X97547395Y-68914454D01*
X97363667Y-68951000D01*
X97176333Y-68951000D01*
X96992605Y-68914454D01*
X96819534Y-68842766D01*
X96742182Y-68791081D01*
X96663773Y-68738690D01*
X96531310Y-68606227D01*
X96427235Y-68450467D01*
X96427234Y-68450466D01*
X96355546Y-68277395D01*
X96319000Y-68093667D01*
X96319000Y-67906333D01*
X96355546Y-67722605D01*
X96427234Y-67549534D01*
X96527650Y-67399251D01*
X96531310Y-67393773D01*
X96663773Y-67261310D01*
X96819533Y-67157235D01*
X96819534Y-67157234D01*
X96992605Y-67085546D01*
X97176333Y-67049000D01*
X97363667Y-67049000D01*
X97547395Y-67085546D01*
X97547395Y-67085546D01*
G37*
G36*
X144610443Y-66645519D02*
G01*
X144676627Y-66652037D01*
X144846466Y-66703557D01*
X144846468Y-66703558D01*
X144923854Y-66744922D01*
X145002991Y-66787222D01*
X145038729Y-66816552D01*
X145140186Y-66899814D01*
X145223448Y-67001271D01*
X145252778Y-67037009D01*
X145336443Y-67193534D01*
X145387963Y-67363373D01*
X145405359Y-67540000D01*
X145387963Y-67716627D01*
X145336443Y-67886466D01*
X145252778Y-68042991D01*
X145229791Y-68071000D01*
X145140186Y-68180186D01*
X145038729Y-68263448D01*
X145002991Y-68292778D01*
X144846466Y-68376443D01*
X144676627Y-68427963D01*
X144610443Y-68434481D01*
X144544260Y-68441000D01*
X144455740Y-68441000D01*
X144389557Y-68434481D01*
X144323373Y-68427963D01*
X144153534Y-68376443D01*
X143997009Y-68292778D01*
X143961271Y-68263448D01*
X143859814Y-68180186D01*
X143770209Y-68071000D01*
X143747222Y-68042991D01*
X143663557Y-67886466D01*
X143612037Y-67716627D01*
X143594641Y-67540000D01*
X143612037Y-67363373D01*
X143663557Y-67193534D01*
X143747222Y-67037009D01*
X143776552Y-67001271D01*
X143859814Y-66899814D01*
X143961271Y-66816552D01*
X143997009Y-66787222D01*
X144076146Y-66744922D01*
X144153532Y-66703558D01*
X144153534Y-66703557D01*
X144323373Y-66652037D01*
X144389557Y-66645519D01*
X144455740Y-66639000D01*
X144544260Y-66639000D01*
X144610443Y-66645519D01*
X144610443Y-66645519D01*
G37*
G36*
X117766823Y-66381313D02*
G01*
X117927242Y-66429976D01*
X118059906Y-66500886D01*
X118075078Y-66508996D01*
X118204659Y-66615341D01*
X118311004Y-66744922D01*
X118311005Y-66744924D01*
X118390024Y-66892758D01*
X118390025Y-66892761D01*
X118392165Y-66899815D01*
X118438687Y-67053177D01*
X118455117Y-67220000D01*
X118438687Y-67386823D01*
X118390024Y-67547242D01*
X118319114Y-67679906D01*
X118311004Y-67695078D01*
X118204659Y-67824659D01*
X118075078Y-67931004D01*
X118075076Y-67931005D01*
X117927242Y-68010024D01*
X117766823Y-68058687D01*
X117641804Y-68071000D01*
X117158196Y-68071000D01*
X117033177Y-68058687D01*
X116872758Y-68010024D01*
X116724924Y-67931005D01*
X116724922Y-67931004D01*
X116595341Y-67824659D01*
X116488996Y-67695078D01*
X116480886Y-67679906D01*
X116409976Y-67547242D01*
X116361313Y-67386823D01*
X116344883Y-67220000D01*
X116361313Y-67053177D01*
X116407835Y-66899815D01*
X116409975Y-66892761D01*
X116409976Y-66892758D01*
X116488995Y-66744924D01*
X116488996Y-66744922D01*
X116595341Y-66615341D01*
X116724922Y-66508996D01*
X116740094Y-66500886D01*
X116872758Y-66429976D01*
X117033177Y-66381313D01*
X117158196Y-66369000D01*
X117641804Y-66369000D01*
X117766823Y-66381313D01*
X117766823Y-66381313D01*
G37*
G36*
X140626823Y-66381313D02*
G01*
X140787242Y-66429976D01*
X140919906Y-66500886D01*
X140935078Y-66508996D01*
X141064659Y-66615341D01*
X141171004Y-66744922D01*
X141171005Y-66744924D01*
X141250024Y-66892758D01*
X141250025Y-66892761D01*
X141252165Y-66899815D01*
X141298687Y-67053177D01*
X141315117Y-67220000D01*
X141298687Y-67386823D01*
X141250024Y-67547242D01*
X141179114Y-67679906D01*
X141171004Y-67695078D01*
X141064659Y-67824659D01*
X140935078Y-67931004D01*
X140935076Y-67931005D01*
X140787242Y-68010024D01*
X140626823Y-68058687D01*
X140501804Y-68071000D01*
X140018196Y-68071000D01*
X139893177Y-68058687D01*
X139732758Y-68010024D01*
X139584924Y-67931005D01*
X139584922Y-67931004D01*
X139455341Y-67824659D01*
X139348996Y-67695078D01*
X139340886Y-67679906D01*
X139269976Y-67547242D01*
X139221313Y-67386823D01*
X139204883Y-67220000D01*
X139221313Y-67053177D01*
X139267835Y-66899815D01*
X139269975Y-66892761D01*
X139269976Y-66892758D01*
X139348995Y-66744924D01*
X139348996Y-66744922D01*
X139455341Y-66615341D01*
X139584922Y-66508996D01*
X139600094Y-66500886D01*
X139732758Y-66429976D01*
X139893177Y-66381313D01*
X140018196Y-66369000D01*
X140501804Y-66369000D01*
X140626823Y-66381313D01*
X140626823Y-66381313D01*
G37*
G36*
X145401000Y-65901000D02*
G01*
X143599000Y-65901000D01*
X143599000Y-64099000D01*
X145401000Y-64099000D01*
X145401000Y-65901000D01*
X145401000Y-65901000D01*
G37*
G36*
X145302585Y-59478802D02*
G01*
X145452410Y-59508604D01*
X145734674Y-59625521D01*
X145988705Y-59795259D01*
X146204741Y-60011295D01*
X146374479Y-60265326D01*
X146491396Y-60547590D01*
X146551000Y-60847240D01*
X146551000Y-61152760D01*
X146491396Y-61452410D01*
X146374479Y-61734674D01*
X146204741Y-61988705D01*
X145988705Y-62204741D01*
X145734674Y-62374479D01*
X145452410Y-62491396D01*
X145302585Y-62521198D01*
X145152761Y-62551000D01*
X144847239Y-62551000D01*
X144697415Y-62521198D01*
X144547590Y-62491396D01*
X144265326Y-62374479D01*
X144011295Y-62204741D01*
X143795259Y-61988705D01*
X143625521Y-61734674D01*
X143508604Y-61452410D01*
X143449000Y-61152760D01*
X143449000Y-60847240D01*
X143508604Y-60547590D01*
X143625521Y-60265326D01*
X143795259Y-60011295D01*
X144011295Y-59795259D01*
X144265326Y-59625521D01*
X144547590Y-59508604D01*
X144697415Y-59478802D01*
X144847239Y-59449000D01*
X145152761Y-59449000D01*
X145302585Y-59478802D01*
X145302585Y-59478802D01*
G37*
G36*
X81702065Y-51478677D02*
G01*
X81988085Y-51565440D01*
X82088684Y-51595956D01*
X82444983Y-51786402D01*
X82444986Y-51786404D01*
X82444987Y-51786405D01*
X82757293Y-52042707D01*
X83013595Y-52355013D01*
X83013598Y-52355017D01*
X83204044Y-52711316D01*
X83204045Y-52711319D01*
X83321323Y-53097934D01*
X83329307Y-53179000D01*
X83351000Y-53399249D01*
X83351000Y-54600750D01*
X83341108Y-54701188D01*
X83321323Y-54902065D01*
X83236282Y-55182409D01*
X83204044Y-55288684D01*
X83013598Y-55644983D01*
X83013596Y-55644986D01*
X83013595Y-55644987D01*
X82757293Y-55957293D01*
X82444987Y-56213595D01*
X82444983Y-56213598D01*
X82088684Y-56404044D01*
X82088681Y-56404045D01*
X81702066Y-56521323D01*
X81300000Y-56560923D01*
X80897935Y-56521323D01*
X80511320Y-56404045D01*
X80511317Y-56404044D01*
X80155018Y-56213598D01*
X80155014Y-56213595D01*
X79842708Y-55957293D01*
X79586406Y-55644987D01*
X79586405Y-55644986D01*
X79586403Y-55644983D01*
X79395956Y-55288684D01*
X79282435Y-54914453D01*
X79278677Y-54902066D01*
X79249000Y-54600750D01*
X79249000Y-53399251D01*
X79249540Y-53393773D01*
X79270693Y-53179000D01*
X79278677Y-53097935D01*
X79395955Y-52711320D01*
X79395956Y-52711316D01*
X79586402Y-52355017D01*
X79586405Y-52355013D01*
X79842707Y-52042707D01*
X80155013Y-51786405D01*
X80155014Y-51786404D01*
X80155017Y-51786402D01*
X80511316Y-51595956D01*
X80511319Y-51595955D01*
X80897934Y-51478677D01*
X81300000Y-51439077D01*
X81702065Y-51478677D01*
X81702065Y-51478677D01*
G37*
G36*
X91102065Y-51478677D02*
G01*
X91388085Y-51565440D01*
X91488684Y-51595956D01*
X91844983Y-51786402D01*
X91844986Y-51786404D01*
X91844987Y-51786405D01*
X92157293Y-52042707D01*
X92413595Y-52355013D01*
X92413598Y-52355017D01*
X92604044Y-52711316D01*
X92604045Y-52711319D01*
X92721323Y-53097934D01*
X92729307Y-53179000D01*
X92751000Y-53399249D01*
X92751000Y-54600750D01*
X92741108Y-54701188D01*
X92721323Y-54902065D01*
X92636282Y-55182409D01*
X92604044Y-55288684D01*
X92413598Y-55644983D01*
X92413596Y-55644986D01*
X92413595Y-55644987D01*
X92157293Y-55957293D01*
X91844987Y-56213595D01*
X91844983Y-56213598D01*
X91488684Y-56404044D01*
X91488681Y-56404045D01*
X91102066Y-56521323D01*
X90700000Y-56560923D01*
X90297935Y-56521323D01*
X89911320Y-56404045D01*
X89911317Y-56404044D01*
X89555018Y-56213598D01*
X89555014Y-56213595D01*
X89242708Y-55957293D01*
X88986406Y-55644987D01*
X88986405Y-55644986D01*
X88986403Y-55644983D01*
X88795956Y-55288684D01*
X88682435Y-54914453D01*
X88678677Y-54902066D01*
X88649000Y-54600750D01*
X88649000Y-53399251D01*
X88649540Y-53393773D01*
X88670693Y-53179000D01*
X88678677Y-53097935D01*
X88795955Y-52711320D01*
X88795956Y-52711316D01*
X88986402Y-52355017D01*
X88986405Y-52355013D01*
X89242707Y-52042707D01*
X89555013Y-51786405D01*
X89555014Y-51786404D01*
X89555017Y-51786402D01*
X89911316Y-51595956D01*
X89911319Y-51595955D01*
X90297934Y-51478677D01*
X90700000Y-51439077D01*
X91102065Y-51478677D01*
X91102065Y-51478677D01*
G37*
G36*
X86402065Y-51478677D02*
G01*
X86688085Y-51565440D01*
X86788684Y-51595956D01*
X87144983Y-51786402D01*
X87144986Y-51786404D01*
X87144987Y-51786405D01*
X87457293Y-52042707D01*
X87713595Y-52355013D01*
X87713598Y-52355017D01*
X87904044Y-52711316D01*
X87904045Y-52711319D01*
X88021323Y-53097934D01*
X88029307Y-53179000D01*
X88051000Y-53399249D01*
X88051000Y-54600750D01*
X88041108Y-54701188D01*
X88021323Y-54902065D01*
X87936282Y-55182409D01*
X87904044Y-55288684D01*
X87713598Y-55644983D01*
X87713596Y-55644986D01*
X87713595Y-55644987D01*
X87457293Y-55957293D01*
X87144987Y-56213595D01*
X87144983Y-56213598D01*
X86788684Y-56404044D01*
X86788681Y-56404045D01*
X86402066Y-56521323D01*
X86000000Y-56560923D01*
X85597935Y-56521323D01*
X85211320Y-56404045D01*
X85211317Y-56404044D01*
X84855018Y-56213598D01*
X84855014Y-56213595D01*
X84542708Y-55957293D01*
X84286406Y-55644987D01*
X84286405Y-55644986D01*
X84286403Y-55644983D01*
X84095956Y-55288684D01*
X83982435Y-54914453D01*
X83978677Y-54902066D01*
X83949000Y-54600750D01*
X83949000Y-53399251D01*
X83949540Y-53393773D01*
X83970693Y-53179000D01*
X83978677Y-53097935D01*
X84095955Y-52711320D01*
X84095956Y-52711316D01*
X84286402Y-52355017D01*
X84286405Y-52355013D01*
X84542707Y-52042707D01*
X84855013Y-51786405D01*
X84855014Y-51786404D01*
X84855017Y-51786402D01*
X85211316Y-51595956D01*
X85211319Y-51595955D01*
X85597934Y-51478677D01*
X86000000Y-51439077D01*
X86402065Y-51478677D01*
X86402065Y-51478677D01*
G37*
G36*
X147774585Y-53208802D02*
G01*
X147924410Y-53238604D01*
X148206674Y-53355521D01*
X148460705Y-53525259D01*
X148676741Y-53741295D01*
X148846479Y-53995326D01*
X148963396Y-54277590D01*
X148963396Y-54277591D01*
X149023000Y-54577239D01*
X149023000Y-54882761D01*
X149019160Y-54902064D01*
X148963396Y-55182410D01*
X148846479Y-55464674D01*
X148676741Y-55718705D01*
X148460705Y-55934741D01*
X148206674Y-56104479D01*
X147924410Y-56221396D01*
X147774585Y-56251198D01*
X147624761Y-56281000D01*
X147319239Y-56281000D01*
X147169415Y-56251198D01*
X147019590Y-56221396D01*
X146737326Y-56104479D01*
X146483295Y-55934741D01*
X146267259Y-55718705D01*
X146097521Y-55464674D01*
X145980604Y-55182410D01*
X145924840Y-54902064D01*
X145921000Y-54882761D01*
X145921000Y-54577239D01*
X145980604Y-54277591D01*
X145980604Y-54277590D01*
X146097521Y-53995326D01*
X146267259Y-53741295D01*
X146483295Y-53525259D01*
X146737326Y-53355521D01*
X147019590Y-53238604D01*
X147169415Y-53208802D01*
X147319239Y-53179000D01*
X147624761Y-53179000D01*
X147774585Y-53208802D01*
X147774585Y-53208802D01*
G37*
G36*
X102681000Y-54951000D02*
G01*
X100779000Y-54951000D01*
X100779000Y-53049000D01*
X102681000Y-53049000D01*
X102681000Y-54951000D01*
X102681000Y-54951000D01*
G37*
G36*
X104547395Y-53085546D02*
G01*
X104720466Y-53157234D01*
X104720467Y-53157235D01*
X104876227Y-53261310D01*
X105008690Y-53393773D01*
X105012350Y-53399251D01*
X105112766Y-53549534D01*
X105184454Y-53722605D01*
X105221000Y-53906333D01*
X105221000Y-54093667D01*
X105184454Y-54277395D01*
X105112766Y-54450466D01*
X105112765Y-54450467D01*
X105008690Y-54606227D01*
X104876227Y-54738690D01*
X104797818Y-54791081D01*
X104720466Y-54842766D01*
X104547395Y-54914454D01*
X104363667Y-54951000D01*
X104176333Y-54951000D01*
X103992605Y-54914454D01*
X103819534Y-54842766D01*
X103742182Y-54791081D01*
X103663773Y-54738690D01*
X103531310Y-54606227D01*
X103427235Y-54450467D01*
X103427234Y-54450466D01*
X103355546Y-54277395D01*
X103319000Y-54093667D01*
X103319000Y-53906333D01*
X103355546Y-53722605D01*
X103427234Y-53549534D01*
X103527650Y-53399251D01*
X103531310Y-53393773D01*
X103663773Y-53261310D01*
X103819533Y-53157235D01*
X103819534Y-53157234D01*
X103992605Y-53085546D01*
X104176333Y-53049000D01*
X104363667Y-53049000D01*
X104547395Y-53085546D01*
X104547395Y-53085546D01*
G37*
G36*
X95681000Y-54951000D02*
G01*
X93779000Y-54951000D01*
X93779000Y-53049000D01*
X95681000Y-53049000D01*
X95681000Y-54951000D01*
X95681000Y-54951000D01*
G37*
G36*
X97547395Y-53085546D02*
G01*
X97720466Y-53157234D01*
X97720467Y-53157235D01*
X97876227Y-53261310D01*
X98008690Y-53393773D01*
X98012350Y-53399251D01*
X98112766Y-53549534D01*
X98184454Y-53722605D01*
X98221000Y-53906333D01*
X98221000Y-54093667D01*
X98184454Y-54277395D01*
X98112766Y-54450466D01*
X98112765Y-54450467D01*
X98008690Y-54606227D01*
X97876227Y-54738690D01*
X97797818Y-54791081D01*
X97720466Y-54842766D01*
X97547395Y-54914454D01*
X97363667Y-54951000D01*
X97176333Y-54951000D01*
X96992605Y-54914454D01*
X96819534Y-54842766D01*
X96742182Y-54791081D01*
X96663773Y-54738690D01*
X96531310Y-54606227D01*
X96427235Y-54450467D01*
X96427234Y-54450466D01*
X96355546Y-54277395D01*
X96319000Y-54093667D01*
X96319000Y-53906333D01*
X96355546Y-53722605D01*
X96427234Y-53549534D01*
X96527650Y-53399251D01*
X96531310Y-53393773D01*
X96663773Y-53261310D01*
X96819533Y-53157235D01*
X96819534Y-53157234D01*
X96992605Y-53085546D01*
X97176333Y-53049000D01*
X97363667Y-53049000D01*
X97547395Y-53085546D01*
X97547395Y-53085546D01*
G37*
G36*
X139050915Y-48483334D02*
G01*
X139159491Y-48516271D01*
X139159494Y-48516272D01*
X139195600Y-48535571D01*
X139259556Y-48569756D01*
X139347264Y-48641736D01*
X139419244Y-48729443D01*
X139453429Y-48793399D01*
X139472728Y-48829505D01*
X139472729Y-48829508D01*
X139505666Y-48938084D01*
X139514000Y-49022702D01*
X139514000Y-49529297D01*
X139505666Y-49613916D01*
X139473252Y-49720767D01*
X139472728Y-49722495D01*
X139462761Y-49741141D01*
X139419244Y-49822557D01*
X139347264Y-49910264D01*
X139259557Y-49982244D01*
X139195601Y-50016429D01*
X139159495Y-50035728D01*
X139159492Y-50035729D01*
X139050916Y-50068666D01*
X138938000Y-50079787D01*
X138825085Y-50068666D01*
X138716509Y-50035729D01*
X138716506Y-50035728D01*
X138680400Y-50016429D01*
X138616444Y-49982244D01*
X138528737Y-49910264D01*
X138456757Y-49822557D01*
X138413239Y-49741141D01*
X138399625Y-49720766D01*
X138382298Y-49703439D01*
X138361924Y-49689826D01*
X138339285Y-49680448D01*
X138315252Y-49675668D01*
X138290748Y-49675668D01*
X138266715Y-49680448D01*
X138244076Y-49689826D01*
X138223701Y-49703440D01*
X138206374Y-49720767D01*
X138192761Y-49741141D01*
X138149244Y-49822557D01*
X138077264Y-49910264D01*
X137989557Y-49982244D01*
X137925601Y-50016429D01*
X137889495Y-50035728D01*
X137889492Y-50035729D01*
X137780916Y-50068666D01*
X137668000Y-50079787D01*
X137555085Y-50068666D01*
X137446509Y-50035729D01*
X137446506Y-50035728D01*
X137410400Y-50016429D01*
X137346444Y-49982244D01*
X137258737Y-49910264D01*
X137195622Y-49833359D01*
X137178297Y-49816034D01*
X137157923Y-49802420D01*
X137135284Y-49793043D01*
X137111250Y-49788263D01*
X137086746Y-49788263D01*
X137062713Y-49793044D01*
X137040074Y-49802421D01*
X137019700Y-49816035D01*
X137002373Y-49833362D01*
X136988759Y-49853736D01*
X136979382Y-49876375D01*
X136974000Y-49912660D01*
X136974000Y-50077000D01*
X135822000Y-50077000D01*
X135822000Y-48475000D01*
X136974000Y-48475000D01*
X136974000Y-48639341D01*
X136976402Y-48663727D01*
X136983515Y-48687176D01*
X136995066Y-48708787D01*
X137010611Y-48727729D01*
X137029553Y-48743274D01*
X137051164Y-48754825D01*
X137074613Y-48761938D01*
X137098999Y-48764340D01*
X137123385Y-48761938D01*
X137146834Y-48754825D01*
X137168445Y-48743274D01*
X137187387Y-48727729D01*
X137195608Y-48718657D01*
X137258736Y-48641736D01*
X137346443Y-48569756D01*
X137410399Y-48535571D01*
X137446505Y-48516272D01*
X137446508Y-48516271D01*
X137555084Y-48483334D01*
X137668000Y-48472213D01*
X137780915Y-48483334D01*
X137889491Y-48516271D01*
X137889494Y-48516272D01*
X137925600Y-48535571D01*
X137989556Y-48569756D01*
X138077264Y-48641736D01*
X138149244Y-48729443D01*
X138192761Y-48810859D01*
X138206375Y-48831234D01*
X138223702Y-48848561D01*
X138244076Y-48862174D01*
X138266715Y-48871552D01*
X138290748Y-48876332D01*
X138315252Y-48876332D01*
X138339285Y-48871552D01*
X138361924Y-48862174D01*
X138382299Y-48848560D01*
X138399626Y-48831233D01*
X138413239Y-48810860D01*
X138456756Y-48729444D01*
X138528736Y-48641736D01*
X138616443Y-48569756D01*
X138680399Y-48535571D01*
X138716505Y-48516272D01*
X138716508Y-48516271D01*
X138825084Y-48483334D01*
X138938000Y-48472213D01*
X139050915Y-48483334D01*
X139050915Y-48483334D01*
G37*
G36*
X125306823Y-44781313D02*
G01*
X125467242Y-44829976D01*
X125599906Y-44900886D01*
X125615078Y-44908996D01*
X125744659Y-45015341D01*
X125851004Y-45144922D01*
X125851005Y-45144924D01*
X125930024Y-45292758D01*
X125978687Y-45453177D01*
X125995117Y-45620000D01*
X125978687Y-45786823D01*
X125930024Y-45947242D01*
X125859114Y-46079906D01*
X125851004Y-46095078D01*
X125744659Y-46224659D01*
X125615078Y-46331004D01*
X125615076Y-46331005D01*
X125467242Y-46410024D01*
X125306823Y-46458687D01*
X125181804Y-46471000D01*
X125098196Y-46471000D01*
X124973177Y-46458687D01*
X124812758Y-46410024D01*
X124664924Y-46331005D01*
X124664922Y-46331004D01*
X124535341Y-46224659D01*
X124428996Y-46095078D01*
X124420886Y-46079906D01*
X124349976Y-45947242D01*
X124301313Y-45786823D01*
X124284883Y-45620000D01*
X124301313Y-45453177D01*
X124349976Y-45292758D01*
X124428995Y-45144924D01*
X124428996Y-45144922D01*
X124535341Y-45015341D01*
X124664922Y-44908996D01*
X124680094Y-44900886D01*
X124812758Y-44829976D01*
X124973177Y-44781313D01*
X125098196Y-44769000D01*
X125181804Y-44769000D01*
X125306823Y-44781313D01*
X125306823Y-44781313D01*
G37*
G36*
X122766823Y-44781313D02*
G01*
X122927242Y-44829976D01*
X123059906Y-44900886D01*
X123075078Y-44908996D01*
X123204659Y-45015341D01*
X123311004Y-45144922D01*
X123311005Y-45144924D01*
X123390024Y-45292758D01*
X123438687Y-45453177D01*
X123455117Y-45620000D01*
X123438687Y-45786823D01*
X123390024Y-45947242D01*
X123319114Y-46079906D01*
X123311004Y-46095078D01*
X123204659Y-46224659D01*
X123075078Y-46331004D01*
X123075076Y-46331005D01*
X122927242Y-46410024D01*
X122766823Y-46458687D01*
X122641804Y-46471000D01*
X122558196Y-46471000D01*
X122433177Y-46458687D01*
X122272758Y-46410024D01*
X122124924Y-46331005D01*
X122124922Y-46331004D01*
X121995341Y-46224659D01*
X121888996Y-46095078D01*
X121880886Y-46079906D01*
X121809976Y-45947242D01*
X121761313Y-45786823D01*
X121744883Y-45620000D01*
X121761313Y-45453177D01*
X121809976Y-45292758D01*
X121888995Y-45144924D01*
X121888996Y-45144922D01*
X121995341Y-45015341D01*
X122124922Y-44908996D01*
X122140094Y-44900886D01*
X122272758Y-44829976D01*
X122433177Y-44781313D01*
X122558196Y-44769000D01*
X122641804Y-44769000D01*
X122766823Y-44781313D01*
X122766823Y-44781313D01*
G37*
G36*
X120226823Y-44781313D02*
G01*
X120387242Y-44829976D01*
X120519906Y-44900886D01*
X120535078Y-44908996D01*
X120664659Y-45015341D01*
X120771004Y-45144922D01*
X120771005Y-45144924D01*
X120850024Y-45292758D01*
X120898687Y-45453177D01*
X120915117Y-45620000D01*
X120898687Y-45786823D01*
X120850024Y-45947242D01*
X120779114Y-46079906D01*
X120771004Y-46095078D01*
X120664659Y-46224659D01*
X120535078Y-46331004D01*
X120535076Y-46331005D01*
X120387242Y-46410024D01*
X120226823Y-46458687D01*
X120101804Y-46471000D01*
X120018196Y-46471000D01*
X119893177Y-46458687D01*
X119732758Y-46410024D01*
X119584924Y-46331005D01*
X119584922Y-46331004D01*
X119455341Y-46224659D01*
X119348996Y-46095078D01*
X119340886Y-46079906D01*
X119269976Y-45947242D01*
X119221313Y-45786823D01*
X119204883Y-45620000D01*
X119221313Y-45453177D01*
X119269976Y-45292758D01*
X119348995Y-45144924D01*
X119348996Y-45144922D01*
X119455341Y-45015341D01*
X119584922Y-44908996D01*
X119600094Y-44900886D01*
X119732758Y-44829976D01*
X119893177Y-44781313D01*
X120018196Y-44769000D01*
X120101804Y-44769000D01*
X120226823Y-44781313D01*
X120226823Y-44781313D01*
G37*
G36*
X143086823Y-44781313D02*
G01*
X143247242Y-44829976D01*
X143379906Y-44900886D01*
X143395078Y-44908996D01*
X143524659Y-45015341D01*
X143631004Y-45144922D01*
X143631005Y-45144924D01*
X143710024Y-45292758D01*
X143758687Y-45453177D01*
X143775117Y-45620000D01*
X143758687Y-45786823D01*
X143710024Y-45947242D01*
X143639114Y-46079906D01*
X143631004Y-46095078D01*
X143524659Y-46224659D01*
X143395078Y-46331004D01*
X143395076Y-46331005D01*
X143247242Y-46410024D01*
X143086823Y-46458687D01*
X142961804Y-46471000D01*
X142878196Y-46471000D01*
X142753177Y-46458687D01*
X142592758Y-46410024D01*
X142444924Y-46331005D01*
X142444922Y-46331004D01*
X142315341Y-46224659D01*
X142208996Y-46095078D01*
X142200886Y-46079906D01*
X142129976Y-45947242D01*
X142081313Y-45786823D01*
X142064883Y-45620000D01*
X142081313Y-45453177D01*
X142129976Y-45292758D01*
X142208995Y-45144924D01*
X142208996Y-45144922D01*
X142315341Y-45015341D01*
X142444922Y-44908996D01*
X142460094Y-44900886D01*
X142592758Y-44829976D01*
X142753177Y-44781313D01*
X142878196Y-44769000D01*
X142961804Y-44769000D01*
X143086823Y-44781313D01*
X143086823Y-44781313D01*
G37*
G36*
X117686823Y-44781313D02*
G01*
X117847242Y-44829976D01*
X117979906Y-44900886D01*
X117995078Y-44908996D01*
X118124659Y-45015341D01*
X118231004Y-45144922D01*
X118231005Y-45144924D01*
X118310024Y-45292758D01*
X118358687Y-45453177D01*
X118375117Y-45620000D01*
X118358687Y-45786823D01*
X118310024Y-45947242D01*
X118239114Y-46079906D01*
X118231004Y-46095078D01*
X118124659Y-46224659D01*
X117995078Y-46331004D01*
X117995076Y-46331005D01*
X117847242Y-46410024D01*
X117686823Y-46458687D01*
X117561804Y-46471000D01*
X117478196Y-46471000D01*
X117353177Y-46458687D01*
X117192758Y-46410024D01*
X117044924Y-46331005D01*
X117044922Y-46331004D01*
X116915341Y-46224659D01*
X116808996Y-46095078D01*
X116800886Y-46079906D01*
X116729976Y-45947242D01*
X116681313Y-45786823D01*
X116664883Y-45620000D01*
X116681313Y-45453177D01*
X116729976Y-45292758D01*
X116808995Y-45144924D01*
X116808996Y-45144922D01*
X116915341Y-45015341D01*
X117044922Y-44908996D01*
X117060094Y-44900886D01*
X117192758Y-44829976D01*
X117353177Y-44781313D01*
X117478196Y-44769000D01*
X117561804Y-44769000D01*
X117686823Y-44781313D01*
X117686823Y-44781313D01*
G37*
G36*
X115146823Y-44781313D02*
G01*
X115307242Y-44829976D01*
X115439906Y-44900886D01*
X115455078Y-44908996D01*
X115584659Y-45015341D01*
X115691004Y-45144922D01*
X115691005Y-45144924D01*
X115770024Y-45292758D01*
X115818687Y-45453177D01*
X115835117Y-45620000D01*
X115818687Y-45786823D01*
X115770024Y-45947242D01*
X115699114Y-46079906D01*
X115691004Y-46095078D01*
X115584659Y-46224659D01*
X115455078Y-46331004D01*
X115455076Y-46331005D01*
X115307242Y-46410024D01*
X115146823Y-46458687D01*
X115021804Y-46471000D01*
X114938196Y-46471000D01*
X114813177Y-46458687D01*
X114652758Y-46410024D01*
X114504924Y-46331005D01*
X114504922Y-46331004D01*
X114375341Y-46224659D01*
X114268996Y-46095078D01*
X114260886Y-46079906D01*
X114189976Y-45947242D01*
X114141313Y-45786823D01*
X114124883Y-45620000D01*
X114141313Y-45453177D01*
X114189976Y-45292758D01*
X114268995Y-45144924D01*
X114268996Y-45144922D01*
X114375341Y-45015341D01*
X114504922Y-44908996D01*
X114520094Y-44900886D01*
X114652758Y-44829976D01*
X114813177Y-44781313D01*
X114938196Y-44769000D01*
X115021804Y-44769000D01*
X115146823Y-44781313D01*
X115146823Y-44781313D01*
G37*
G36*
X130386823Y-44781313D02*
G01*
X130547242Y-44829976D01*
X130679906Y-44900886D01*
X130695078Y-44908996D01*
X130824659Y-45015341D01*
X130931004Y-45144922D01*
X130931005Y-45144924D01*
X131010024Y-45292758D01*
X131058687Y-45453177D01*
X131075117Y-45620000D01*
X131058687Y-45786823D01*
X131010024Y-45947242D01*
X130939114Y-46079906D01*
X130931004Y-46095078D01*
X130824659Y-46224659D01*
X130695078Y-46331004D01*
X130695076Y-46331005D01*
X130547242Y-46410024D01*
X130386823Y-46458687D01*
X130261804Y-46471000D01*
X130178196Y-46471000D01*
X130053177Y-46458687D01*
X129892758Y-46410024D01*
X129744924Y-46331005D01*
X129744922Y-46331004D01*
X129615341Y-46224659D01*
X129508996Y-46095078D01*
X129500886Y-46079906D01*
X129429976Y-45947242D01*
X129381313Y-45786823D01*
X129364883Y-45620000D01*
X129381313Y-45453177D01*
X129429976Y-45292758D01*
X129508995Y-45144924D01*
X129508996Y-45144922D01*
X129615341Y-45015341D01*
X129744922Y-44908996D01*
X129760094Y-44900886D01*
X129892758Y-44829976D01*
X130053177Y-44781313D01*
X130178196Y-44769000D01*
X130261804Y-44769000D01*
X130386823Y-44781313D01*
X130386823Y-44781313D01*
G37*
G36*
X132926823Y-44781313D02*
G01*
X133087242Y-44829976D01*
X133219906Y-44900886D01*
X133235078Y-44908996D01*
X133364659Y-45015341D01*
X133471004Y-45144922D01*
X133471005Y-45144924D01*
X133550024Y-45292758D01*
X133598687Y-45453177D01*
X133615117Y-45620000D01*
X133598687Y-45786823D01*
X133550024Y-45947242D01*
X133479114Y-46079906D01*
X133471004Y-46095078D01*
X133364659Y-46224659D01*
X133235078Y-46331004D01*
X133235076Y-46331005D01*
X133087242Y-46410024D01*
X132926823Y-46458687D01*
X132801804Y-46471000D01*
X132718196Y-46471000D01*
X132593177Y-46458687D01*
X132432758Y-46410024D01*
X132284924Y-46331005D01*
X132284922Y-46331004D01*
X132155341Y-46224659D01*
X132048996Y-46095078D01*
X132040886Y-46079906D01*
X131969976Y-45947242D01*
X131921313Y-45786823D01*
X131904883Y-45620000D01*
X131921313Y-45453177D01*
X131969976Y-45292758D01*
X132048995Y-45144924D01*
X132048996Y-45144922D01*
X132155341Y-45015341D01*
X132284922Y-44908996D01*
X132300094Y-44900886D01*
X132432758Y-44829976D01*
X132593177Y-44781313D01*
X132718196Y-44769000D01*
X132801804Y-44769000D01*
X132926823Y-44781313D01*
X132926823Y-44781313D01*
G37*
G36*
X135466823Y-44781313D02*
G01*
X135627242Y-44829976D01*
X135759906Y-44900886D01*
X135775078Y-44908996D01*
X135904659Y-45015341D01*
X136011004Y-45144922D01*
X136011005Y-45144924D01*
X136090024Y-45292758D01*
X136138687Y-45453177D01*
X136155117Y-45620000D01*
X136138687Y-45786823D01*
X136090024Y-45947242D01*
X136019114Y-46079906D01*
X136011004Y-46095078D01*
X135904659Y-46224659D01*
X135775078Y-46331004D01*
X135775076Y-46331005D01*
X135627242Y-46410024D01*
X135466823Y-46458687D01*
X135341804Y-46471000D01*
X135258196Y-46471000D01*
X135133177Y-46458687D01*
X134972758Y-46410024D01*
X134824924Y-46331005D01*
X134824922Y-46331004D01*
X134695341Y-46224659D01*
X134588996Y-46095078D01*
X134580886Y-46079906D01*
X134509976Y-45947242D01*
X134461313Y-45786823D01*
X134444883Y-45620000D01*
X134461313Y-45453177D01*
X134509976Y-45292758D01*
X134588995Y-45144924D01*
X134588996Y-45144922D01*
X134695341Y-45015341D01*
X134824922Y-44908996D01*
X134840094Y-44900886D01*
X134972758Y-44829976D01*
X135133177Y-44781313D01*
X135258196Y-44769000D01*
X135341804Y-44769000D01*
X135466823Y-44781313D01*
X135466823Y-44781313D01*
G37*
G36*
X138006823Y-44781313D02*
G01*
X138167242Y-44829976D01*
X138299906Y-44900886D01*
X138315078Y-44908996D01*
X138444659Y-45015341D01*
X138551004Y-45144922D01*
X138551005Y-45144924D01*
X138630024Y-45292758D01*
X138678687Y-45453177D01*
X138695117Y-45620000D01*
X138678687Y-45786823D01*
X138630024Y-45947242D01*
X138559114Y-46079906D01*
X138551004Y-46095078D01*
X138444659Y-46224659D01*
X138315078Y-46331004D01*
X138315076Y-46331005D01*
X138167242Y-46410024D01*
X138006823Y-46458687D01*
X137881804Y-46471000D01*
X137798196Y-46471000D01*
X137673177Y-46458687D01*
X137512758Y-46410024D01*
X137364924Y-46331005D01*
X137364922Y-46331004D01*
X137235341Y-46224659D01*
X137128996Y-46095078D01*
X137120886Y-46079906D01*
X137049976Y-45947242D01*
X137001313Y-45786823D01*
X136984883Y-45620000D01*
X137001313Y-45453177D01*
X137049976Y-45292758D01*
X137128995Y-45144924D01*
X137128996Y-45144922D01*
X137235341Y-45015341D01*
X137364922Y-44908996D01*
X137380094Y-44900886D01*
X137512758Y-44829976D01*
X137673177Y-44781313D01*
X137798196Y-44769000D01*
X137881804Y-44769000D01*
X138006823Y-44781313D01*
X138006823Y-44781313D01*
G37*
G36*
X140546823Y-44781313D02*
G01*
X140707242Y-44829976D01*
X140839906Y-44900886D01*
X140855078Y-44908996D01*
X140984659Y-45015341D01*
X141091004Y-45144922D01*
X141091005Y-45144924D01*
X141170024Y-45292758D01*
X141218687Y-45453177D01*
X141235117Y-45620000D01*
X141218687Y-45786823D01*
X141170024Y-45947242D01*
X141099114Y-46079906D01*
X141091004Y-46095078D01*
X140984659Y-46224659D01*
X140855078Y-46331004D01*
X140855076Y-46331005D01*
X140707242Y-46410024D01*
X140546823Y-46458687D01*
X140421804Y-46471000D01*
X140338196Y-46471000D01*
X140213177Y-46458687D01*
X140052758Y-46410024D01*
X139904924Y-46331005D01*
X139904922Y-46331004D01*
X139775341Y-46224659D01*
X139668996Y-46095078D01*
X139660886Y-46079906D01*
X139589976Y-45947242D01*
X139541313Y-45786823D01*
X139524883Y-45620000D01*
X139541313Y-45453177D01*
X139589976Y-45292758D01*
X139668995Y-45144924D01*
X139668996Y-45144922D01*
X139775341Y-45015341D01*
X139904922Y-44908996D01*
X139920094Y-44900886D01*
X140052758Y-44829976D01*
X140213177Y-44781313D01*
X140338196Y-44769000D01*
X140421804Y-44769000D01*
X140546823Y-44781313D01*
X140546823Y-44781313D01*
G37*
G36*
X148851000Y-46471000D02*
G01*
X147149000Y-46471000D01*
X147149000Y-44769000D01*
X148851000Y-44769000D01*
X148851000Y-46471000D01*
X148851000Y-46471000D01*
G37*
G36*
X127846823Y-44781313D02*
G01*
X128007242Y-44829976D01*
X128139906Y-44900886D01*
X128155078Y-44908996D01*
X128284659Y-45015341D01*
X128391004Y-45144922D01*
X128391005Y-45144924D01*
X128470024Y-45292758D01*
X128518687Y-45453177D01*
X128535117Y-45620000D01*
X128518687Y-45786823D01*
X128470024Y-45947242D01*
X128399114Y-46079906D01*
X128391004Y-46095078D01*
X128284659Y-46224659D01*
X128155078Y-46331004D01*
X128155076Y-46331005D01*
X128007242Y-46410024D01*
X127846823Y-46458687D01*
X127721804Y-46471000D01*
X127638196Y-46471000D01*
X127513177Y-46458687D01*
X127352758Y-46410024D01*
X127204924Y-46331005D01*
X127204922Y-46331004D01*
X127075341Y-46224659D01*
X126968996Y-46095078D01*
X126960886Y-46079906D01*
X126889976Y-45947242D01*
X126841313Y-45786823D01*
X126824883Y-45620000D01*
X126841313Y-45453177D01*
X126889976Y-45292758D01*
X126968995Y-45144924D01*
X126968996Y-45144922D01*
X127075341Y-45015341D01*
X127204922Y-44908996D01*
X127220094Y-44900886D01*
X127352758Y-44829976D01*
X127513177Y-44781313D01*
X127638196Y-44769000D01*
X127721804Y-44769000D01*
X127846823Y-44781313D01*
X127846823Y-44781313D01*
G37*
G36*
X145626823Y-44781313D02*
G01*
X145787242Y-44829976D01*
X145919906Y-44900886D01*
X145935078Y-44908996D01*
X146064659Y-45015341D01*
X146171004Y-45144922D01*
X146171005Y-45144924D01*
X146250024Y-45292758D01*
X146298687Y-45453177D01*
X146315117Y-45620000D01*
X146298687Y-45786823D01*
X146250024Y-45947242D01*
X146179114Y-46079906D01*
X146171004Y-46095078D01*
X146064659Y-46224659D01*
X145935078Y-46331004D01*
X145935076Y-46331005D01*
X145787242Y-46410024D01*
X145626823Y-46458687D01*
X145501804Y-46471000D01*
X145418196Y-46471000D01*
X145293177Y-46458687D01*
X145132758Y-46410024D01*
X144984924Y-46331005D01*
X144984922Y-46331004D01*
X144855341Y-46224659D01*
X144748996Y-46095078D01*
X144740886Y-46079906D01*
X144669976Y-45947242D01*
X144621313Y-45786823D01*
X144604883Y-45620000D01*
X144621313Y-45453177D01*
X144669976Y-45292758D01*
X144748995Y-45144924D01*
X144748996Y-45144922D01*
X144855341Y-45015341D01*
X144984922Y-44908996D01*
X145000094Y-44900886D01*
X145132758Y-44829976D01*
X145293177Y-44781313D01*
X145418196Y-44769000D01*
X145501804Y-44769000D01*
X145626823Y-44781313D01*
X145626823Y-44781313D01*
G37*
G36*
X91102065Y-37478677D02*
G01*
X91388085Y-37565440D01*
X91488684Y-37595956D01*
X91844983Y-37786402D01*
X91844986Y-37786404D01*
X91844987Y-37786405D01*
X92157293Y-38042707D01*
X92390804Y-38327242D01*
X92413598Y-38355017D01*
X92604044Y-38711316D01*
X92604045Y-38711319D01*
X92721323Y-39097934D01*
X92737414Y-39261309D01*
X92751000Y-39399249D01*
X92751000Y-40600750D01*
X92741108Y-40701188D01*
X92721323Y-40902065D01*
X92634560Y-41188085D01*
X92604044Y-41288684D01*
X92413598Y-41644983D01*
X92413596Y-41644986D01*
X92413595Y-41644987D01*
X92157293Y-41957293D01*
X91844987Y-42213595D01*
X91844983Y-42213598D01*
X91488684Y-42404044D01*
X91488681Y-42404045D01*
X91102066Y-42521323D01*
X90700000Y-42560923D01*
X90297935Y-42521323D01*
X89911320Y-42404045D01*
X89911317Y-42404044D01*
X89555018Y-42213598D01*
X89555014Y-42213595D01*
X89242708Y-41957293D01*
X88986406Y-41644987D01*
X88986405Y-41644986D01*
X88986403Y-41644983D01*
X88795956Y-41288684D01*
X88682435Y-40914453D01*
X88678677Y-40902066D01*
X88649000Y-40600750D01*
X88649000Y-39399251D01*
X88649540Y-39393773D01*
X88662586Y-39261309D01*
X88678677Y-39097935D01*
X88795955Y-38711320D01*
X88795956Y-38711316D01*
X88986402Y-38355017D01*
X89009196Y-38327242D01*
X89242707Y-38042707D01*
X89555013Y-37786405D01*
X89555014Y-37786404D01*
X89555017Y-37786402D01*
X89911316Y-37595956D01*
X89911319Y-37595955D01*
X90297934Y-37478677D01*
X90700000Y-37439077D01*
X91102065Y-37478677D01*
X91102065Y-37478677D01*
G37*
G36*
X81702065Y-37478677D02*
G01*
X81988085Y-37565440D01*
X82088684Y-37595956D01*
X82444983Y-37786402D01*
X82444986Y-37786404D01*
X82444987Y-37786405D01*
X82757293Y-38042707D01*
X82990804Y-38327242D01*
X83013598Y-38355017D01*
X83204044Y-38711316D01*
X83204045Y-38711319D01*
X83321323Y-39097934D01*
X83337414Y-39261309D01*
X83351000Y-39399249D01*
X83351000Y-40600750D01*
X83341108Y-40701188D01*
X83321323Y-40902065D01*
X83234560Y-41188085D01*
X83204044Y-41288684D01*
X83013598Y-41644983D01*
X83013596Y-41644986D01*
X83013595Y-41644987D01*
X82757293Y-41957293D01*
X82444987Y-42213595D01*
X82444983Y-42213598D01*
X82088684Y-42404044D01*
X82088681Y-42404045D01*
X81702066Y-42521323D01*
X81300000Y-42560923D01*
X80897935Y-42521323D01*
X80511320Y-42404045D01*
X80511317Y-42404044D01*
X80155018Y-42213598D01*
X80155014Y-42213595D01*
X79842708Y-41957293D01*
X79586406Y-41644987D01*
X79586405Y-41644986D01*
X79586403Y-41644983D01*
X79395956Y-41288684D01*
X79282435Y-40914453D01*
X79278677Y-40902066D01*
X79249000Y-40600750D01*
X79249000Y-39399251D01*
X79249540Y-39393773D01*
X79262586Y-39261309D01*
X79278677Y-39097935D01*
X79395955Y-38711320D01*
X79395956Y-38711316D01*
X79586402Y-38355017D01*
X79609196Y-38327242D01*
X79842707Y-38042707D01*
X80155013Y-37786405D01*
X80155014Y-37786404D01*
X80155017Y-37786402D01*
X80511316Y-37595956D01*
X80511319Y-37595955D01*
X80897934Y-37478677D01*
X81300000Y-37439077D01*
X81702065Y-37478677D01*
X81702065Y-37478677D01*
G37*
G36*
X86402065Y-37478677D02*
G01*
X86688085Y-37565440D01*
X86788684Y-37595956D01*
X87144983Y-37786402D01*
X87144986Y-37786404D01*
X87144987Y-37786405D01*
X87457293Y-38042707D01*
X87690804Y-38327242D01*
X87713598Y-38355017D01*
X87904044Y-38711316D01*
X87904045Y-38711319D01*
X88021323Y-39097934D01*
X88037414Y-39261309D01*
X88051000Y-39399249D01*
X88051000Y-40600750D01*
X88041108Y-40701188D01*
X88021323Y-40902065D01*
X87934560Y-41188085D01*
X87904044Y-41288684D01*
X87713598Y-41644983D01*
X87713596Y-41644986D01*
X87713595Y-41644987D01*
X87457293Y-41957293D01*
X87144987Y-42213595D01*
X87144983Y-42213598D01*
X86788684Y-42404044D01*
X86788681Y-42404045D01*
X86402066Y-42521323D01*
X86000000Y-42560923D01*
X85597935Y-42521323D01*
X85211320Y-42404045D01*
X85211317Y-42404044D01*
X84855018Y-42213598D01*
X84855014Y-42213595D01*
X84542708Y-41957293D01*
X84286406Y-41644987D01*
X84286405Y-41644986D01*
X84286403Y-41644983D01*
X84095956Y-41288684D01*
X83982435Y-40914453D01*
X83978677Y-40902066D01*
X83949000Y-40600750D01*
X83949000Y-39399251D01*
X83949540Y-39393773D01*
X83962586Y-39261309D01*
X83978677Y-39097935D01*
X84095955Y-38711320D01*
X84095956Y-38711316D01*
X84286402Y-38355017D01*
X84309196Y-38327242D01*
X84542707Y-38042707D01*
X84855013Y-37786405D01*
X84855014Y-37786404D01*
X84855017Y-37786402D01*
X85211316Y-37595956D01*
X85211319Y-37595955D01*
X85597934Y-37478677D01*
X86000000Y-37439077D01*
X86402065Y-37478677D01*
X86402065Y-37478677D01*
G37*
G36*
X104547395Y-39085546D02*
G01*
X104720466Y-39157234D01*
X104720467Y-39157235D01*
X104876227Y-39261310D01*
X105008690Y-39393773D01*
X105012350Y-39399251D01*
X105112766Y-39549534D01*
X105184454Y-39722605D01*
X105221000Y-39906333D01*
X105221000Y-40093667D01*
X105184454Y-40277395D01*
X105112766Y-40450466D01*
X105112765Y-40450467D01*
X105008690Y-40606227D01*
X104876227Y-40738690D01*
X104797818Y-40791081D01*
X104720466Y-40842766D01*
X104547395Y-40914454D01*
X104363667Y-40951000D01*
X104176333Y-40951000D01*
X103992605Y-40914454D01*
X103819534Y-40842766D01*
X103742182Y-40791081D01*
X103663773Y-40738690D01*
X103531310Y-40606227D01*
X103427235Y-40450467D01*
X103427234Y-40450466D01*
X103355546Y-40277395D01*
X103319000Y-40093667D01*
X103319000Y-39906333D01*
X103355546Y-39722605D01*
X103427234Y-39549534D01*
X103527650Y-39399251D01*
X103531310Y-39393773D01*
X103663773Y-39261310D01*
X103819533Y-39157235D01*
X103819534Y-39157234D01*
X103992605Y-39085546D01*
X104176333Y-39049000D01*
X104363667Y-39049000D01*
X104547395Y-39085546D01*
X104547395Y-39085546D01*
G37*
G36*
X95681000Y-40951000D02*
G01*
X93779000Y-40951000D01*
X93779000Y-39049000D01*
X95681000Y-39049000D01*
X95681000Y-40951000D01*
X95681000Y-40951000D01*
G37*
G36*
X97547395Y-39085546D02*
G01*
X97720466Y-39157234D01*
X97720467Y-39157235D01*
X97876227Y-39261310D01*
X98008690Y-39393773D01*
X98012350Y-39399251D01*
X98112766Y-39549534D01*
X98184454Y-39722605D01*
X98221000Y-39906333D01*
X98221000Y-40093667D01*
X98184454Y-40277395D01*
X98112766Y-40450466D01*
X98112765Y-40450467D01*
X98008690Y-40606227D01*
X97876227Y-40738690D01*
X97797818Y-40791081D01*
X97720466Y-40842766D01*
X97547395Y-40914454D01*
X97363667Y-40951000D01*
X97176333Y-40951000D01*
X96992605Y-40914454D01*
X96819534Y-40842766D01*
X96742182Y-40791081D01*
X96663773Y-40738690D01*
X96531310Y-40606227D01*
X96427235Y-40450467D01*
X96427234Y-40450466D01*
X96355546Y-40277395D01*
X96319000Y-40093667D01*
X96319000Y-39906333D01*
X96355546Y-39722605D01*
X96427234Y-39549534D01*
X96527650Y-39399251D01*
X96531310Y-39393773D01*
X96663773Y-39261310D01*
X96819533Y-39157235D01*
X96819534Y-39157234D01*
X96992605Y-39085546D01*
X97176333Y-39049000D01*
X97363667Y-39049000D01*
X97547395Y-39085546D01*
X97547395Y-39085546D01*
G37*
G36*
X102681000Y-40951000D02*
G01*
X100779000Y-40951000D01*
X100779000Y-39049000D01*
X102681000Y-39049000D01*
X102681000Y-40951000D01*
X102681000Y-40951000D01*
G37*
G36*
X132926823Y-37161313D02*
G01*
X133087242Y-37209976D01*
X133219906Y-37280886D01*
X133235078Y-37288996D01*
X133364659Y-37395341D01*
X133471004Y-37524922D01*
X133471005Y-37524924D01*
X133550024Y-37672758D01*
X133598687Y-37833177D01*
X133615117Y-38000000D01*
X133598687Y-38166823D01*
X133550024Y-38327242D01*
X133479114Y-38459906D01*
X133471004Y-38475078D01*
X133364659Y-38604659D01*
X133235078Y-38711004D01*
X133235076Y-38711005D01*
X133087242Y-38790024D01*
X132926823Y-38838687D01*
X132801804Y-38851000D01*
X132718196Y-38851000D01*
X132593177Y-38838687D01*
X132432758Y-38790024D01*
X132284924Y-38711005D01*
X132284922Y-38711004D01*
X132155341Y-38604659D01*
X132048996Y-38475078D01*
X132040886Y-38459906D01*
X131969976Y-38327242D01*
X131921313Y-38166823D01*
X131904883Y-38000000D01*
X131921313Y-37833177D01*
X131969976Y-37672758D01*
X132048995Y-37524924D01*
X132048996Y-37524922D01*
X132155341Y-37395341D01*
X132284922Y-37288996D01*
X132300094Y-37280886D01*
X132432758Y-37209976D01*
X132593177Y-37161313D01*
X132718196Y-37149000D01*
X132801804Y-37149000D01*
X132926823Y-37161313D01*
X132926823Y-37161313D01*
G37*
G36*
X145626823Y-37161313D02*
G01*
X145787242Y-37209976D01*
X145919906Y-37280886D01*
X145935078Y-37288996D01*
X146064659Y-37395341D01*
X146171004Y-37524922D01*
X146171005Y-37524924D01*
X146250024Y-37672758D01*
X146298687Y-37833177D01*
X146315117Y-38000000D01*
X146298687Y-38166823D01*
X146250024Y-38327242D01*
X146179114Y-38459906D01*
X146171004Y-38475078D01*
X146064659Y-38604659D01*
X145935078Y-38711004D01*
X145935076Y-38711005D01*
X145787242Y-38790024D01*
X145626823Y-38838687D01*
X145501804Y-38851000D01*
X145418196Y-38851000D01*
X145293177Y-38838687D01*
X145132758Y-38790024D01*
X144984924Y-38711005D01*
X144984922Y-38711004D01*
X144855341Y-38604659D01*
X144748996Y-38475078D01*
X144740886Y-38459906D01*
X144669976Y-38327242D01*
X144621313Y-38166823D01*
X144604883Y-38000000D01*
X144621313Y-37833177D01*
X144669976Y-37672758D01*
X144748995Y-37524924D01*
X144748996Y-37524922D01*
X144855341Y-37395341D01*
X144984922Y-37288996D01*
X145000094Y-37280886D01*
X145132758Y-37209976D01*
X145293177Y-37161313D01*
X145418196Y-37149000D01*
X145501804Y-37149000D01*
X145626823Y-37161313D01*
X145626823Y-37161313D01*
G37*
G36*
X143086823Y-37161313D02*
G01*
X143247242Y-37209976D01*
X143379906Y-37280886D01*
X143395078Y-37288996D01*
X143524659Y-37395341D01*
X143631004Y-37524922D01*
X143631005Y-37524924D01*
X143710024Y-37672758D01*
X143758687Y-37833177D01*
X143775117Y-38000000D01*
X143758687Y-38166823D01*
X143710024Y-38327242D01*
X143639114Y-38459906D01*
X143631004Y-38475078D01*
X143524659Y-38604659D01*
X143395078Y-38711004D01*
X143395076Y-38711005D01*
X143247242Y-38790024D01*
X143086823Y-38838687D01*
X142961804Y-38851000D01*
X142878196Y-38851000D01*
X142753177Y-38838687D01*
X142592758Y-38790024D01*
X142444924Y-38711005D01*
X142444922Y-38711004D01*
X142315341Y-38604659D01*
X142208996Y-38475078D01*
X142200886Y-38459906D01*
X142129976Y-38327242D01*
X142081313Y-38166823D01*
X142064883Y-38000000D01*
X142081313Y-37833177D01*
X142129976Y-37672758D01*
X142208995Y-37524924D01*
X142208996Y-37524922D01*
X142315341Y-37395341D01*
X142444922Y-37288996D01*
X142460094Y-37280886D01*
X142592758Y-37209976D01*
X142753177Y-37161313D01*
X142878196Y-37149000D01*
X142961804Y-37149000D01*
X143086823Y-37161313D01*
X143086823Y-37161313D01*
G37*
G36*
X140546823Y-37161313D02*
G01*
X140707242Y-37209976D01*
X140839906Y-37280886D01*
X140855078Y-37288996D01*
X140984659Y-37395341D01*
X141091004Y-37524922D01*
X141091005Y-37524924D01*
X141170024Y-37672758D01*
X141218687Y-37833177D01*
X141235117Y-38000000D01*
X141218687Y-38166823D01*
X141170024Y-38327242D01*
X141099114Y-38459906D01*
X141091004Y-38475078D01*
X140984659Y-38604659D01*
X140855078Y-38711004D01*
X140855076Y-38711005D01*
X140707242Y-38790024D01*
X140546823Y-38838687D01*
X140421804Y-38851000D01*
X140338196Y-38851000D01*
X140213177Y-38838687D01*
X140052758Y-38790024D01*
X139904924Y-38711005D01*
X139904922Y-38711004D01*
X139775341Y-38604659D01*
X139668996Y-38475078D01*
X139660886Y-38459906D01*
X139589976Y-38327242D01*
X139541313Y-38166823D01*
X139524883Y-38000000D01*
X139541313Y-37833177D01*
X139589976Y-37672758D01*
X139668995Y-37524924D01*
X139668996Y-37524922D01*
X139775341Y-37395341D01*
X139904922Y-37288996D01*
X139920094Y-37280886D01*
X140052758Y-37209976D01*
X140213177Y-37161313D01*
X140338196Y-37149000D01*
X140421804Y-37149000D01*
X140546823Y-37161313D01*
X140546823Y-37161313D01*
G37*
G36*
X138006823Y-37161313D02*
G01*
X138167242Y-37209976D01*
X138299906Y-37280886D01*
X138315078Y-37288996D01*
X138444659Y-37395341D01*
X138551004Y-37524922D01*
X138551005Y-37524924D01*
X138630024Y-37672758D01*
X138678687Y-37833177D01*
X138695117Y-38000000D01*
X138678687Y-38166823D01*
X138630024Y-38327242D01*
X138559114Y-38459906D01*
X138551004Y-38475078D01*
X138444659Y-38604659D01*
X138315078Y-38711004D01*
X138315076Y-38711005D01*
X138167242Y-38790024D01*
X138006823Y-38838687D01*
X137881804Y-38851000D01*
X137798196Y-38851000D01*
X137673177Y-38838687D01*
X137512758Y-38790024D01*
X137364924Y-38711005D01*
X137364922Y-38711004D01*
X137235341Y-38604659D01*
X137128996Y-38475078D01*
X137120886Y-38459906D01*
X137049976Y-38327242D01*
X137001313Y-38166823D01*
X136984883Y-38000000D01*
X137001313Y-37833177D01*
X137049976Y-37672758D01*
X137128995Y-37524924D01*
X137128996Y-37524922D01*
X137235341Y-37395341D01*
X137364922Y-37288996D01*
X137380094Y-37280886D01*
X137512758Y-37209976D01*
X137673177Y-37161313D01*
X137798196Y-37149000D01*
X137881804Y-37149000D01*
X138006823Y-37161313D01*
X138006823Y-37161313D01*
G37*
G36*
X135466823Y-37161313D02*
G01*
X135627242Y-37209976D01*
X135759906Y-37280886D01*
X135775078Y-37288996D01*
X135904659Y-37395341D01*
X136011004Y-37524922D01*
X136011005Y-37524924D01*
X136090024Y-37672758D01*
X136138687Y-37833177D01*
X136155117Y-38000000D01*
X136138687Y-38166823D01*
X136090024Y-38327242D01*
X136019114Y-38459906D01*
X136011004Y-38475078D01*
X135904659Y-38604659D01*
X135775078Y-38711004D01*
X135775076Y-38711005D01*
X135627242Y-38790024D01*
X135466823Y-38838687D01*
X135341804Y-38851000D01*
X135258196Y-38851000D01*
X135133177Y-38838687D01*
X134972758Y-38790024D01*
X134824924Y-38711005D01*
X134824922Y-38711004D01*
X134695341Y-38604659D01*
X134588996Y-38475078D01*
X134580886Y-38459906D01*
X134509976Y-38327242D01*
X134461313Y-38166823D01*
X134444883Y-38000000D01*
X134461313Y-37833177D01*
X134509976Y-37672758D01*
X134588995Y-37524924D01*
X134588996Y-37524922D01*
X134695341Y-37395341D01*
X134824922Y-37288996D01*
X134840094Y-37280886D01*
X134972758Y-37209976D01*
X135133177Y-37161313D01*
X135258196Y-37149000D01*
X135341804Y-37149000D01*
X135466823Y-37161313D01*
X135466823Y-37161313D01*
G37*
G36*
X130386823Y-37161313D02*
G01*
X130547242Y-37209976D01*
X130679906Y-37280886D01*
X130695078Y-37288996D01*
X130824659Y-37395341D01*
X130931004Y-37524922D01*
X130931005Y-37524924D01*
X131010024Y-37672758D01*
X131058687Y-37833177D01*
X131075117Y-38000000D01*
X131058687Y-38166823D01*
X131010024Y-38327242D01*
X130939114Y-38459906D01*
X130931004Y-38475078D01*
X130824659Y-38604659D01*
X130695078Y-38711004D01*
X130695076Y-38711005D01*
X130547242Y-38790024D01*
X130386823Y-38838687D01*
X130261804Y-38851000D01*
X130178196Y-38851000D01*
X130053177Y-38838687D01*
X129892758Y-38790024D01*
X129744924Y-38711005D01*
X129744922Y-38711004D01*
X129615341Y-38604659D01*
X129508996Y-38475078D01*
X129500886Y-38459906D01*
X129429976Y-38327242D01*
X129381313Y-38166823D01*
X129364883Y-38000000D01*
X129381313Y-37833177D01*
X129429976Y-37672758D01*
X129508995Y-37524924D01*
X129508996Y-37524922D01*
X129615341Y-37395341D01*
X129744922Y-37288996D01*
X129760094Y-37280886D01*
X129892758Y-37209976D01*
X130053177Y-37161313D01*
X130178196Y-37149000D01*
X130261804Y-37149000D01*
X130386823Y-37161313D01*
X130386823Y-37161313D01*
G37*
G36*
X127846823Y-37161313D02*
G01*
X128007242Y-37209976D01*
X128139906Y-37280886D01*
X128155078Y-37288996D01*
X128284659Y-37395341D01*
X128391004Y-37524922D01*
X128391005Y-37524924D01*
X128470024Y-37672758D01*
X128518687Y-37833177D01*
X128535117Y-38000000D01*
X128518687Y-38166823D01*
X128470024Y-38327242D01*
X128399114Y-38459906D01*
X128391004Y-38475078D01*
X128284659Y-38604659D01*
X128155078Y-38711004D01*
X128155076Y-38711005D01*
X128007242Y-38790024D01*
X127846823Y-38838687D01*
X127721804Y-38851000D01*
X127638196Y-38851000D01*
X127513177Y-38838687D01*
X127352758Y-38790024D01*
X127204924Y-38711005D01*
X127204922Y-38711004D01*
X127075341Y-38604659D01*
X126968996Y-38475078D01*
X126960886Y-38459906D01*
X126889976Y-38327242D01*
X126841313Y-38166823D01*
X126824883Y-38000000D01*
X126841313Y-37833177D01*
X126889976Y-37672758D01*
X126968995Y-37524924D01*
X126968996Y-37524922D01*
X127075341Y-37395341D01*
X127204922Y-37288996D01*
X127220094Y-37280886D01*
X127352758Y-37209976D01*
X127513177Y-37161313D01*
X127638196Y-37149000D01*
X127721804Y-37149000D01*
X127846823Y-37161313D01*
X127846823Y-37161313D01*
G37*
G36*
X125306823Y-37161313D02*
G01*
X125467242Y-37209976D01*
X125599906Y-37280886D01*
X125615078Y-37288996D01*
X125744659Y-37395341D01*
X125851004Y-37524922D01*
X125851005Y-37524924D01*
X125930024Y-37672758D01*
X125978687Y-37833177D01*
X125995117Y-38000000D01*
X125978687Y-38166823D01*
X125930024Y-38327242D01*
X125859114Y-38459906D01*
X125851004Y-38475078D01*
X125744659Y-38604659D01*
X125615078Y-38711004D01*
X125615076Y-38711005D01*
X125467242Y-38790024D01*
X125306823Y-38838687D01*
X125181804Y-38851000D01*
X125098196Y-38851000D01*
X124973177Y-38838687D01*
X124812758Y-38790024D01*
X124664924Y-38711005D01*
X124664922Y-38711004D01*
X124535341Y-38604659D01*
X124428996Y-38475078D01*
X124420886Y-38459906D01*
X124349976Y-38327242D01*
X124301313Y-38166823D01*
X124284883Y-38000000D01*
X124301313Y-37833177D01*
X124349976Y-37672758D01*
X124428995Y-37524924D01*
X124428996Y-37524922D01*
X124535341Y-37395341D01*
X124664922Y-37288996D01*
X124680094Y-37280886D01*
X124812758Y-37209976D01*
X124973177Y-37161313D01*
X125098196Y-37149000D01*
X125181804Y-37149000D01*
X125306823Y-37161313D01*
X125306823Y-37161313D01*
G37*
G36*
X122766823Y-37161313D02*
G01*
X122927242Y-37209976D01*
X123059906Y-37280886D01*
X123075078Y-37288996D01*
X123204659Y-37395341D01*
X123311004Y-37524922D01*
X123311005Y-37524924D01*
X123390024Y-37672758D01*
X123438687Y-37833177D01*
X123455117Y-38000000D01*
X123438687Y-38166823D01*
X123390024Y-38327242D01*
X123319114Y-38459906D01*
X123311004Y-38475078D01*
X123204659Y-38604659D01*
X123075078Y-38711004D01*
X123075076Y-38711005D01*
X122927242Y-38790024D01*
X122766823Y-38838687D01*
X122641804Y-38851000D01*
X122558196Y-38851000D01*
X122433177Y-38838687D01*
X122272758Y-38790024D01*
X122124924Y-38711005D01*
X122124922Y-38711004D01*
X121995341Y-38604659D01*
X121888996Y-38475078D01*
X121880886Y-38459906D01*
X121809976Y-38327242D01*
X121761313Y-38166823D01*
X121744883Y-38000000D01*
X121761313Y-37833177D01*
X121809976Y-37672758D01*
X121888995Y-37524924D01*
X121888996Y-37524922D01*
X121995341Y-37395341D01*
X122124922Y-37288996D01*
X122140094Y-37280886D01*
X122272758Y-37209976D01*
X122433177Y-37161313D01*
X122558196Y-37149000D01*
X122641804Y-37149000D01*
X122766823Y-37161313D01*
X122766823Y-37161313D01*
G37*
G36*
X115146823Y-37161313D02*
G01*
X115307242Y-37209976D01*
X115439906Y-37280886D01*
X115455078Y-37288996D01*
X115584659Y-37395341D01*
X115691004Y-37524922D01*
X115691005Y-37524924D01*
X115770024Y-37672758D01*
X115818687Y-37833177D01*
X115835117Y-38000000D01*
X115818687Y-38166823D01*
X115770024Y-38327242D01*
X115699114Y-38459906D01*
X115691004Y-38475078D01*
X115584659Y-38604659D01*
X115455078Y-38711004D01*
X115455076Y-38711005D01*
X115307242Y-38790024D01*
X115146823Y-38838687D01*
X115021804Y-38851000D01*
X114938196Y-38851000D01*
X114813177Y-38838687D01*
X114652758Y-38790024D01*
X114504924Y-38711005D01*
X114504922Y-38711004D01*
X114375341Y-38604659D01*
X114268996Y-38475078D01*
X114260886Y-38459906D01*
X114189976Y-38327242D01*
X114141313Y-38166823D01*
X114124883Y-38000000D01*
X114141313Y-37833177D01*
X114189976Y-37672758D01*
X114268995Y-37524924D01*
X114268996Y-37524922D01*
X114375341Y-37395341D01*
X114504922Y-37288996D01*
X114520094Y-37280886D01*
X114652758Y-37209976D01*
X114813177Y-37161313D01*
X114938196Y-37149000D01*
X115021804Y-37149000D01*
X115146823Y-37161313D01*
X115146823Y-37161313D01*
G37*
G36*
X148166823Y-37161313D02*
G01*
X148327242Y-37209976D01*
X148459906Y-37280886D01*
X148475078Y-37288996D01*
X148604659Y-37395341D01*
X148711004Y-37524922D01*
X148711005Y-37524924D01*
X148790024Y-37672758D01*
X148838687Y-37833177D01*
X148855117Y-38000000D01*
X148838687Y-38166823D01*
X148790024Y-38327242D01*
X148719114Y-38459906D01*
X148711004Y-38475078D01*
X148604659Y-38604659D01*
X148475078Y-38711004D01*
X148475076Y-38711005D01*
X148327242Y-38790024D01*
X148166823Y-38838687D01*
X148041804Y-38851000D01*
X147958196Y-38851000D01*
X147833177Y-38838687D01*
X147672758Y-38790024D01*
X147524924Y-38711005D01*
X147524922Y-38711004D01*
X147395341Y-38604659D01*
X147288996Y-38475078D01*
X147280886Y-38459906D01*
X147209976Y-38327242D01*
X147161313Y-38166823D01*
X147144883Y-38000000D01*
X147161313Y-37833177D01*
X147209976Y-37672758D01*
X147288995Y-37524924D01*
X147288996Y-37524922D01*
X147395341Y-37395341D01*
X147524922Y-37288996D01*
X147540094Y-37280886D01*
X147672758Y-37209976D01*
X147833177Y-37161313D01*
X147958196Y-37149000D01*
X148041804Y-37149000D01*
X148166823Y-37161313D01*
X148166823Y-37161313D01*
G37*
G36*
X117686823Y-37161313D02*
G01*
X117847242Y-37209976D01*
X117979906Y-37280886D01*
X117995078Y-37288996D01*
X118124659Y-37395341D01*
X118231004Y-37524922D01*
X118231005Y-37524924D01*
X118310024Y-37672758D01*
X118358687Y-37833177D01*
X118375117Y-38000000D01*
X118358687Y-38166823D01*
X118310024Y-38327242D01*
X118239114Y-38459906D01*
X118231004Y-38475078D01*
X118124659Y-38604659D01*
X117995078Y-38711004D01*
X117995076Y-38711005D01*
X117847242Y-38790024D01*
X117686823Y-38838687D01*
X117561804Y-38851000D01*
X117478196Y-38851000D01*
X117353177Y-38838687D01*
X117192758Y-38790024D01*
X117044924Y-38711005D01*
X117044922Y-38711004D01*
X116915341Y-38604659D01*
X116808996Y-38475078D01*
X116800886Y-38459906D01*
X116729976Y-38327242D01*
X116681313Y-38166823D01*
X116664883Y-38000000D01*
X116681313Y-37833177D01*
X116729976Y-37672758D01*
X116808995Y-37524924D01*
X116808996Y-37524922D01*
X116915341Y-37395341D01*
X117044922Y-37288996D01*
X117060094Y-37280886D01*
X117192758Y-37209976D01*
X117353177Y-37161313D01*
X117478196Y-37149000D01*
X117561804Y-37149000D01*
X117686823Y-37161313D01*
X117686823Y-37161313D01*
G37*
G36*
X120226823Y-37161313D02*
G01*
X120387242Y-37209976D01*
X120519906Y-37280886D01*
X120535078Y-37288996D01*
X120664659Y-37395341D01*
X120771004Y-37524922D01*
X120771005Y-37524924D01*
X120850024Y-37672758D01*
X120898687Y-37833177D01*
X120915117Y-38000000D01*
X120898687Y-38166823D01*
X120850024Y-38327242D01*
X120779114Y-38459906D01*
X120771004Y-38475078D01*
X120664659Y-38604659D01*
X120535078Y-38711004D01*
X120535076Y-38711005D01*
X120387242Y-38790024D01*
X120226823Y-38838687D01*
X120101804Y-38851000D01*
X120018196Y-38851000D01*
X119893177Y-38838687D01*
X119732758Y-38790024D01*
X119584924Y-38711005D01*
X119584922Y-38711004D01*
X119455341Y-38604659D01*
X119348996Y-38475078D01*
X119340886Y-38459906D01*
X119269976Y-38327242D01*
X119221313Y-38166823D01*
X119204883Y-38000000D01*
X119221313Y-37833177D01*
X119269976Y-37672758D01*
X119348995Y-37524924D01*
X119348996Y-37524922D01*
X119455341Y-37395341D01*
X119584922Y-37288996D01*
X119600094Y-37280886D01*
X119732758Y-37209976D01*
X119893177Y-37161313D01*
X120018196Y-37149000D01*
X120101804Y-37149000D01*
X120226823Y-37161313D01*
X120226823Y-37161313D01*
G37*
G36*
X124302585Y-32478802D02*
G01*
X124452410Y-32508604D01*
X124734674Y-32625521D01*
X124988705Y-32795259D01*
X125204741Y-33011295D01*
X125374479Y-33265326D01*
X125491396Y-33547590D01*
X125551000Y-33847240D01*
X125551000Y-34152760D01*
X125491396Y-34452410D01*
X125374479Y-34734674D01*
X125204741Y-34988705D01*
X124988705Y-35204741D01*
X124734674Y-35374479D01*
X124452410Y-35491396D01*
X124302585Y-35521198D01*
X124152761Y-35551000D01*
X123847239Y-35551000D01*
X123697415Y-35521198D01*
X123547590Y-35491396D01*
X123265326Y-35374479D01*
X123011295Y-35204741D01*
X122795259Y-34988705D01*
X122625521Y-34734674D01*
X122508604Y-34452410D01*
X122449000Y-34152760D01*
X122449000Y-33847240D01*
X122508604Y-33547590D01*
X122625521Y-33265326D01*
X122795259Y-33011295D01*
X123011295Y-32795259D01*
X123265326Y-32625521D01*
X123547590Y-32508604D01*
X123697415Y-32478802D01*
X123847239Y-32449000D01*
X124152761Y-32449000D01*
X124302585Y-32478802D01*
X124302585Y-32478802D01*
G37*
G36*
X147375256Y-30391298D02*
G01*
X147481579Y-30412447D01*
X147782042Y-30536903D01*
X148052451Y-30717585D01*
X148282415Y-30947549D01*
X148463097Y-31217958D01*
X148587553Y-31518421D01*
X148593742Y-31549534D01*
X148651000Y-31837389D01*
X148651000Y-32162611D01*
X148608702Y-32375256D01*
X148593742Y-32450467D01*
X148587553Y-32481578D01*
X148466736Y-32773258D01*
X148463097Y-32782042D01*
X148282415Y-33052451D01*
X148052451Y-33282415D01*
X147782042Y-33463097D01*
X147481579Y-33587553D01*
X147375256Y-33608702D01*
X147162611Y-33651000D01*
X146837389Y-33651000D01*
X146624744Y-33608702D01*
X146518421Y-33587553D01*
X146217958Y-33463097D01*
X145947549Y-33282415D01*
X145717585Y-33052451D01*
X145536903Y-32782042D01*
X145533265Y-32773258D01*
X145412447Y-32481578D01*
X145406259Y-32450467D01*
X145391298Y-32375256D01*
X145349000Y-32162611D01*
X145349000Y-31837389D01*
X145406258Y-31549534D01*
X145412447Y-31518421D01*
X145536903Y-31217958D01*
X145717585Y-30947549D01*
X145947549Y-30717585D01*
X146217958Y-30536903D01*
X146518421Y-30412447D01*
X146624744Y-30391298D01*
X146837389Y-30349000D01*
X147162611Y-30349000D01*
X147375256Y-30391298D01*
X147375256Y-30391298D01*
G37*
G36*
X82375256Y-30391298D02*
G01*
X82481579Y-30412447D01*
X82782042Y-30536903D01*
X83052451Y-30717585D01*
X83282415Y-30947549D01*
X83463097Y-31217958D01*
X83587553Y-31518421D01*
X83593742Y-31549534D01*
X83651000Y-31837389D01*
X83651000Y-32162611D01*
X83608702Y-32375256D01*
X83593742Y-32450467D01*
X83587553Y-32481578D01*
X83466736Y-32773258D01*
X83463097Y-32782042D01*
X83282415Y-33052451D01*
X83052451Y-33282415D01*
X82782042Y-33463097D01*
X82481579Y-33587553D01*
X82375256Y-33608702D01*
X82162611Y-33651000D01*
X81837389Y-33651000D01*
X81624744Y-33608702D01*
X81518421Y-33587553D01*
X81217958Y-33463097D01*
X80947549Y-33282415D01*
X80717585Y-33052451D01*
X80536903Y-32782042D01*
X80533265Y-32773258D01*
X80412447Y-32481578D01*
X80406259Y-32450467D01*
X80391298Y-32375256D01*
X80349000Y-32162611D01*
X80349000Y-31837389D01*
X80406258Y-31549534D01*
X80412447Y-31518421D01*
X80536903Y-31217958D01*
X80717585Y-30947549D01*
X80947549Y-30717585D01*
X81217958Y-30536903D01*
X81518421Y-30412447D01*
X81624744Y-30391298D01*
X81837389Y-30349000D01*
X82162611Y-30349000D01*
X82375256Y-30391298D01*
X82375256Y-30391298D01*
G37*
G36*
X135140659Y-30611893D02*
G01*
X135274758Y-30652572D01*
X135398345Y-30718631D01*
X135506670Y-30807530D01*
X135595569Y-30915855D01*
X135661628Y-31039442D01*
X135702307Y-31173541D01*
X135712600Y-31278051D01*
X135712600Y-32668749D01*
X135702307Y-32773259D01*
X135661628Y-32907358D01*
X135595569Y-33030945D01*
X135506669Y-33139270D01*
X135398344Y-33228169D01*
X135274757Y-33294228D01*
X135140658Y-33334907D01*
X135001200Y-33348642D01*
X134861741Y-33334907D01*
X134727642Y-33294228D01*
X134604055Y-33228169D01*
X134495730Y-33139269D01*
X134406831Y-33030944D01*
X134340772Y-32907357D01*
X134300093Y-32773258D01*
X134289800Y-32668748D01*
X134289801Y-31278051D01*
X134300094Y-31173541D01*
X134340773Y-31039442D01*
X134406832Y-30915855D01*
X134495731Y-30807530D01*
X134604056Y-30718631D01*
X134727643Y-30652572D01*
X134861742Y-30611893D01*
X135001200Y-30598158D01*
X135140659Y-30611893D01*
X135140659Y-30611893D01*
G37*
G36*
X132640659Y-30611893D02*
G01*
X132774758Y-30652572D01*
X132898345Y-30718631D01*
X133006670Y-30807530D01*
X133095569Y-30915855D01*
X133161628Y-31039442D01*
X133202307Y-31173541D01*
X133212600Y-31278051D01*
X133212600Y-32668749D01*
X133202307Y-32773259D01*
X133161628Y-32907358D01*
X133095569Y-33030945D01*
X133006669Y-33139270D01*
X132898344Y-33228169D01*
X132774757Y-33294228D01*
X132640658Y-33334907D01*
X132501200Y-33348642D01*
X132361741Y-33334907D01*
X132227642Y-33294228D01*
X132104055Y-33228169D01*
X131995730Y-33139269D01*
X131906831Y-33030944D01*
X131840772Y-32907357D01*
X131800093Y-32773258D01*
X131789800Y-32668748D01*
X131789801Y-31278051D01*
X131800094Y-31173541D01*
X131840773Y-31039442D01*
X131906832Y-30915855D01*
X131995731Y-30807530D01*
X132104056Y-30718631D01*
X132227643Y-30652572D01*
X132361742Y-30611893D01*
X132501200Y-30598158D01*
X132640659Y-30611893D01*
X132640659Y-30611893D01*
G37*
G36*
X137640659Y-30611893D02*
G01*
X137774758Y-30652572D01*
X137898345Y-30718631D01*
X138006670Y-30807530D01*
X138095569Y-30915855D01*
X138161628Y-31039442D01*
X138202307Y-31173541D01*
X138212600Y-31278051D01*
X138212600Y-32668749D01*
X138202307Y-32773259D01*
X138161628Y-32907358D01*
X138095569Y-33030945D01*
X138006669Y-33139270D01*
X137898344Y-33228169D01*
X137774757Y-33294228D01*
X137640658Y-33334907D01*
X137501200Y-33348642D01*
X137361741Y-33334907D01*
X137227642Y-33294228D01*
X137104055Y-33228169D01*
X136995730Y-33139269D01*
X136906831Y-33030944D01*
X136840772Y-32907357D01*
X136800093Y-32773258D01*
X136789800Y-32668748D01*
X136789801Y-31278051D01*
X136800094Y-31173541D01*
X136840773Y-31039442D01*
X136906832Y-30915855D01*
X136995731Y-30807530D01*
X137104056Y-30718631D01*
X137227643Y-30652572D01*
X137361742Y-30611893D01*
X137501200Y-30598158D01*
X137640659Y-30611893D01*
X137640659Y-30611893D01*
G37*
G36*
X128681000Y-32951000D02*
G01*
X126779000Y-32951000D01*
X126779000Y-31049000D01*
X128681000Y-31049000D01*
X128681000Y-32951000D01*
X128681000Y-32951000D01*
G37*
G36*
X130547395Y-31085546D02*
G01*
X130720466Y-31157234D01*
X130720467Y-31157235D01*
X130876227Y-31261310D01*
X131008690Y-31393773D01*
X131008691Y-31393775D01*
X131112766Y-31549534D01*
X131184454Y-31722605D01*
X131221000Y-31906333D01*
X131221000Y-32093667D01*
X131184454Y-32277395D01*
X131112766Y-32450466D01*
X131091977Y-32481579D01*
X131008690Y-32606227D01*
X130876227Y-32738690D01*
X130811349Y-32782040D01*
X130720466Y-32842766D01*
X130547395Y-32914454D01*
X130363667Y-32951000D01*
X130176333Y-32951000D01*
X129992605Y-32914454D01*
X129819534Y-32842766D01*
X129728651Y-32782040D01*
X129663773Y-32738690D01*
X129531310Y-32606227D01*
X129448023Y-32481579D01*
X129427234Y-32450466D01*
X129355546Y-32277395D01*
X129319000Y-32093667D01*
X129319000Y-31906333D01*
X129355546Y-31722605D01*
X129427234Y-31549534D01*
X129531309Y-31393775D01*
X129531310Y-31393773D01*
X129663773Y-31261310D01*
X129819533Y-31157235D01*
X129819534Y-31157234D01*
X129992605Y-31085546D01*
X130176333Y-31049000D01*
X130363667Y-31049000D01*
X130547395Y-31085546D01*
X130547395Y-31085546D01*
G37*
M02*
