G04 #@! TF.GenerationSoftware,KiCad,Pcbnew,5.1.4-e60b266~84~ubuntu18.04.1*
G04 #@! TF.CreationDate,2019-08-08T16:59:36+02:00*
G04 #@! TF.ProjectId,ESP-Multiio,4553502d-4d75-46c7-9469-696f2e6b6963,rev?*
G04 #@! TF.SameCoordinates,Original*
G04 #@! TF.FileFunction,Soldermask,Top*
G04 #@! TF.FilePolarity,Negative*
%FSLAX46Y46*%
G04 Gerber Fmt 4.6, Leading zero omitted, Abs format (unit mm)*
G04 Created by KiCad (PCBNEW 5.1.4-e60b266~84~ubuntu18.04.1) date 2019-08-08 16:59:36*
%MOMM*%
%LPD*%
G04 APERTURE LIST*
%ADD10C,0.050000*%
%ADD11C,0.100000*%
G04 APERTURE END LIST*
D10*
X152000000Y-95000000D02*
X77000000Y-95000000D01*
X152000000Y-27000000D02*
X152000000Y-95000000D01*
X77000000Y-27000000D02*
X152000000Y-27000000D01*
X77000000Y-27000000D02*
X77000000Y-95000000D01*
D11*
G36*
X103810442Y-91105518D02*
G01*
X103876627Y-91112037D01*
X104046466Y-91163557D01*
X104202991Y-91247222D01*
X104238729Y-91276552D01*
X104340186Y-91359814D01*
X104423448Y-91461271D01*
X104452778Y-91497009D01*
X104536443Y-91653534D01*
X104587963Y-91823373D01*
X104605359Y-92000000D01*
X104587963Y-92176627D01*
X104536443Y-92346466D01*
X104452778Y-92502991D01*
X104423448Y-92538729D01*
X104340186Y-92640186D01*
X104238729Y-92723448D01*
X104202991Y-92752778D01*
X104046466Y-92836443D01*
X103876627Y-92887963D01*
X103810443Y-92894481D01*
X103744260Y-92901000D01*
X103655740Y-92901000D01*
X103589557Y-92894481D01*
X103523373Y-92887963D01*
X103353534Y-92836443D01*
X103197009Y-92752778D01*
X103161271Y-92723448D01*
X103059814Y-92640186D01*
X102976552Y-92538729D01*
X102947222Y-92502991D01*
X102863557Y-92346466D01*
X102812037Y-92176627D01*
X102794641Y-92000000D01*
X102812037Y-91823373D01*
X102863557Y-91653534D01*
X102947222Y-91497009D01*
X102976552Y-91461271D01*
X103059814Y-91359814D01*
X103161271Y-91276552D01*
X103197009Y-91247222D01*
X103353534Y-91163557D01*
X103523373Y-91112037D01*
X103589558Y-91105518D01*
X103655740Y-91099000D01*
X103744260Y-91099000D01*
X103810442Y-91105518D01*
X103810442Y-91105518D01*
G37*
G36*
X91901000Y-92901000D02*
G01*
X90099000Y-92901000D01*
X90099000Y-91099000D01*
X91901000Y-91099000D01*
X91901000Y-92901000D01*
X91901000Y-92901000D01*
G37*
G36*
X93650442Y-91105518D02*
G01*
X93716627Y-91112037D01*
X93886466Y-91163557D01*
X94042991Y-91247222D01*
X94078729Y-91276552D01*
X94180186Y-91359814D01*
X94263448Y-91461271D01*
X94292778Y-91497009D01*
X94376443Y-91653534D01*
X94427963Y-91823373D01*
X94445359Y-92000000D01*
X94427963Y-92176627D01*
X94376443Y-92346466D01*
X94292778Y-92502991D01*
X94263448Y-92538729D01*
X94180186Y-92640186D01*
X94078729Y-92723448D01*
X94042991Y-92752778D01*
X93886466Y-92836443D01*
X93716627Y-92887963D01*
X93650443Y-92894481D01*
X93584260Y-92901000D01*
X93495740Y-92901000D01*
X93429557Y-92894481D01*
X93363373Y-92887963D01*
X93193534Y-92836443D01*
X93037009Y-92752778D01*
X93001271Y-92723448D01*
X92899814Y-92640186D01*
X92816552Y-92538729D01*
X92787222Y-92502991D01*
X92703557Y-92346466D01*
X92652037Y-92176627D01*
X92634641Y-92000000D01*
X92652037Y-91823373D01*
X92703557Y-91653534D01*
X92787222Y-91497009D01*
X92816552Y-91461271D01*
X92899814Y-91359814D01*
X93001271Y-91276552D01*
X93037009Y-91247222D01*
X93193534Y-91163557D01*
X93363373Y-91112037D01*
X93429558Y-91105518D01*
X93495740Y-91099000D01*
X93584260Y-91099000D01*
X93650442Y-91105518D01*
X93650442Y-91105518D01*
G37*
G36*
X96190442Y-91105518D02*
G01*
X96256627Y-91112037D01*
X96426466Y-91163557D01*
X96582991Y-91247222D01*
X96618729Y-91276552D01*
X96720186Y-91359814D01*
X96803448Y-91461271D01*
X96832778Y-91497009D01*
X96916443Y-91653534D01*
X96967963Y-91823373D01*
X96985359Y-92000000D01*
X96967963Y-92176627D01*
X96916443Y-92346466D01*
X96832778Y-92502991D01*
X96803448Y-92538729D01*
X96720186Y-92640186D01*
X96618729Y-92723448D01*
X96582991Y-92752778D01*
X96426466Y-92836443D01*
X96256627Y-92887963D01*
X96190443Y-92894481D01*
X96124260Y-92901000D01*
X96035740Y-92901000D01*
X95969557Y-92894481D01*
X95903373Y-92887963D01*
X95733534Y-92836443D01*
X95577009Y-92752778D01*
X95541271Y-92723448D01*
X95439814Y-92640186D01*
X95356552Y-92538729D01*
X95327222Y-92502991D01*
X95243557Y-92346466D01*
X95192037Y-92176627D01*
X95174641Y-92000000D01*
X95192037Y-91823373D01*
X95243557Y-91653534D01*
X95327222Y-91497009D01*
X95356552Y-91461271D01*
X95439814Y-91359814D01*
X95541271Y-91276552D01*
X95577009Y-91247222D01*
X95733534Y-91163557D01*
X95903373Y-91112037D01*
X95969558Y-91105518D01*
X96035740Y-91099000D01*
X96124260Y-91099000D01*
X96190442Y-91105518D01*
X96190442Y-91105518D01*
G37*
G36*
X98730442Y-91105518D02*
G01*
X98796627Y-91112037D01*
X98966466Y-91163557D01*
X99122991Y-91247222D01*
X99158729Y-91276552D01*
X99260186Y-91359814D01*
X99343448Y-91461271D01*
X99372778Y-91497009D01*
X99456443Y-91653534D01*
X99507963Y-91823373D01*
X99525359Y-92000000D01*
X99507963Y-92176627D01*
X99456443Y-92346466D01*
X99372778Y-92502991D01*
X99343448Y-92538729D01*
X99260186Y-92640186D01*
X99158729Y-92723448D01*
X99122991Y-92752778D01*
X98966466Y-92836443D01*
X98796627Y-92887963D01*
X98730443Y-92894481D01*
X98664260Y-92901000D01*
X98575740Y-92901000D01*
X98509557Y-92894481D01*
X98443373Y-92887963D01*
X98273534Y-92836443D01*
X98117009Y-92752778D01*
X98081271Y-92723448D01*
X97979814Y-92640186D01*
X97896552Y-92538729D01*
X97867222Y-92502991D01*
X97783557Y-92346466D01*
X97732037Y-92176627D01*
X97714641Y-92000000D01*
X97732037Y-91823373D01*
X97783557Y-91653534D01*
X97867222Y-91497009D01*
X97896552Y-91461271D01*
X97979814Y-91359814D01*
X98081271Y-91276552D01*
X98117009Y-91247222D01*
X98273534Y-91163557D01*
X98443373Y-91112037D01*
X98509558Y-91105518D01*
X98575740Y-91099000D01*
X98664260Y-91099000D01*
X98730442Y-91105518D01*
X98730442Y-91105518D01*
G37*
G36*
X101270442Y-91105518D02*
G01*
X101336627Y-91112037D01*
X101506466Y-91163557D01*
X101662991Y-91247222D01*
X101698729Y-91276552D01*
X101800186Y-91359814D01*
X101883448Y-91461271D01*
X101912778Y-91497009D01*
X101996443Y-91653534D01*
X102047963Y-91823373D01*
X102065359Y-92000000D01*
X102047963Y-92176627D01*
X101996443Y-92346466D01*
X101912778Y-92502991D01*
X101883448Y-92538729D01*
X101800186Y-92640186D01*
X101698729Y-92723448D01*
X101662991Y-92752778D01*
X101506466Y-92836443D01*
X101336627Y-92887963D01*
X101270443Y-92894481D01*
X101204260Y-92901000D01*
X101115740Y-92901000D01*
X101049557Y-92894481D01*
X100983373Y-92887963D01*
X100813534Y-92836443D01*
X100657009Y-92752778D01*
X100621271Y-92723448D01*
X100519814Y-92640186D01*
X100436552Y-92538729D01*
X100407222Y-92502991D01*
X100323557Y-92346466D01*
X100272037Y-92176627D01*
X100254641Y-92000000D01*
X100272037Y-91823373D01*
X100323557Y-91653534D01*
X100407222Y-91497009D01*
X100436552Y-91461271D01*
X100519814Y-91359814D01*
X100621271Y-91276552D01*
X100657009Y-91247222D01*
X100813534Y-91163557D01*
X100983373Y-91112037D01*
X101049558Y-91105518D01*
X101115740Y-91099000D01*
X101204260Y-91099000D01*
X101270442Y-91105518D01*
X101270442Y-91105518D01*
G37*
G36*
X111430442Y-91105518D02*
G01*
X111496627Y-91112037D01*
X111666466Y-91163557D01*
X111822991Y-91247222D01*
X111858729Y-91276552D01*
X111960186Y-91359814D01*
X112043448Y-91461271D01*
X112072778Y-91497009D01*
X112156443Y-91653534D01*
X112207963Y-91823373D01*
X112225359Y-92000000D01*
X112207963Y-92176627D01*
X112156443Y-92346466D01*
X112072778Y-92502991D01*
X112043448Y-92538729D01*
X111960186Y-92640186D01*
X111858729Y-92723448D01*
X111822991Y-92752778D01*
X111666466Y-92836443D01*
X111496627Y-92887963D01*
X111430443Y-92894481D01*
X111364260Y-92901000D01*
X111275740Y-92901000D01*
X111209557Y-92894481D01*
X111143373Y-92887963D01*
X110973534Y-92836443D01*
X110817009Y-92752778D01*
X110781271Y-92723448D01*
X110679814Y-92640186D01*
X110596552Y-92538729D01*
X110567222Y-92502991D01*
X110483557Y-92346466D01*
X110432037Y-92176627D01*
X110414641Y-92000000D01*
X110432037Y-91823373D01*
X110483557Y-91653534D01*
X110567222Y-91497009D01*
X110596552Y-91461271D01*
X110679814Y-91359814D01*
X110781271Y-91276552D01*
X110817009Y-91247222D01*
X110973534Y-91163557D01*
X111143373Y-91112037D01*
X111209558Y-91105518D01*
X111275740Y-91099000D01*
X111364260Y-91099000D01*
X111430442Y-91105518D01*
X111430442Y-91105518D01*
G37*
G36*
X113970442Y-91105518D02*
G01*
X114036627Y-91112037D01*
X114206466Y-91163557D01*
X114362991Y-91247222D01*
X114398729Y-91276552D01*
X114500186Y-91359814D01*
X114583448Y-91461271D01*
X114612778Y-91497009D01*
X114696443Y-91653534D01*
X114747963Y-91823373D01*
X114765359Y-92000000D01*
X114747963Y-92176627D01*
X114696443Y-92346466D01*
X114612778Y-92502991D01*
X114583448Y-92538729D01*
X114500186Y-92640186D01*
X114398729Y-92723448D01*
X114362991Y-92752778D01*
X114206466Y-92836443D01*
X114036627Y-92887963D01*
X113970443Y-92894481D01*
X113904260Y-92901000D01*
X113815740Y-92901000D01*
X113749557Y-92894481D01*
X113683373Y-92887963D01*
X113513534Y-92836443D01*
X113357009Y-92752778D01*
X113321271Y-92723448D01*
X113219814Y-92640186D01*
X113136552Y-92538729D01*
X113107222Y-92502991D01*
X113023557Y-92346466D01*
X112972037Y-92176627D01*
X112954641Y-92000000D01*
X112972037Y-91823373D01*
X113023557Y-91653534D01*
X113107222Y-91497009D01*
X113136552Y-91461271D01*
X113219814Y-91359814D01*
X113321271Y-91276552D01*
X113357009Y-91247222D01*
X113513534Y-91163557D01*
X113683373Y-91112037D01*
X113749558Y-91105518D01*
X113815740Y-91099000D01*
X113904260Y-91099000D01*
X113970442Y-91105518D01*
X113970442Y-91105518D01*
G37*
G36*
X106350442Y-91105518D02*
G01*
X106416627Y-91112037D01*
X106586466Y-91163557D01*
X106742991Y-91247222D01*
X106778729Y-91276552D01*
X106880186Y-91359814D01*
X106963448Y-91461271D01*
X106992778Y-91497009D01*
X107076443Y-91653534D01*
X107127963Y-91823373D01*
X107145359Y-92000000D01*
X107127963Y-92176627D01*
X107076443Y-92346466D01*
X106992778Y-92502991D01*
X106963448Y-92538729D01*
X106880186Y-92640186D01*
X106778729Y-92723448D01*
X106742991Y-92752778D01*
X106586466Y-92836443D01*
X106416627Y-92887963D01*
X106350443Y-92894481D01*
X106284260Y-92901000D01*
X106195740Y-92901000D01*
X106129557Y-92894481D01*
X106063373Y-92887963D01*
X105893534Y-92836443D01*
X105737009Y-92752778D01*
X105701271Y-92723448D01*
X105599814Y-92640186D01*
X105516552Y-92538729D01*
X105487222Y-92502991D01*
X105403557Y-92346466D01*
X105352037Y-92176627D01*
X105334641Y-92000000D01*
X105352037Y-91823373D01*
X105403557Y-91653534D01*
X105487222Y-91497009D01*
X105516552Y-91461271D01*
X105599814Y-91359814D01*
X105701271Y-91276552D01*
X105737009Y-91247222D01*
X105893534Y-91163557D01*
X106063373Y-91112037D01*
X106129558Y-91105518D01*
X106195740Y-91099000D01*
X106284260Y-91099000D01*
X106350442Y-91105518D01*
X106350442Y-91105518D01*
G37*
G36*
X108890442Y-91105518D02*
G01*
X108956627Y-91112037D01*
X109126466Y-91163557D01*
X109282991Y-91247222D01*
X109318729Y-91276552D01*
X109420186Y-91359814D01*
X109503448Y-91461271D01*
X109532778Y-91497009D01*
X109616443Y-91653534D01*
X109667963Y-91823373D01*
X109685359Y-92000000D01*
X109667963Y-92176627D01*
X109616443Y-92346466D01*
X109532778Y-92502991D01*
X109503448Y-92538729D01*
X109420186Y-92640186D01*
X109318729Y-92723448D01*
X109282991Y-92752778D01*
X109126466Y-92836443D01*
X108956627Y-92887963D01*
X108890443Y-92894481D01*
X108824260Y-92901000D01*
X108735740Y-92901000D01*
X108669557Y-92894481D01*
X108603373Y-92887963D01*
X108433534Y-92836443D01*
X108277009Y-92752778D01*
X108241271Y-92723448D01*
X108139814Y-92640186D01*
X108056552Y-92538729D01*
X108027222Y-92502991D01*
X107943557Y-92346466D01*
X107892037Y-92176627D01*
X107874641Y-92000000D01*
X107892037Y-91823373D01*
X107943557Y-91653534D01*
X108027222Y-91497009D01*
X108056552Y-91461271D01*
X108139814Y-91359814D01*
X108241271Y-91276552D01*
X108277009Y-91247222D01*
X108433534Y-91163557D01*
X108603373Y-91112037D01*
X108669558Y-91105518D01*
X108735740Y-91099000D01*
X108824260Y-91099000D01*
X108890442Y-91105518D01*
X108890442Y-91105518D01*
G37*
G36*
X147375256Y-88391298D02*
G01*
X147481579Y-88412447D01*
X147782042Y-88536903D01*
X148052451Y-88717585D01*
X148282415Y-88947549D01*
X148463097Y-89217958D01*
X148587553Y-89518421D01*
X148651000Y-89837391D01*
X148651000Y-90162609D01*
X148587553Y-90481579D01*
X148463097Y-90782042D01*
X148282415Y-91052451D01*
X148052451Y-91282415D01*
X147782042Y-91463097D01*
X147481579Y-91587553D01*
X147375256Y-91608702D01*
X147162611Y-91651000D01*
X146837389Y-91651000D01*
X146624744Y-91608702D01*
X146518421Y-91587553D01*
X146217958Y-91463097D01*
X145947549Y-91282415D01*
X145717585Y-91052451D01*
X145536903Y-90782042D01*
X145412447Y-90481579D01*
X145349000Y-90162609D01*
X145349000Y-89837391D01*
X145412447Y-89518421D01*
X145536903Y-89217958D01*
X145717585Y-88947549D01*
X145947549Y-88717585D01*
X146217958Y-88536903D01*
X146518421Y-88412447D01*
X146624744Y-88391298D01*
X146837389Y-88349000D01*
X147162611Y-88349000D01*
X147375256Y-88391298D01*
X147375256Y-88391298D01*
G37*
G36*
X84375256Y-88391298D02*
G01*
X84481579Y-88412447D01*
X84782042Y-88536903D01*
X85052451Y-88717585D01*
X85282415Y-88947549D01*
X85463097Y-89217958D01*
X85587553Y-89518421D01*
X85651000Y-89837391D01*
X85651000Y-90162609D01*
X85587553Y-90481579D01*
X85463097Y-90782042D01*
X85282415Y-91052451D01*
X85052451Y-91282415D01*
X84782042Y-91463097D01*
X84481579Y-91587553D01*
X84375256Y-91608702D01*
X84162611Y-91651000D01*
X83837389Y-91651000D01*
X83624744Y-91608702D01*
X83518421Y-91587553D01*
X83217958Y-91463097D01*
X82947549Y-91282415D01*
X82717585Y-91052451D01*
X82536903Y-90782042D01*
X82412447Y-90481579D01*
X82349000Y-90162609D01*
X82349000Y-89837391D01*
X82412447Y-89518421D01*
X82536903Y-89217958D01*
X82717585Y-88947549D01*
X82947549Y-88717585D01*
X83217958Y-88536903D01*
X83518421Y-88412447D01*
X83624744Y-88391298D01*
X83837389Y-88349000D01*
X84162611Y-88349000D01*
X84375256Y-88391298D01*
X84375256Y-88391298D01*
G37*
G36*
X144610443Y-84425519D02*
G01*
X144676627Y-84432037D01*
X144846466Y-84483557D01*
X145002991Y-84567222D01*
X145038729Y-84596552D01*
X145140186Y-84679814D01*
X145223448Y-84781271D01*
X145252778Y-84817009D01*
X145336443Y-84973534D01*
X145387963Y-85143373D01*
X145405359Y-85320000D01*
X145387963Y-85496627D01*
X145336443Y-85666466D01*
X145252778Y-85822991D01*
X145229791Y-85851000D01*
X145140186Y-85960186D01*
X145038729Y-86043448D01*
X145002991Y-86072778D01*
X144846466Y-86156443D01*
X144676627Y-86207963D01*
X144610442Y-86214482D01*
X144544260Y-86221000D01*
X144455740Y-86221000D01*
X144389558Y-86214482D01*
X144323373Y-86207963D01*
X144153534Y-86156443D01*
X143997009Y-86072778D01*
X143961271Y-86043448D01*
X143859814Y-85960186D01*
X143770209Y-85851000D01*
X143747222Y-85822991D01*
X143663557Y-85666466D01*
X143612037Y-85496627D01*
X143594641Y-85320000D01*
X143612037Y-85143373D01*
X143663557Y-84973534D01*
X143747222Y-84817009D01*
X143776552Y-84781271D01*
X143859814Y-84679814D01*
X143961271Y-84596552D01*
X143997009Y-84567222D01*
X144153534Y-84483557D01*
X144323373Y-84432037D01*
X144389557Y-84425519D01*
X144455740Y-84419000D01*
X144544260Y-84419000D01*
X144610443Y-84425519D01*
X144610443Y-84425519D01*
G37*
G36*
X118451000Y-86051000D02*
G01*
X116349000Y-86051000D01*
X116349000Y-83949000D01*
X118451000Y-83949000D01*
X118451000Y-86051000D01*
X118451000Y-86051000D01*
G37*
G36*
X140626823Y-84161313D02*
G01*
X140787242Y-84209976D01*
X140919906Y-84280886D01*
X140935078Y-84288996D01*
X141064659Y-84395341D01*
X141171004Y-84524922D01*
X141171005Y-84524924D01*
X141250024Y-84672758D01*
X141250025Y-84672761D01*
X141252165Y-84679815D01*
X141298687Y-84833177D01*
X141315117Y-85000000D01*
X141298687Y-85166823D01*
X141250024Y-85327242D01*
X141179114Y-85459906D01*
X141171004Y-85475078D01*
X141064659Y-85604659D01*
X140935078Y-85711004D01*
X140935076Y-85711005D01*
X140787242Y-85790024D01*
X140626823Y-85838687D01*
X140501804Y-85851000D01*
X140018196Y-85851000D01*
X139893177Y-85838687D01*
X139732758Y-85790024D01*
X139584924Y-85711005D01*
X139584922Y-85711004D01*
X139455341Y-85604659D01*
X139348996Y-85475078D01*
X139340886Y-85459906D01*
X139269976Y-85327242D01*
X139221313Y-85166823D01*
X139204883Y-85000000D01*
X139221313Y-84833177D01*
X139267835Y-84679815D01*
X139269975Y-84672761D01*
X139269976Y-84672758D01*
X139348995Y-84524924D01*
X139348996Y-84524922D01*
X139455341Y-84395341D01*
X139584922Y-84288996D01*
X139600094Y-84280886D01*
X139732758Y-84209976D01*
X139893177Y-84161313D01*
X140018196Y-84149000D01*
X140501804Y-84149000D01*
X140626823Y-84161313D01*
X140626823Y-84161313D01*
G37*
G36*
X91102065Y-79478677D02*
G01*
X91388085Y-79565440D01*
X91488684Y-79595956D01*
X91844983Y-79786402D01*
X91844986Y-79786404D01*
X91844987Y-79786405D01*
X92157293Y-80042707D01*
X92413595Y-80355013D01*
X92413598Y-80355017D01*
X92604044Y-80711316D01*
X92604045Y-80711319D01*
X92721323Y-81097934D01*
X92737414Y-81261309D01*
X92751000Y-81399249D01*
X92751000Y-82600750D01*
X92748432Y-82626823D01*
X92721323Y-82902065D01*
X92639741Y-83171005D01*
X92604044Y-83288684D01*
X92413598Y-83644983D01*
X92413596Y-83644986D01*
X92413595Y-83644987D01*
X92157293Y-83957293D01*
X91844987Y-84213595D01*
X91844983Y-84213598D01*
X91488684Y-84404044D01*
X91488681Y-84404045D01*
X91102066Y-84521323D01*
X90700000Y-84560923D01*
X90297935Y-84521323D01*
X89911320Y-84404045D01*
X89911317Y-84404044D01*
X89555018Y-84213598D01*
X89555014Y-84213595D01*
X89242708Y-83957293D01*
X88986406Y-83644987D01*
X88986405Y-83644986D01*
X88986403Y-83644983D01*
X88795956Y-83288684D01*
X88784229Y-83250024D01*
X88678677Y-82902066D01*
X88649539Y-82606225D01*
X88649000Y-82600751D01*
X88649000Y-81399250D01*
X88662586Y-81261309D01*
X88678677Y-81097935D01*
X88795955Y-80711320D01*
X88795956Y-80711316D01*
X88986402Y-80355017D01*
X88986405Y-80355013D01*
X89242707Y-80042707D01*
X89555013Y-79786405D01*
X89555014Y-79786404D01*
X89555017Y-79786402D01*
X89911316Y-79595956D01*
X89911319Y-79595955D01*
X90297934Y-79478677D01*
X90700000Y-79439077D01*
X91102065Y-79478677D01*
X91102065Y-79478677D01*
G37*
G36*
X81702065Y-79478677D02*
G01*
X81988085Y-79565440D01*
X82088684Y-79595956D01*
X82444983Y-79786402D01*
X82444986Y-79786404D01*
X82444987Y-79786405D01*
X82757293Y-80042707D01*
X83013595Y-80355013D01*
X83013598Y-80355017D01*
X83204044Y-80711316D01*
X83204045Y-80711319D01*
X83321323Y-81097934D01*
X83337414Y-81261309D01*
X83351000Y-81399249D01*
X83351000Y-82600750D01*
X83348432Y-82626823D01*
X83321323Y-82902065D01*
X83239741Y-83171005D01*
X83204044Y-83288684D01*
X83013598Y-83644983D01*
X83013596Y-83644986D01*
X83013595Y-83644987D01*
X82757293Y-83957293D01*
X82444987Y-84213595D01*
X82444983Y-84213598D01*
X82088684Y-84404044D01*
X82088681Y-84404045D01*
X81702066Y-84521323D01*
X81300000Y-84560923D01*
X80897935Y-84521323D01*
X80511320Y-84404045D01*
X80511317Y-84404044D01*
X80155018Y-84213598D01*
X80155014Y-84213595D01*
X79842708Y-83957293D01*
X79586406Y-83644987D01*
X79586405Y-83644986D01*
X79586403Y-83644983D01*
X79395956Y-83288684D01*
X79384229Y-83250024D01*
X79278677Y-82902066D01*
X79249539Y-82606225D01*
X79249000Y-82600751D01*
X79249000Y-81399250D01*
X79262586Y-81261309D01*
X79278677Y-81097935D01*
X79395955Y-80711320D01*
X79395956Y-80711316D01*
X79586402Y-80355017D01*
X79586405Y-80355013D01*
X79842707Y-80042707D01*
X80155013Y-79786405D01*
X80155014Y-79786404D01*
X80155017Y-79786402D01*
X80511316Y-79595956D01*
X80511319Y-79595955D01*
X80897934Y-79478677D01*
X81300000Y-79439077D01*
X81702065Y-79478677D01*
X81702065Y-79478677D01*
G37*
G36*
X86402065Y-79478677D02*
G01*
X86688085Y-79565440D01*
X86788684Y-79595956D01*
X87144983Y-79786402D01*
X87144986Y-79786404D01*
X87144987Y-79786405D01*
X87457293Y-80042707D01*
X87713595Y-80355013D01*
X87713598Y-80355017D01*
X87904044Y-80711316D01*
X87904045Y-80711319D01*
X88021323Y-81097934D01*
X88037414Y-81261309D01*
X88051000Y-81399249D01*
X88051000Y-82600750D01*
X88048432Y-82626823D01*
X88021323Y-82902065D01*
X87939741Y-83171005D01*
X87904044Y-83288684D01*
X87713598Y-83644983D01*
X87713596Y-83644986D01*
X87713595Y-83644987D01*
X87457293Y-83957293D01*
X87144987Y-84213595D01*
X87144983Y-84213598D01*
X86788684Y-84404044D01*
X86788681Y-84404045D01*
X86402066Y-84521323D01*
X86000000Y-84560923D01*
X85597935Y-84521323D01*
X85211320Y-84404045D01*
X85211317Y-84404044D01*
X84855018Y-84213598D01*
X84855014Y-84213595D01*
X84542708Y-83957293D01*
X84286406Y-83644987D01*
X84286405Y-83644986D01*
X84286403Y-83644983D01*
X84095956Y-83288684D01*
X84084229Y-83250024D01*
X83978677Y-82902066D01*
X83949539Y-82606225D01*
X83949000Y-82600751D01*
X83949000Y-81399250D01*
X83962586Y-81261309D01*
X83978677Y-81097935D01*
X84095955Y-80711320D01*
X84095956Y-80711316D01*
X84286402Y-80355017D01*
X84286405Y-80355013D01*
X84542707Y-80042707D01*
X84855013Y-79786405D01*
X84855014Y-79786404D01*
X84855017Y-79786402D01*
X85211316Y-79595956D01*
X85211319Y-79595955D01*
X85597934Y-79478677D01*
X86000000Y-79439077D01*
X86402065Y-79478677D01*
X86402065Y-79478677D01*
G37*
G36*
X144610442Y-81885518D02*
G01*
X144676627Y-81892037D01*
X144846466Y-81943557D01*
X145002991Y-82027222D01*
X145038729Y-82056552D01*
X145140186Y-82139814D01*
X145223448Y-82241271D01*
X145252778Y-82277009D01*
X145336443Y-82433534D01*
X145387963Y-82603373D01*
X145405359Y-82780000D01*
X145387963Y-82956627D01*
X145336443Y-83126466D01*
X145252778Y-83282991D01*
X145229791Y-83311000D01*
X145140186Y-83420186D01*
X145038729Y-83503448D01*
X145002991Y-83532778D01*
X144846466Y-83616443D01*
X144676627Y-83667963D01*
X144610442Y-83674482D01*
X144544260Y-83681000D01*
X144455740Y-83681000D01*
X144389558Y-83674482D01*
X144323373Y-83667963D01*
X144153534Y-83616443D01*
X143997009Y-83532778D01*
X143961271Y-83503448D01*
X143859814Y-83420186D01*
X143770209Y-83311000D01*
X143747222Y-83282991D01*
X143663557Y-83126466D01*
X143612037Y-82956627D01*
X143594641Y-82780000D01*
X143612037Y-82603373D01*
X143663557Y-82433534D01*
X143747222Y-82277009D01*
X143776552Y-82241271D01*
X143859814Y-82139814D01*
X143961271Y-82056552D01*
X143997009Y-82027222D01*
X144153534Y-81943557D01*
X144323373Y-81892037D01*
X144389558Y-81885518D01*
X144455740Y-81879000D01*
X144544260Y-81879000D01*
X144610442Y-81885518D01*
X144610442Y-81885518D01*
G37*
G36*
X140626823Y-81621313D02*
G01*
X140787242Y-81669976D01*
X140885702Y-81722604D01*
X140935078Y-81748996D01*
X141064659Y-81855341D01*
X141171004Y-81984922D01*
X141171005Y-81984924D01*
X141250024Y-82132758D01*
X141250025Y-82132761D01*
X141252165Y-82139815D01*
X141298687Y-82293177D01*
X141315117Y-82460000D01*
X141298687Y-82626823D01*
X141250024Y-82787242D01*
X141188651Y-82902063D01*
X141171004Y-82935078D01*
X141064659Y-83064659D01*
X140935078Y-83171004D01*
X140935076Y-83171005D01*
X140787242Y-83250024D01*
X140626823Y-83298687D01*
X140501804Y-83311000D01*
X140018196Y-83311000D01*
X139893177Y-83298687D01*
X139732758Y-83250024D01*
X139584924Y-83171005D01*
X139584922Y-83171004D01*
X139455341Y-83064659D01*
X139348996Y-82935078D01*
X139331349Y-82902063D01*
X139269976Y-82787242D01*
X139221313Y-82626823D01*
X139204883Y-82460000D01*
X139221313Y-82293177D01*
X139267835Y-82139815D01*
X139269975Y-82132761D01*
X139269976Y-82132758D01*
X139348995Y-81984924D01*
X139348996Y-81984922D01*
X139455341Y-81855341D01*
X139584922Y-81748996D01*
X139634298Y-81722604D01*
X139732758Y-81669976D01*
X139893177Y-81621313D01*
X140018196Y-81609000D01*
X140501804Y-81609000D01*
X140626823Y-81621313D01*
X140626823Y-81621313D01*
G37*
G36*
X117766823Y-81621313D02*
G01*
X117927242Y-81669976D01*
X118025702Y-81722604D01*
X118075078Y-81748996D01*
X118204659Y-81855341D01*
X118311004Y-81984922D01*
X118311005Y-81984924D01*
X118390024Y-82132758D01*
X118390025Y-82132761D01*
X118392165Y-82139815D01*
X118438687Y-82293177D01*
X118455117Y-82460000D01*
X118438687Y-82626823D01*
X118390024Y-82787242D01*
X118328651Y-82902063D01*
X118311004Y-82935078D01*
X118204659Y-83064659D01*
X118075078Y-83171004D01*
X118075076Y-83171005D01*
X117927242Y-83250024D01*
X117766823Y-83298687D01*
X117641804Y-83311000D01*
X117158196Y-83311000D01*
X117033177Y-83298687D01*
X116872758Y-83250024D01*
X116724924Y-83171005D01*
X116724922Y-83171004D01*
X116595341Y-83064659D01*
X116488996Y-82935078D01*
X116471349Y-82902063D01*
X116409976Y-82787242D01*
X116361313Y-82626823D01*
X116344883Y-82460000D01*
X116361313Y-82293177D01*
X116407835Y-82139815D01*
X116409975Y-82132761D01*
X116409976Y-82132758D01*
X116488995Y-81984924D01*
X116488996Y-81984922D01*
X116595341Y-81855341D01*
X116724922Y-81748996D01*
X116774298Y-81722604D01*
X116872758Y-81669976D01*
X117033177Y-81621313D01*
X117158196Y-81609000D01*
X117641804Y-81609000D01*
X117766823Y-81621313D01*
X117766823Y-81621313D01*
G37*
G36*
X97547395Y-81085546D02*
G01*
X97720466Y-81157234D01*
X97720467Y-81157235D01*
X97876227Y-81261310D01*
X98008690Y-81393773D01*
X98012350Y-81399251D01*
X98112766Y-81549534D01*
X98184454Y-81722605D01*
X98221000Y-81906333D01*
X98221000Y-82093667D01*
X98184454Y-82277395D01*
X98112766Y-82450466D01*
X98061081Y-82527818D01*
X98008690Y-82606227D01*
X97876227Y-82738690D01*
X97814402Y-82780000D01*
X97720466Y-82842766D01*
X97547395Y-82914454D01*
X97363667Y-82951000D01*
X97176333Y-82951000D01*
X96992605Y-82914454D01*
X96819534Y-82842766D01*
X96725598Y-82780000D01*
X96663773Y-82738690D01*
X96531310Y-82606227D01*
X96478919Y-82527818D01*
X96427234Y-82450466D01*
X96355546Y-82277395D01*
X96319000Y-82093667D01*
X96319000Y-81906333D01*
X96355546Y-81722605D01*
X96427234Y-81549534D01*
X96527650Y-81399251D01*
X96531310Y-81393773D01*
X96663773Y-81261310D01*
X96819533Y-81157235D01*
X96819534Y-81157234D01*
X96992605Y-81085546D01*
X97176333Y-81049000D01*
X97363667Y-81049000D01*
X97547395Y-81085546D01*
X97547395Y-81085546D01*
G37*
G36*
X102681000Y-82951000D02*
G01*
X100779000Y-82951000D01*
X100779000Y-81049000D01*
X102681000Y-81049000D01*
X102681000Y-82951000D01*
X102681000Y-82951000D01*
G37*
G36*
X95681000Y-82951000D02*
G01*
X93779000Y-82951000D01*
X93779000Y-81049000D01*
X95681000Y-81049000D01*
X95681000Y-82951000D01*
X95681000Y-82951000D01*
G37*
G36*
X104547395Y-81085546D02*
G01*
X104720466Y-81157234D01*
X104720467Y-81157235D01*
X104876227Y-81261310D01*
X105008690Y-81393773D01*
X105012350Y-81399251D01*
X105112766Y-81549534D01*
X105184454Y-81722605D01*
X105221000Y-81906333D01*
X105221000Y-82093667D01*
X105184454Y-82277395D01*
X105112766Y-82450466D01*
X105061081Y-82527818D01*
X105008690Y-82606227D01*
X104876227Y-82738690D01*
X104814402Y-82780000D01*
X104720466Y-82842766D01*
X104547395Y-82914454D01*
X104363667Y-82951000D01*
X104176333Y-82951000D01*
X103992605Y-82914454D01*
X103819534Y-82842766D01*
X103725598Y-82780000D01*
X103663773Y-82738690D01*
X103531310Y-82606227D01*
X103478919Y-82527818D01*
X103427234Y-82450466D01*
X103355546Y-82277395D01*
X103319000Y-82093667D01*
X103319000Y-81906333D01*
X103355546Y-81722605D01*
X103427234Y-81549534D01*
X103527650Y-81399251D01*
X103531310Y-81393773D01*
X103663773Y-81261310D01*
X103819533Y-81157235D01*
X103819534Y-81157234D01*
X103992605Y-81085546D01*
X104176333Y-81049000D01*
X104363667Y-81049000D01*
X104547395Y-81085546D01*
X104547395Y-81085546D01*
G37*
G36*
X144610442Y-79345518D02*
G01*
X144676627Y-79352037D01*
X144846466Y-79403557D01*
X145002991Y-79487222D01*
X145038729Y-79516552D01*
X145140186Y-79599814D01*
X145223448Y-79701271D01*
X145252778Y-79737009D01*
X145336443Y-79893534D01*
X145387963Y-80063373D01*
X145405359Y-80240000D01*
X145387963Y-80416627D01*
X145336443Y-80586466D01*
X145252778Y-80742991D01*
X145229791Y-80771000D01*
X145140186Y-80880186D01*
X145038729Y-80963448D01*
X145002991Y-80992778D01*
X144846466Y-81076443D01*
X144676627Y-81127963D01*
X144610442Y-81134482D01*
X144544260Y-81141000D01*
X144455740Y-81141000D01*
X144389558Y-81134482D01*
X144323373Y-81127963D01*
X144153534Y-81076443D01*
X143997009Y-80992778D01*
X143961271Y-80963448D01*
X143859814Y-80880186D01*
X143770209Y-80771000D01*
X143747222Y-80742991D01*
X143663557Y-80586466D01*
X143612037Y-80416627D01*
X143594641Y-80240000D01*
X143612037Y-80063373D01*
X143663557Y-79893534D01*
X143747222Y-79737009D01*
X143776552Y-79701271D01*
X143859814Y-79599814D01*
X143961271Y-79516552D01*
X143997009Y-79487222D01*
X144153534Y-79403557D01*
X144323373Y-79352037D01*
X144389558Y-79345518D01*
X144455740Y-79339000D01*
X144544260Y-79339000D01*
X144610442Y-79345518D01*
X144610442Y-79345518D01*
G37*
G36*
X117766823Y-79081313D02*
G01*
X117927242Y-79129976D01*
X118059906Y-79200886D01*
X118075078Y-79208996D01*
X118204659Y-79315341D01*
X118311004Y-79444922D01*
X118311005Y-79444924D01*
X118390024Y-79592758D01*
X118390025Y-79592761D01*
X118392165Y-79599815D01*
X118438687Y-79753177D01*
X118455117Y-79920000D01*
X118438687Y-80086823D01*
X118390024Y-80247242D01*
X118332419Y-80355013D01*
X118311004Y-80395078D01*
X118204659Y-80524659D01*
X118075078Y-80631004D01*
X118075076Y-80631005D01*
X117927242Y-80710024D01*
X117766823Y-80758687D01*
X117641804Y-80771000D01*
X117158196Y-80771000D01*
X117033177Y-80758687D01*
X116872758Y-80710024D01*
X116724924Y-80631005D01*
X116724922Y-80631004D01*
X116595341Y-80524659D01*
X116488996Y-80395078D01*
X116467581Y-80355013D01*
X116409976Y-80247242D01*
X116361313Y-80086823D01*
X116344883Y-79920000D01*
X116361313Y-79753177D01*
X116407835Y-79599815D01*
X116409975Y-79592761D01*
X116409976Y-79592758D01*
X116488995Y-79444924D01*
X116488996Y-79444922D01*
X116595341Y-79315341D01*
X116724922Y-79208996D01*
X116740094Y-79200886D01*
X116872758Y-79129976D01*
X117033177Y-79081313D01*
X117158196Y-79069000D01*
X117641804Y-79069000D01*
X117766823Y-79081313D01*
X117766823Y-79081313D01*
G37*
G36*
X140626823Y-79081313D02*
G01*
X140787242Y-79129976D01*
X140919906Y-79200886D01*
X140935078Y-79208996D01*
X141064659Y-79315341D01*
X141171004Y-79444922D01*
X141171005Y-79444924D01*
X141250024Y-79592758D01*
X141250025Y-79592761D01*
X141252165Y-79599815D01*
X141298687Y-79753177D01*
X141315117Y-79920000D01*
X141298687Y-80086823D01*
X141250024Y-80247242D01*
X141192419Y-80355013D01*
X141171004Y-80395078D01*
X141064659Y-80524659D01*
X140935078Y-80631004D01*
X140935076Y-80631005D01*
X140787242Y-80710024D01*
X140626823Y-80758687D01*
X140501804Y-80771000D01*
X140018196Y-80771000D01*
X139893177Y-80758687D01*
X139732758Y-80710024D01*
X139584924Y-80631005D01*
X139584922Y-80631004D01*
X139455341Y-80524659D01*
X139348996Y-80395078D01*
X139327581Y-80355013D01*
X139269976Y-80247242D01*
X139221313Y-80086823D01*
X139204883Y-79920000D01*
X139221313Y-79753177D01*
X139267835Y-79599815D01*
X139269975Y-79592761D01*
X139269976Y-79592758D01*
X139348995Y-79444924D01*
X139348996Y-79444922D01*
X139455341Y-79315341D01*
X139584922Y-79208996D01*
X139600094Y-79200886D01*
X139732758Y-79129976D01*
X139893177Y-79081313D01*
X140018196Y-79069000D01*
X140501804Y-79069000D01*
X140626823Y-79081313D01*
X140626823Y-79081313D01*
G37*
G36*
X144610442Y-76805518D02*
G01*
X144676627Y-76812037D01*
X144846466Y-76863557D01*
X145002991Y-76947222D01*
X145038729Y-76976552D01*
X145140186Y-77059814D01*
X145223448Y-77161271D01*
X145252778Y-77197009D01*
X145336443Y-77353534D01*
X145387963Y-77523373D01*
X145405359Y-77700000D01*
X145387963Y-77876627D01*
X145336443Y-78046466D01*
X145252778Y-78202991D01*
X145229791Y-78231000D01*
X145140186Y-78340186D01*
X145038729Y-78423448D01*
X145002991Y-78452778D01*
X144846466Y-78536443D01*
X144676627Y-78587963D01*
X144610443Y-78594481D01*
X144544260Y-78601000D01*
X144455740Y-78601000D01*
X144389557Y-78594481D01*
X144323373Y-78587963D01*
X144153534Y-78536443D01*
X143997009Y-78452778D01*
X143961271Y-78423448D01*
X143859814Y-78340186D01*
X143770209Y-78231000D01*
X143747222Y-78202991D01*
X143663557Y-78046466D01*
X143612037Y-77876627D01*
X143594641Y-77700000D01*
X143612037Y-77523373D01*
X143663557Y-77353534D01*
X143747222Y-77197009D01*
X143776552Y-77161271D01*
X143859814Y-77059814D01*
X143961271Y-76976552D01*
X143997009Y-76947222D01*
X144153534Y-76863557D01*
X144323373Y-76812037D01*
X144389558Y-76805518D01*
X144455740Y-76799000D01*
X144544260Y-76799000D01*
X144610442Y-76805518D01*
X144610442Y-76805518D01*
G37*
G36*
X140626823Y-76541313D02*
G01*
X140787242Y-76589976D01*
X140919906Y-76660886D01*
X140935078Y-76668996D01*
X141064659Y-76775341D01*
X141171004Y-76904922D01*
X141171005Y-76904924D01*
X141250024Y-77052758D01*
X141250025Y-77052761D01*
X141252165Y-77059815D01*
X141298687Y-77213177D01*
X141315117Y-77380000D01*
X141298687Y-77546823D01*
X141250024Y-77707242D01*
X141179114Y-77839906D01*
X141171004Y-77855078D01*
X141064659Y-77984659D01*
X140935078Y-78091004D01*
X140935076Y-78091005D01*
X140787242Y-78170024D01*
X140626823Y-78218687D01*
X140501804Y-78231000D01*
X140018196Y-78231000D01*
X139893177Y-78218687D01*
X139732758Y-78170024D01*
X139584924Y-78091005D01*
X139584922Y-78091004D01*
X139455341Y-77984659D01*
X139348996Y-77855078D01*
X139340886Y-77839906D01*
X139269976Y-77707242D01*
X139221313Y-77546823D01*
X139204883Y-77380000D01*
X139221313Y-77213177D01*
X139267835Y-77059815D01*
X139269975Y-77052761D01*
X139269976Y-77052758D01*
X139348995Y-76904924D01*
X139348996Y-76904922D01*
X139455341Y-76775341D01*
X139584922Y-76668996D01*
X139600094Y-76660886D01*
X139732758Y-76589976D01*
X139893177Y-76541313D01*
X140018196Y-76529000D01*
X140501804Y-76529000D01*
X140626823Y-76541313D01*
X140626823Y-76541313D01*
G37*
G36*
X117766823Y-76541313D02*
G01*
X117927242Y-76589976D01*
X118059906Y-76660886D01*
X118075078Y-76668996D01*
X118204659Y-76775341D01*
X118311004Y-76904922D01*
X118311005Y-76904924D01*
X118390024Y-77052758D01*
X118390025Y-77052761D01*
X118392165Y-77059815D01*
X118438687Y-77213177D01*
X118455117Y-77380000D01*
X118438687Y-77546823D01*
X118390024Y-77707242D01*
X118319114Y-77839906D01*
X118311004Y-77855078D01*
X118204659Y-77984659D01*
X118075078Y-78091004D01*
X118075076Y-78091005D01*
X117927242Y-78170024D01*
X117766823Y-78218687D01*
X117641804Y-78231000D01*
X117158196Y-78231000D01*
X117033177Y-78218687D01*
X116872758Y-78170024D01*
X116724924Y-78091005D01*
X116724922Y-78091004D01*
X116595341Y-77984659D01*
X116488996Y-77855078D01*
X116480886Y-77839906D01*
X116409976Y-77707242D01*
X116361313Y-77546823D01*
X116344883Y-77380000D01*
X116361313Y-77213177D01*
X116407835Y-77059815D01*
X116409975Y-77052761D01*
X116409976Y-77052758D01*
X116488995Y-76904924D01*
X116488996Y-76904922D01*
X116595341Y-76775341D01*
X116724922Y-76668996D01*
X116740094Y-76660886D01*
X116872758Y-76589976D01*
X117033177Y-76541313D01*
X117158196Y-76529000D01*
X117641804Y-76529000D01*
X117766823Y-76541313D01*
X117766823Y-76541313D01*
G37*
G36*
X144610443Y-74265519D02*
G01*
X144676627Y-74272037D01*
X144846466Y-74323557D01*
X145002991Y-74407222D01*
X145038729Y-74436552D01*
X145140186Y-74519814D01*
X145223448Y-74621271D01*
X145252778Y-74657009D01*
X145336443Y-74813534D01*
X145387963Y-74983373D01*
X145405359Y-75160000D01*
X145387963Y-75336627D01*
X145336443Y-75506466D01*
X145252778Y-75662991D01*
X145229791Y-75691000D01*
X145140186Y-75800186D01*
X145038729Y-75883448D01*
X145002991Y-75912778D01*
X144846466Y-75996443D01*
X144676627Y-76047963D01*
X144610442Y-76054482D01*
X144544260Y-76061000D01*
X144455740Y-76061000D01*
X144389558Y-76054482D01*
X144323373Y-76047963D01*
X144153534Y-75996443D01*
X143997009Y-75912778D01*
X143961271Y-75883448D01*
X143859814Y-75800186D01*
X143770209Y-75691000D01*
X143747222Y-75662991D01*
X143663557Y-75506466D01*
X143612037Y-75336627D01*
X143594641Y-75160000D01*
X143612037Y-74983373D01*
X143663557Y-74813534D01*
X143747222Y-74657009D01*
X143776552Y-74621271D01*
X143859814Y-74519814D01*
X143961271Y-74436552D01*
X143997009Y-74407222D01*
X144153534Y-74323557D01*
X144323373Y-74272037D01*
X144389557Y-74265519D01*
X144455740Y-74259000D01*
X144544260Y-74259000D01*
X144610443Y-74265519D01*
X144610443Y-74265519D01*
G37*
G36*
X140626823Y-74001313D02*
G01*
X140787242Y-74049976D01*
X140919906Y-74120886D01*
X140935078Y-74128996D01*
X141064659Y-74235341D01*
X141171004Y-74364922D01*
X141171005Y-74364924D01*
X141250024Y-74512758D01*
X141250025Y-74512761D01*
X141252165Y-74519815D01*
X141298687Y-74673177D01*
X141315117Y-74840000D01*
X141298687Y-75006823D01*
X141250024Y-75167242D01*
X141179114Y-75299906D01*
X141171004Y-75315078D01*
X141064659Y-75444659D01*
X140935078Y-75551004D01*
X140935076Y-75551005D01*
X140787242Y-75630024D01*
X140626823Y-75678687D01*
X140501804Y-75691000D01*
X140018196Y-75691000D01*
X139893177Y-75678687D01*
X139732758Y-75630024D01*
X139584924Y-75551005D01*
X139584922Y-75551004D01*
X139455341Y-75444659D01*
X139348996Y-75315078D01*
X139340886Y-75299906D01*
X139269976Y-75167242D01*
X139221313Y-75006823D01*
X139204883Y-74840000D01*
X139221313Y-74673177D01*
X139267835Y-74519815D01*
X139269975Y-74512761D01*
X139269976Y-74512758D01*
X139348995Y-74364924D01*
X139348996Y-74364922D01*
X139455341Y-74235341D01*
X139584922Y-74128996D01*
X139600094Y-74120886D01*
X139732758Y-74049976D01*
X139893177Y-74001313D01*
X140018196Y-73989000D01*
X140501804Y-73989000D01*
X140626823Y-74001313D01*
X140626823Y-74001313D01*
G37*
G36*
X117766823Y-74001313D02*
G01*
X117927242Y-74049976D01*
X118059906Y-74120886D01*
X118075078Y-74128996D01*
X118204659Y-74235341D01*
X118311004Y-74364922D01*
X118311005Y-74364924D01*
X118390024Y-74512758D01*
X118390025Y-74512761D01*
X118392165Y-74519815D01*
X118438687Y-74673177D01*
X118455117Y-74840000D01*
X118438687Y-75006823D01*
X118390024Y-75167242D01*
X118319114Y-75299906D01*
X118311004Y-75315078D01*
X118204659Y-75444659D01*
X118075078Y-75551004D01*
X118075076Y-75551005D01*
X117927242Y-75630024D01*
X117766823Y-75678687D01*
X117641804Y-75691000D01*
X117158196Y-75691000D01*
X117033177Y-75678687D01*
X116872758Y-75630024D01*
X116724924Y-75551005D01*
X116724922Y-75551004D01*
X116595341Y-75444659D01*
X116488996Y-75315078D01*
X116480886Y-75299906D01*
X116409976Y-75167242D01*
X116361313Y-75006823D01*
X116344883Y-74840000D01*
X116361313Y-74673177D01*
X116407835Y-74519815D01*
X116409975Y-74512761D01*
X116409976Y-74512758D01*
X116488995Y-74364924D01*
X116488996Y-74364922D01*
X116595341Y-74235341D01*
X116724922Y-74128996D01*
X116740094Y-74120886D01*
X116872758Y-74049976D01*
X117033177Y-74001313D01*
X117158196Y-73989000D01*
X117641804Y-73989000D01*
X117766823Y-74001313D01*
X117766823Y-74001313D01*
G37*
G36*
X144610442Y-71725518D02*
G01*
X144676627Y-71732037D01*
X144846466Y-71783557D01*
X145002991Y-71867222D01*
X145038729Y-71896552D01*
X145140186Y-71979814D01*
X145223448Y-72081271D01*
X145252778Y-72117009D01*
X145336443Y-72273534D01*
X145387963Y-72443373D01*
X145405359Y-72620000D01*
X145387963Y-72796627D01*
X145336443Y-72966466D01*
X145252778Y-73122991D01*
X145229791Y-73151000D01*
X145140186Y-73260186D01*
X145038729Y-73343448D01*
X145002991Y-73372778D01*
X144846466Y-73456443D01*
X144676627Y-73507963D01*
X144610443Y-73514481D01*
X144544260Y-73521000D01*
X144455740Y-73521000D01*
X144389557Y-73514481D01*
X144323373Y-73507963D01*
X144153534Y-73456443D01*
X143997009Y-73372778D01*
X143961271Y-73343448D01*
X143859814Y-73260186D01*
X143770209Y-73151000D01*
X143747222Y-73122991D01*
X143663557Y-72966466D01*
X143612037Y-72796627D01*
X143594641Y-72620000D01*
X143612037Y-72443373D01*
X143663557Y-72273534D01*
X143747222Y-72117009D01*
X143776552Y-72081271D01*
X143859814Y-71979814D01*
X143961271Y-71896552D01*
X143997009Y-71867222D01*
X144153534Y-71783557D01*
X144323373Y-71732037D01*
X144389558Y-71725518D01*
X144455740Y-71719000D01*
X144544260Y-71719000D01*
X144610442Y-71725518D01*
X144610442Y-71725518D01*
G37*
G36*
X117766823Y-71461313D02*
G01*
X117927242Y-71509976D01*
X118059906Y-71580886D01*
X118075078Y-71588996D01*
X118204659Y-71695341D01*
X118311004Y-71824922D01*
X118311005Y-71824924D01*
X118390024Y-71972758D01*
X118390025Y-71972761D01*
X118392165Y-71979815D01*
X118438687Y-72133177D01*
X118455117Y-72300000D01*
X118438687Y-72466823D01*
X118390024Y-72627242D01*
X118319114Y-72759906D01*
X118311004Y-72775078D01*
X118204659Y-72904659D01*
X118075078Y-73011004D01*
X118075076Y-73011005D01*
X117927242Y-73090024D01*
X117766823Y-73138687D01*
X117641804Y-73151000D01*
X117158196Y-73151000D01*
X117033177Y-73138687D01*
X116872758Y-73090024D01*
X116724924Y-73011005D01*
X116724922Y-73011004D01*
X116595341Y-72904659D01*
X116488996Y-72775078D01*
X116480886Y-72759906D01*
X116409976Y-72627242D01*
X116361313Y-72466823D01*
X116344883Y-72300000D01*
X116361313Y-72133177D01*
X116407835Y-71979815D01*
X116409975Y-71972761D01*
X116409976Y-71972758D01*
X116488995Y-71824924D01*
X116488996Y-71824922D01*
X116595341Y-71695341D01*
X116724922Y-71588996D01*
X116740094Y-71580886D01*
X116872758Y-71509976D01*
X117033177Y-71461313D01*
X117158196Y-71449000D01*
X117641804Y-71449000D01*
X117766823Y-71461313D01*
X117766823Y-71461313D01*
G37*
G36*
X140626823Y-71461313D02*
G01*
X140787242Y-71509976D01*
X140919906Y-71580886D01*
X140935078Y-71588996D01*
X141064659Y-71695341D01*
X141171004Y-71824922D01*
X141171005Y-71824924D01*
X141250024Y-71972758D01*
X141250025Y-71972761D01*
X141252165Y-71979815D01*
X141298687Y-72133177D01*
X141315117Y-72300000D01*
X141298687Y-72466823D01*
X141250024Y-72627242D01*
X141179114Y-72759906D01*
X141171004Y-72775078D01*
X141064659Y-72904659D01*
X140935078Y-73011004D01*
X140935076Y-73011005D01*
X140787242Y-73090024D01*
X140626823Y-73138687D01*
X140501804Y-73151000D01*
X140018196Y-73151000D01*
X139893177Y-73138687D01*
X139732758Y-73090024D01*
X139584924Y-73011005D01*
X139584922Y-73011004D01*
X139455341Y-72904659D01*
X139348996Y-72775078D01*
X139340886Y-72759906D01*
X139269976Y-72627242D01*
X139221313Y-72466823D01*
X139204883Y-72300000D01*
X139221313Y-72133177D01*
X139267835Y-71979815D01*
X139269975Y-71972761D01*
X139269976Y-71972758D01*
X139348995Y-71824924D01*
X139348996Y-71824922D01*
X139455341Y-71695341D01*
X139584922Y-71588996D01*
X139600094Y-71580886D01*
X139732758Y-71509976D01*
X139893177Y-71461313D01*
X140018196Y-71449000D01*
X140501804Y-71449000D01*
X140626823Y-71461313D01*
X140626823Y-71461313D01*
G37*
G36*
X144610442Y-69185518D02*
G01*
X144676627Y-69192037D01*
X144846466Y-69243557D01*
X145002991Y-69327222D01*
X145038729Y-69356552D01*
X145140186Y-69439814D01*
X145223448Y-69541271D01*
X145252778Y-69577009D01*
X145336443Y-69733534D01*
X145387963Y-69903373D01*
X145405359Y-70080000D01*
X145387963Y-70256627D01*
X145336443Y-70426466D01*
X145252778Y-70582991D01*
X145229791Y-70611000D01*
X145140186Y-70720186D01*
X145038729Y-70803448D01*
X145002991Y-70832778D01*
X144846466Y-70916443D01*
X144676627Y-70967963D01*
X144610442Y-70974482D01*
X144544260Y-70981000D01*
X144455740Y-70981000D01*
X144389558Y-70974482D01*
X144323373Y-70967963D01*
X144153534Y-70916443D01*
X143997009Y-70832778D01*
X143961271Y-70803448D01*
X143859814Y-70720186D01*
X143770209Y-70611000D01*
X143747222Y-70582991D01*
X143663557Y-70426466D01*
X143612037Y-70256627D01*
X143594641Y-70080000D01*
X143612037Y-69903373D01*
X143663557Y-69733534D01*
X143747222Y-69577009D01*
X143776552Y-69541271D01*
X143859814Y-69439814D01*
X143961271Y-69356552D01*
X143997009Y-69327222D01*
X144153534Y-69243557D01*
X144323373Y-69192037D01*
X144389558Y-69185518D01*
X144455740Y-69179000D01*
X144544260Y-69179000D01*
X144610442Y-69185518D01*
X144610442Y-69185518D01*
G37*
G36*
X117766823Y-68921313D02*
G01*
X117927242Y-68969976D01*
X118059906Y-69040886D01*
X118075078Y-69048996D01*
X118204659Y-69155341D01*
X118311004Y-69284922D01*
X118311005Y-69284924D01*
X118390024Y-69432758D01*
X118390025Y-69432761D01*
X118392165Y-69439815D01*
X118438687Y-69593177D01*
X118455117Y-69760000D01*
X118438687Y-69926823D01*
X118390024Y-70087242D01*
X118322487Y-70213595D01*
X118311004Y-70235078D01*
X118204659Y-70364659D01*
X118075078Y-70471004D01*
X118075076Y-70471005D01*
X117927242Y-70550024D01*
X117766823Y-70598687D01*
X117641804Y-70611000D01*
X117158196Y-70611000D01*
X117033177Y-70598687D01*
X116872758Y-70550024D01*
X116724924Y-70471005D01*
X116724922Y-70471004D01*
X116595341Y-70364659D01*
X116488996Y-70235078D01*
X116477513Y-70213595D01*
X116409976Y-70087242D01*
X116361313Y-69926823D01*
X116344883Y-69760000D01*
X116361313Y-69593177D01*
X116407835Y-69439815D01*
X116409975Y-69432761D01*
X116409976Y-69432758D01*
X116488995Y-69284924D01*
X116488996Y-69284922D01*
X116595341Y-69155341D01*
X116724922Y-69048996D01*
X116740094Y-69040886D01*
X116872758Y-68969976D01*
X117033177Y-68921313D01*
X117158196Y-68909000D01*
X117641804Y-68909000D01*
X117766823Y-68921313D01*
X117766823Y-68921313D01*
G37*
G36*
X140626823Y-68921313D02*
G01*
X140787242Y-68969976D01*
X140919906Y-69040886D01*
X140935078Y-69048996D01*
X141064659Y-69155341D01*
X141171004Y-69284922D01*
X141171005Y-69284924D01*
X141250024Y-69432758D01*
X141250025Y-69432761D01*
X141252165Y-69439815D01*
X141298687Y-69593177D01*
X141315117Y-69760000D01*
X141298687Y-69926823D01*
X141250024Y-70087242D01*
X141182487Y-70213595D01*
X141171004Y-70235078D01*
X141064659Y-70364659D01*
X140935078Y-70471004D01*
X140935076Y-70471005D01*
X140787242Y-70550024D01*
X140626823Y-70598687D01*
X140501804Y-70611000D01*
X140018196Y-70611000D01*
X139893177Y-70598687D01*
X139732758Y-70550024D01*
X139584924Y-70471005D01*
X139584922Y-70471004D01*
X139455341Y-70364659D01*
X139348996Y-70235078D01*
X139337513Y-70213595D01*
X139269976Y-70087242D01*
X139221313Y-69926823D01*
X139204883Y-69760000D01*
X139221313Y-69593177D01*
X139267835Y-69439815D01*
X139269975Y-69432761D01*
X139269976Y-69432758D01*
X139348995Y-69284924D01*
X139348996Y-69284922D01*
X139455341Y-69155341D01*
X139584922Y-69048996D01*
X139600094Y-69040886D01*
X139732758Y-68969976D01*
X139893177Y-68921313D01*
X140018196Y-68909000D01*
X140501804Y-68909000D01*
X140626823Y-68921313D01*
X140626823Y-68921313D01*
G37*
G36*
X91102065Y-65478677D02*
G01*
X91388085Y-65565440D01*
X91488684Y-65595956D01*
X91844983Y-65786402D01*
X91844986Y-65786404D01*
X91844987Y-65786405D01*
X92157293Y-66042707D01*
X92413595Y-66355013D01*
X92413598Y-66355017D01*
X92604044Y-66711316D01*
X92604045Y-66711319D01*
X92721323Y-67097934D01*
X92730739Y-67193534D01*
X92751000Y-67399249D01*
X92751000Y-68600750D01*
X92741108Y-68701188D01*
X92721323Y-68902065D01*
X92700722Y-68969976D01*
X92604044Y-69288684D01*
X92413598Y-69644983D01*
X92413596Y-69644986D01*
X92413595Y-69644987D01*
X92157293Y-69957293D01*
X91844987Y-70213595D01*
X91844983Y-70213598D01*
X91488684Y-70404044D01*
X91488681Y-70404045D01*
X91102066Y-70521323D01*
X90700000Y-70560923D01*
X90297935Y-70521323D01*
X89911320Y-70404045D01*
X89911317Y-70404044D01*
X89555018Y-70213598D01*
X89555014Y-70213595D01*
X89242708Y-69957293D01*
X88986406Y-69644987D01*
X88986405Y-69644986D01*
X88986403Y-69644983D01*
X88795956Y-69288684D01*
X88782267Y-69243557D01*
X88678677Y-68902066D01*
X88649000Y-68600750D01*
X88649000Y-67399251D01*
X88649540Y-67393773D01*
X88669262Y-67193532D01*
X88678677Y-67097935D01*
X88795955Y-66711320D01*
X88795956Y-66711316D01*
X88986402Y-66355017D01*
X88986405Y-66355013D01*
X89242707Y-66042707D01*
X89555013Y-65786405D01*
X89555014Y-65786404D01*
X89555017Y-65786402D01*
X89911316Y-65595956D01*
X89911319Y-65595955D01*
X90297934Y-65478677D01*
X90700000Y-65439077D01*
X91102065Y-65478677D01*
X91102065Y-65478677D01*
G37*
G36*
X86402065Y-65478677D02*
G01*
X86688085Y-65565440D01*
X86788684Y-65595956D01*
X87144983Y-65786402D01*
X87144986Y-65786404D01*
X87144987Y-65786405D01*
X87457293Y-66042707D01*
X87713595Y-66355013D01*
X87713598Y-66355017D01*
X87904044Y-66711316D01*
X87904045Y-66711319D01*
X88021323Y-67097934D01*
X88030739Y-67193534D01*
X88051000Y-67399249D01*
X88051000Y-68600750D01*
X88041108Y-68701188D01*
X88021323Y-68902065D01*
X88000722Y-68969976D01*
X87904044Y-69288684D01*
X87713598Y-69644983D01*
X87713596Y-69644986D01*
X87713595Y-69644987D01*
X87457293Y-69957293D01*
X87144987Y-70213595D01*
X87144983Y-70213598D01*
X86788684Y-70404044D01*
X86788681Y-70404045D01*
X86402066Y-70521323D01*
X86000000Y-70560923D01*
X85597935Y-70521323D01*
X85211320Y-70404045D01*
X85211317Y-70404044D01*
X84855018Y-70213598D01*
X84855014Y-70213595D01*
X84542708Y-69957293D01*
X84286406Y-69644987D01*
X84286405Y-69644986D01*
X84286403Y-69644983D01*
X84095956Y-69288684D01*
X84082267Y-69243557D01*
X83978677Y-68902066D01*
X83949000Y-68600750D01*
X83949000Y-67399251D01*
X83949540Y-67393773D01*
X83969262Y-67193532D01*
X83978677Y-67097935D01*
X84095955Y-66711320D01*
X84095956Y-66711316D01*
X84286402Y-66355017D01*
X84286405Y-66355013D01*
X84542707Y-66042707D01*
X84855013Y-65786405D01*
X84855014Y-65786404D01*
X84855017Y-65786402D01*
X85211316Y-65595956D01*
X85211319Y-65595955D01*
X85597934Y-65478677D01*
X86000000Y-65439077D01*
X86402065Y-65478677D01*
X86402065Y-65478677D01*
G37*
G36*
X81702065Y-65478677D02*
G01*
X81988085Y-65565440D01*
X82088684Y-65595956D01*
X82444983Y-65786402D01*
X82444986Y-65786404D01*
X82444987Y-65786405D01*
X82757293Y-66042707D01*
X83013595Y-66355013D01*
X83013598Y-66355017D01*
X83204044Y-66711316D01*
X83204045Y-66711319D01*
X83321323Y-67097934D01*
X83330739Y-67193534D01*
X83351000Y-67399249D01*
X83351000Y-68600750D01*
X83341108Y-68701188D01*
X83321323Y-68902065D01*
X83300722Y-68969976D01*
X83204044Y-69288684D01*
X83013598Y-69644983D01*
X83013596Y-69644986D01*
X83013595Y-69644987D01*
X82757293Y-69957293D01*
X82444987Y-70213595D01*
X82444983Y-70213598D01*
X82088684Y-70404044D01*
X82088681Y-70404045D01*
X81702066Y-70521323D01*
X81300000Y-70560923D01*
X80897935Y-70521323D01*
X80511320Y-70404045D01*
X80511317Y-70404044D01*
X80155018Y-70213598D01*
X80155014Y-70213595D01*
X79842708Y-69957293D01*
X79586406Y-69644987D01*
X79586405Y-69644986D01*
X79586403Y-69644983D01*
X79395956Y-69288684D01*
X79382267Y-69243557D01*
X79278677Y-68902066D01*
X79249000Y-68600750D01*
X79249000Y-67399251D01*
X79249540Y-67393773D01*
X79269262Y-67193532D01*
X79278677Y-67097935D01*
X79395955Y-66711320D01*
X79395956Y-66711316D01*
X79586402Y-66355017D01*
X79586405Y-66355013D01*
X79842707Y-66042707D01*
X80155013Y-65786405D01*
X80155014Y-65786404D01*
X80155017Y-65786402D01*
X80511316Y-65595956D01*
X80511319Y-65595955D01*
X80897934Y-65478677D01*
X81300000Y-65439077D01*
X81702065Y-65478677D01*
X81702065Y-65478677D01*
G37*
G36*
X104547395Y-67085546D02*
G01*
X104720466Y-67157234D01*
X104720467Y-67157235D01*
X104876227Y-67261310D01*
X105008690Y-67393773D01*
X105012350Y-67399251D01*
X105112766Y-67549534D01*
X105184454Y-67722605D01*
X105221000Y-67906333D01*
X105221000Y-68093667D01*
X105184454Y-68277395D01*
X105112766Y-68450466D01*
X105112765Y-68450467D01*
X105008690Y-68606227D01*
X104876227Y-68738690D01*
X104797818Y-68791081D01*
X104720466Y-68842766D01*
X104547395Y-68914454D01*
X104363667Y-68951000D01*
X104176333Y-68951000D01*
X103992605Y-68914454D01*
X103819534Y-68842766D01*
X103742182Y-68791081D01*
X103663773Y-68738690D01*
X103531310Y-68606227D01*
X103427235Y-68450467D01*
X103427234Y-68450466D01*
X103355546Y-68277395D01*
X103319000Y-68093667D01*
X103319000Y-67906333D01*
X103355546Y-67722605D01*
X103427234Y-67549534D01*
X103527650Y-67399251D01*
X103531310Y-67393773D01*
X103663773Y-67261310D01*
X103819533Y-67157235D01*
X103819534Y-67157234D01*
X103992605Y-67085546D01*
X104176333Y-67049000D01*
X104363667Y-67049000D01*
X104547395Y-67085546D01*
X104547395Y-67085546D01*
G37*
G36*
X102681000Y-68951000D02*
G01*
X100779000Y-68951000D01*
X100779000Y-67049000D01*
X102681000Y-67049000D01*
X102681000Y-68951000D01*
X102681000Y-68951000D01*
G37*
G36*
X95681000Y-68951000D02*
G01*
X93779000Y-68951000D01*
X93779000Y-67049000D01*
X95681000Y-67049000D01*
X95681000Y-68951000D01*
X95681000Y-68951000D01*
G37*
G36*
X97547395Y-67085546D02*
G01*
X97720466Y-67157234D01*
X97720467Y-67157235D01*
X97876227Y-67261310D01*
X98008690Y-67393773D01*
X98012350Y-67399251D01*
X98112766Y-67549534D01*
X98184454Y-67722605D01*
X98221000Y-67906333D01*
X98221000Y-68093667D01*
X98184454Y-68277395D01*
X98112766Y-68450466D01*
X98112765Y-68450467D01*
X98008690Y-68606227D01*
X97876227Y-68738690D01*
X97797818Y-68791081D01*
X97720466Y-68842766D01*
X97547395Y-68914454D01*
X97363667Y-68951000D01*
X97176333Y-68951000D01*
X96992605Y-68914454D01*
X96819534Y-68842766D01*
X96742182Y-68791081D01*
X96663773Y-68738690D01*
X96531310Y-68606227D01*
X96427235Y-68450467D01*
X96427234Y-68450466D01*
X96355546Y-68277395D01*
X96319000Y-68093667D01*
X96319000Y-67906333D01*
X96355546Y-67722605D01*
X96427234Y-67549534D01*
X96527650Y-67399251D01*
X96531310Y-67393773D01*
X96663773Y-67261310D01*
X96819533Y-67157235D01*
X96819534Y-67157234D01*
X96992605Y-67085546D01*
X97176333Y-67049000D01*
X97363667Y-67049000D01*
X97547395Y-67085546D01*
X97547395Y-67085546D01*
G37*
G36*
X144610443Y-66645519D02*
G01*
X144676627Y-66652037D01*
X144846466Y-66703557D01*
X144846468Y-66703558D01*
X144923854Y-66744922D01*
X145002991Y-66787222D01*
X145038729Y-66816552D01*
X145140186Y-66899814D01*
X145223448Y-67001271D01*
X145252778Y-67037009D01*
X145336443Y-67193534D01*
X145387963Y-67363373D01*
X145405359Y-67540000D01*
X145387963Y-67716627D01*
X145336443Y-67886466D01*
X145252778Y-68042991D01*
X145229791Y-68071000D01*
X145140186Y-68180186D01*
X145038729Y-68263448D01*
X145002991Y-68292778D01*
X144846466Y-68376443D01*
X144676627Y-68427963D01*
X144610443Y-68434481D01*
X144544260Y-68441000D01*
X144455740Y-68441000D01*
X144389557Y-68434481D01*
X144323373Y-68427963D01*
X144153534Y-68376443D01*
X143997009Y-68292778D01*
X143961271Y-68263448D01*
X143859814Y-68180186D01*
X143770209Y-68071000D01*
X143747222Y-68042991D01*
X143663557Y-67886466D01*
X143612037Y-67716627D01*
X143594641Y-67540000D01*
X143612037Y-67363373D01*
X143663557Y-67193534D01*
X143747222Y-67037009D01*
X143776552Y-67001271D01*
X143859814Y-66899814D01*
X143961271Y-66816552D01*
X143997009Y-66787222D01*
X144076146Y-66744922D01*
X144153532Y-66703558D01*
X144153534Y-66703557D01*
X144323373Y-66652037D01*
X144389557Y-66645519D01*
X144455740Y-66639000D01*
X144544260Y-66639000D01*
X144610443Y-66645519D01*
X144610443Y-66645519D01*
G37*
G36*
X117766823Y-66381313D02*
G01*
X117927242Y-66429976D01*
X118059906Y-66500886D01*
X118075078Y-66508996D01*
X118204659Y-66615341D01*
X118311004Y-66744922D01*
X118311005Y-66744924D01*
X118390024Y-66892758D01*
X118390025Y-66892761D01*
X118392165Y-66899815D01*
X118438687Y-67053177D01*
X118455117Y-67220000D01*
X118438687Y-67386823D01*
X118390024Y-67547242D01*
X118319114Y-67679906D01*
X118311004Y-67695078D01*
X118204659Y-67824659D01*
X118075078Y-67931004D01*
X118075076Y-67931005D01*
X117927242Y-68010024D01*
X117766823Y-68058687D01*
X117641804Y-68071000D01*
X117158196Y-68071000D01*
X117033177Y-68058687D01*
X116872758Y-68010024D01*
X116724924Y-67931005D01*
X116724922Y-67931004D01*
X116595341Y-67824659D01*
X116488996Y-67695078D01*
X116480886Y-67679906D01*
X116409976Y-67547242D01*
X116361313Y-67386823D01*
X116344883Y-67220000D01*
X116361313Y-67053177D01*
X116407835Y-66899815D01*
X116409975Y-66892761D01*
X116409976Y-66892758D01*
X116488995Y-66744924D01*
X116488996Y-66744922D01*
X116595341Y-66615341D01*
X116724922Y-66508996D01*
X116740094Y-66500886D01*
X116872758Y-66429976D01*
X117033177Y-66381313D01*
X117158196Y-66369000D01*
X117641804Y-66369000D01*
X117766823Y-66381313D01*
X117766823Y-66381313D01*
G37*
G36*
X140626823Y-66381313D02*
G01*
X140787242Y-66429976D01*
X140919906Y-66500886D01*
X140935078Y-66508996D01*
X141064659Y-66615341D01*
X141171004Y-66744922D01*
X141171005Y-66744924D01*
X141250024Y-66892758D01*
X141250025Y-66892761D01*
X141252165Y-66899815D01*
X141298687Y-67053177D01*
X141315117Y-67220000D01*
X141298687Y-67386823D01*
X141250024Y-67547242D01*
X141179114Y-67679906D01*
X141171004Y-67695078D01*
X141064659Y-67824659D01*
X140935078Y-67931004D01*
X140935076Y-67931005D01*
X140787242Y-68010024D01*
X140626823Y-68058687D01*
X140501804Y-68071000D01*
X140018196Y-68071000D01*
X139893177Y-68058687D01*
X139732758Y-68010024D01*
X139584924Y-67931005D01*
X139584922Y-67931004D01*
X139455341Y-67824659D01*
X139348996Y-67695078D01*
X139340886Y-67679906D01*
X139269976Y-67547242D01*
X139221313Y-67386823D01*
X139204883Y-67220000D01*
X139221313Y-67053177D01*
X139267835Y-66899815D01*
X139269975Y-66892761D01*
X139269976Y-66892758D01*
X139348995Y-66744924D01*
X139348996Y-66744922D01*
X139455341Y-66615341D01*
X139584922Y-66508996D01*
X139600094Y-66500886D01*
X139732758Y-66429976D01*
X139893177Y-66381313D01*
X140018196Y-66369000D01*
X140501804Y-66369000D01*
X140626823Y-66381313D01*
X140626823Y-66381313D01*
G37*
G36*
X145401000Y-65901000D02*
G01*
X143599000Y-65901000D01*
X143599000Y-64099000D01*
X145401000Y-64099000D01*
X145401000Y-65901000D01*
X145401000Y-65901000D01*
G37*
G36*
X145302585Y-59478802D02*
G01*
X145452410Y-59508604D01*
X145734674Y-59625521D01*
X145988705Y-59795259D01*
X146204741Y-60011295D01*
X146374479Y-60265326D01*
X146491396Y-60547590D01*
X146551000Y-60847240D01*
X146551000Y-61152760D01*
X146491396Y-61452410D01*
X146374479Y-61734674D01*
X146204741Y-61988705D01*
X145988705Y-62204741D01*
X145734674Y-62374479D01*
X145452410Y-62491396D01*
X145302585Y-62521198D01*
X145152761Y-62551000D01*
X144847239Y-62551000D01*
X144697415Y-62521198D01*
X144547590Y-62491396D01*
X144265326Y-62374479D01*
X144011295Y-62204741D01*
X143795259Y-61988705D01*
X143625521Y-61734674D01*
X143508604Y-61452410D01*
X143449000Y-61152760D01*
X143449000Y-60847240D01*
X143508604Y-60547590D01*
X143625521Y-60265326D01*
X143795259Y-60011295D01*
X144011295Y-59795259D01*
X144265326Y-59625521D01*
X144547590Y-59508604D01*
X144697415Y-59478802D01*
X144847239Y-59449000D01*
X145152761Y-59449000D01*
X145302585Y-59478802D01*
X145302585Y-59478802D01*
G37*
G36*
X81702065Y-51478677D02*
G01*
X81988085Y-51565440D01*
X82088684Y-51595956D01*
X82444983Y-51786402D01*
X82444986Y-51786404D01*
X82444987Y-51786405D01*
X82757293Y-52042707D01*
X83013595Y-52355013D01*
X83013598Y-52355017D01*
X83204044Y-52711316D01*
X83204045Y-52711319D01*
X83321323Y-53097934D01*
X83329307Y-53179000D01*
X83351000Y-53399249D01*
X83351000Y-54600750D01*
X83341108Y-54701188D01*
X83321323Y-54902065D01*
X83236282Y-55182409D01*
X83204044Y-55288684D01*
X83013598Y-55644983D01*
X83013596Y-55644986D01*
X83013595Y-55644987D01*
X82757293Y-55957293D01*
X82444987Y-56213595D01*
X82444983Y-56213598D01*
X82088684Y-56404044D01*
X82088681Y-56404045D01*
X81702066Y-56521323D01*
X81300000Y-56560923D01*
X80897935Y-56521323D01*
X80511320Y-56404045D01*
X80511317Y-56404044D01*
X80155018Y-56213598D01*
X80155014Y-56213595D01*
X79842708Y-55957293D01*
X79586406Y-55644987D01*
X79586405Y-55644986D01*
X79586403Y-55644983D01*
X79395956Y-55288684D01*
X79282435Y-54914453D01*
X79278677Y-54902066D01*
X79249000Y-54600750D01*
X79249000Y-53399251D01*
X79249540Y-53393773D01*
X79270693Y-53179000D01*
X79278677Y-53097935D01*
X79395955Y-52711320D01*
X79395956Y-52711316D01*
X79586402Y-52355017D01*
X79586405Y-52355013D01*
X79842707Y-52042707D01*
X80155013Y-51786405D01*
X80155014Y-51786404D01*
X80155017Y-51786402D01*
X80511316Y-51595956D01*
X80511319Y-51595955D01*
X80897934Y-51478677D01*
X81300000Y-51439077D01*
X81702065Y-51478677D01*
X81702065Y-51478677D01*
G37*
G36*
X91102065Y-51478677D02*
G01*
X91388085Y-51565440D01*
X91488684Y-51595956D01*
X91844983Y-51786402D01*
X91844986Y-51786404D01*
X91844987Y-51786405D01*
X92157293Y-52042707D01*
X92413595Y-52355013D01*
X92413598Y-52355017D01*
X92604044Y-52711316D01*
X92604045Y-52711319D01*
X92721323Y-53097934D01*
X92729307Y-53179000D01*
X92751000Y-53399249D01*
X92751000Y-54600750D01*
X92741108Y-54701188D01*
X92721323Y-54902065D01*
X92636282Y-55182409D01*
X92604044Y-55288684D01*
X92413598Y-55644983D01*
X92413596Y-55644986D01*
X92413595Y-55644987D01*
X92157293Y-55957293D01*
X91844987Y-56213595D01*
X91844983Y-56213598D01*
X91488684Y-56404044D01*
X91488681Y-56404045D01*
X91102066Y-56521323D01*
X90700000Y-56560923D01*
X90297935Y-56521323D01*
X89911320Y-56404045D01*
X89911317Y-56404044D01*
X89555018Y-56213598D01*
X89555014Y-56213595D01*
X89242708Y-55957293D01*
X88986406Y-55644987D01*
X88986405Y-55644986D01*
X88986403Y-55644983D01*
X88795956Y-55288684D01*
X88682435Y-54914453D01*
X88678677Y-54902066D01*
X88649000Y-54600750D01*
X88649000Y-53399251D01*
X88649540Y-53393773D01*
X88670693Y-53179000D01*
X88678677Y-53097935D01*
X88795955Y-52711320D01*
X88795956Y-52711316D01*
X88986402Y-52355017D01*
X88986405Y-52355013D01*
X89242707Y-52042707D01*
X89555013Y-51786405D01*
X89555014Y-51786404D01*
X89555017Y-51786402D01*
X89911316Y-51595956D01*
X89911319Y-51595955D01*
X90297934Y-51478677D01*
X90700000Y-51439077D01*
X91102065Y-51478677D01*
X91102065Y-51478677D01*
G37*
G36*
X86402065Y-51478677D02*
G01*
X86688085Y-51565440D01*
X86788684Y-51595956D01*
X87144983Y-51786402D01*
X87144986Y-51786404D01*
X87144987Y-51786405D01*
X87457293Y-52042707D01*
X87713595Y-52355013D01*
X87713598Y-52355017D01*
X87904044Y-52711316D01*
X87904045Y-52711319D01*
X88021323Y-53097934D01*
X88029307Y-53179000D01*
X88051000Y-53399249D01*
X88051000Y-54600750D01*
X88041108Y-54701188D01*
X88021323Y-54902065D01*
X87936282Y-55182409D01*
X87904044Y-55288684D01*
X87713598Y-55644983D01*
X87713596Y-55644986D01*
X87713595Y-55644987D01*
X87457293Y-55957293D01*
X87144987Y-56213595D01*
X87144983Y-56213598D01*
X86788684Y-56404044D01*
X86788681Y-56404045D01*
X86402066Y-56521323D01*
X86000000Y-56560923D01*
X85597935Y-56521323D01*
X85211320Y-56404045D01*
X85211317Y-56404044D01*
X84855018Y-56213598D01*
X84855014Y-56213595D01*
X84542708Y-55957293D01*
X84286406Y-55644987D01*
X84286405Y-55644986D01*
X84286403Y-55644983D01*
X84095956Y-55288684D01*
X83982435Y-54914453D01*
X83978677Y-54902066D01*
X83949000Y-54600750D01*
X83949000Y-53399251D01*
X83949540Y-53393773D01*
X83970693Y-53179000D01*
X83978677Y-53097935D01*
X84095955Y-52711320D01*
X84095956Y-52711316D01*
X84286402Y-52355017D01*
X84286405Y-52355013D01*
X84542707Y-52042707D01*
X84855013Y-51786405D01*
X84855014Y-51786404D01*
X84855017Y-51786402D01*
X85211316Y-51595956D01*
X85211319Y-51595955D01*
X85597934Y-51478677D01*
X86000000Y-51439077D01*
X86402065Y-51478677D01*
X86402065Y-51478677D01*
G37*
G36*
X147774585Y-53208802D02*
G01*
X147924410Y-53238604D01*
X148206674Y-53355521D01*
X148460705Y-53525259D01*
X148676741Y-53741295D01*
X148846479Y-53995326D01*
X148963396Y-54277590D01*
X148963396Y-54277591D01*
X149023000Y-54577239D01*
X149023000Y-54882761D01*
X149019160Y-54902064D01*
X148963396Y-55182410D01*
X148846479Y-55464674D01*
X148676741Y-55718705D01*
X148460705Y-55934741D01*
X148206674Y-56104479D01*
X147924410Y-56221396D01*
X147774585Y-56251198D01*
X147624761Y-56281000D01*
X147319239Y-56281000D01*
X147169415Y-56251198D01*
X147019590Y-56221396D01*
X146737326Y-56104479D01*
X146483295Y-55934741D01*
X146267259Y-55718705D01*
X146097521Y-55464674D01*
X145980604Y-55182410D01*
X145924840Y-54902064D01*
X145921000Y-54882761D01*
X145921000Y-54577239D01*
X145980604Y-54277591D01*
X145980604Y-54277590D01*
X146097521Y-53995326D01*
X146267259Y-53741295D01*
X146483295Y-53525259D01*
X146737326Y-53355521D01*
X147019590Y-53238604D01*
X147169415Y-53208802D01*
X147319239Y-53179000D01*
X147624761Y-53179000D01*
X147774585Y-53208802D01*
X147774585Y-53208802D01*
G37*
G36*
X102681000Y-54951000D02*
G01*
X100779000Y-54951000D01*
X100779000Y-53049000D01*
X102681000Y-53049000D01*
X102681000Y-54951000D01*
X102681000Y-54951000D01*
G37*
G36*
X104547395Y-53085546D02*
G01*
X104720466Y-53157234D01*
X104720467Y-53157235D01*
X104876227Y-53261310D01*
X105008690Y-53393773D01*
X105012350Y-53399251D01*
X105112766Y-53549534D01*
X105184454Y-53722605D01*
X105221000Y-53906333D01*
X105221000Y-54093667D01*
X105184454Y-54277395D01*
X105112766Y-54450466D01*
X105112765Y-54450467D01*
X105008690Y-54606227D01*
X104876227Y-54738690D01*
X104797818Y-54791081D01*
X104720466Y-54842766D01*
X104547395Y-54914454D01*
X104363667Y-54951000D01*
X104176333Y-54951000D01*
X103992605Y-54914454D01*
X103819534Y-54842766D01*
X103742182Y-54791081D01*
X103663773Y-54738690D01*
X103531310Y-54606227D01*
X103427235Y-54450467D01*
X103427234Y-54450466D01*
X103355546Y-54277395D01*
X103319000Y-54093667D01*
X103319000Y-53906333D01*
X103355546Y-53722605D01*
X103427234Y-53549534D01*
X103527650Y-53399251D01*
X103531310Y-53393773D01*
X103663773Y-53261310D01*
X103819533Y-53157235D01*
X103819534Y-53157234D01*
X103992605Y-53085546D01*
X104176333Y-53049000D01*
X104363667Y-53049000D01*
X104547395Y-53085546D01*
X104547395Y-53085546D01*
G37*
G36*
X95681000Y-54951000D02*
G01*
X93779000Y-54951000D01*
X93779000Y-53049000D01*
X95681000Y-53049000D01*
X95681000Y-54951000D01*
X95681000Y-54951000D01*
G37*
G36*
X97547395Y-53085546D02*
G01*
X97720466Y-53157234D01*
X97720467Y-53157235D01*
X97876227Y-53261310D01*
X98008690Y-53393773D01*
X98012350Y-53399251D01*
X98112766Y-53549534D01*
X98184454Y-53722605D01*
X98221000Y-53906333D01*
X98221000Y-54093667D01*
X98184454Y-54277395D01*
X98112766Y-54450466D01*
X98112765Y-54450467D01*
X98008690Y-54606227D01*
X97876227Y-54738690D01*
X97797818Y-54791081D01*
X97720466Y-54842766D01*
X97547395Y-54914454D01*
X97363667Y-54951000D01*
X97176333Y-54951000D01*
X96992605Y-54914454D01*
X96819534Y-54842766D01*
X96742182Y-54791081D01*
X96663773Y-54738690D01*
X96531310Y-54606227D01*
X96427235Y-54450467D01*
X96427234Y-54450466D01*
X96355546Y-54277395D01*
X96319000Y-54093667D01*
X96319000Y-53906333D01*
X96355546Y-53722605D01*
X96427234Y-53549534D01*
X96527650Y-53399251D01*
X96531310Y-53393773D01*
X96663773Y-53261310D01*
X96819533Y-53157235D01*
X96819534Y-53157234D01*
X96992605Y-53085546D01*
X97176333Y-53049000D01*
X97363667Y-53049000D01*
X97547395Y-53085546D01*
X97547395Y-53085546D01*
G37*
G36*
X138288915Y-48991334D02*
G01*
X138397491Y-49024271D01*
X138397494Y-49024272D01*
X138433600Y-49043571D01*
X138497556Y-49077756D01*
X138585264Y-49149736D01*
X138657244Y-49237443D01*
X138691429Y-49301399D01*
X138710728Y-49337505D01*
X138710729Y-49337508D01*
X138743666Y-49446084D01*
X138752000Y-49530702D01*
X138752000Y-50037297D01*
X138743666Y-50121916D01*
X138711252Y-50228767D01*
X138710728Y-50230495D01*
X138700761Y-50249141D01*
X138657244Y-50330557D01*
X138585264Y-50418264D01*
X138497557Y-50490244D01*
X138433601Y-50524429D01*
X138397495Y-50543728D01*
X138397492Y-50543729D01*
X138288916Y-50576666D01*
X138176000Y-50587787D01*
X138063085Y-50576666D01*
X137954509Y-50543729D01*
X137954506Y-50543728D01*
X137918400Y-50524429D01*
X137854444Y-50490244D01*
X137766737Y-50418264D01*
X137694757Y-50330557D01*
X137651239Y-50249141D01*
X137637625Y-50228766D01*
X137620298Y-50211439D01*
X137599924Y-50197826D01*
X137577285Y-50188448D01*
X137553252Y-50183668D01*
X137528748Y-50183668D01*
X137504715Y-50188448D01*
X137482076Y-50197826D01*
X137461701Y-50211440D01*
X137444374Y-50228767D01*
X137430761Y-50249141D01*
X137387244Y-50330557D01*
X137315264Y-50418264D01*
X137227557Y-50490244D01*
X137163601Y-50524429D01*
X137127495Y-50543728D01*
X137127492Y-50543729D01*
X137018916Y-50576666D01*
X136906000Y-50587787D01*
X136793085Y-50576666D01*
X136684509Y-50543729D01*
X136684506Y-50543728D01*
X136648400Y-50524429D01*
X136584444Y-50490244D01*
X136496737Y-50418264D01*
X136433622Y-50341359D01*
X136416297Y-50324034D01*
X136395923Y-50310420D01*
X136373284Y-50301043D01*
X136349250Y-50296263D01*
X136324746Y-50296263D01*
X136300713Y-50301044D01*
X136278074Y-50310421D01*
X136257700Y-50324035D01*
X136240373Y-50341362D01*
X136226759Y-50361736D01*
X136217382Y-50384375D01*
X136212000Y-50420660D01*
X136212000Y-50585000D01*
X135060000Y-50585000D01*
X135060000Y-48983000D01*
X136212000Y-48983000D01*
X136212000Y-49147341D01*
X136214402Y-49171727D01*
X136221515Y-49195176D01*
X136233066Y-49216787D01*
X136248611Y-49235729D01*
X136267553Y-49251274D01*
X136289164Y-49262825D01*
X136312613Y-49269938D01*
X136336999Y-49272340D01*
X136361385Y-49269938D01*
X136384834Y-49262825D01*
X136406445Y-49251274D01*
X136425387Y-49235729D01*
X136433608Y-49226657D01*
X136496736Y-49149736D01*
X136584443Y-49077756D01*
X136648399Y-49043571D01*
X136684505Y-49024272D01*
X136684508Y-49024271D01*
X136793084Y-48991334D01*
X136906000Y-48980213D01*
X137018915Y-48991334D01*
X137127491Y-49024271D01*
X137127494Y-49024272D01*
X137163600Y-49043571D01*
X137227556Y-49077756D01*
X137315264Y-49149736D01*
X137387244Y-49237443D01*
X137430761Y-49318859D01*
X137444375Y-49339234D01*
X137461702Y-49356561D01*
X137482076Y-49370174D01*
X137504715Y-49379552D01*
X137528748Y-49384332D01*
X137553252Y-49384332D01*
X137577285Y-49379552D01*
X137599924Y-49370174D01*
X137620299Y-49356560D01*
X137637626Y-49339233D01*
X137651239Y-49318860D01*
X137694756Y-49237444D01*
X137766736Y-49149736D01*
X137854443Y-49077756D01*
X137918399Y-49043571D01*
X137954505Y-49024272D01*
X137954508Y-49024271D01*
X138063084Y-48991334D01*
X138176000Y-48980213D01*
X138288915Y-48991334D01*
X138288915Y-48991334D01*
G37*
G36*
X114692883Y-44469833D02*
G01*
X114853302Y-44518496D01*
X114985966Y-44589406D01*
X115001138Y-44597516D01*
X115130719Y-44703861D01*
X115237064Y-44833442D01*
X115237065Y-44833444D01*
X115316084Y-44981278D01*
X115364747Y-45141697D01*
X115381177Y-45308520D01*
X115364747Y-45475343D01*
X115316084Y-45635762D01*
X115245174Y-45768426D01*
X115237064Y-45783598D01*
X115130719Y-45913179D01*
X115001138Y-46019524D01*
X115001136Y-46019525D01*
X114853302Y-46098544D01*
X114692883Y-46147207D01*
X114567864Y-46159520D01*
X114484256Y-46159520D01*
X114359237Y-46147207D01*
X114198818Y-46098544D01*
X114050984Y-46019525D01*
X114050982Y-46019524D01*
X113921401Y-45913179D01*
X113815056Y-45783598D01*
X113806946Y-45768426D01*
X113736036Y-45635762D01*
X113687373Y-45475343D01*
X113670943Y-45308520D01*
X113687373Y-45141697D01*
X113736036Y-44981278D01*
X113815055Y-44833444D01*
X113815056Y-44833442D01*
X113921401Y-44703861D01*
X114050982Y-44597516D01*
X114066154Y-44589406D01*
X114198818Y-44518496D01*
X114359237Y-44469833D01*
X114484256Y-44457520D01*
X114567864Y-44457520D01*
X114692883Y-44469833D01*
X114692883Y-44469833D01*
G37*
G36*
X119772883Y-44469833D02*
G01*
X119933302Y-44518496D01*
X120065966Y-44589406D01*
X120081138Y-44597516D01*
X120210719Y-44703861D01*
X120317064Y-44833442D01*
X120317065Y-44833444D01*
X120396084Y-44981278D01*
X120444747Y-45141697D01*
X120461177Y-45308520D01*
X120444747Y-45475343D01*
X120396084Y-45635762D01*
X120325174Y-45768426D01*
X120317064Y-45783598D01*
X120210719Y-45913179D01*
X120081138Y-46019524D01*
X120081136Y-46019525D01*
X119933302Y-46098544D01*
X119772883Y-46147207D01*
X119647864Y-46159520D01*
X119564256Y-46159520D01*
X119439237Y-46147207D01*
X119278818Y-46098544D01*
X119130984Y-46019525D01*
X119130982Y-46019524D01*
X119001401Y-45913179D01*
X118895056Y-45783598D01*
X118886946Y-45768426D01*
X118816036Y-45635762D01*
X118767373Y-45475343D01*
X118750943Y-45308520D01*
X118767373Y-45141697D01*
X118816036Y-44981278D01*
X118895055Y-44833444D01*
X118895056Y-44833442D01*
X119001401Y-44703861D01*
X119130982Y-44597516D01*
X119146154Y-44589406D01*
X119278818Y-44518496D01*
X119439237Y-44469833D01*
X119564256Y-44457520D01*
X119647864Y-44457520D01*
X119772883Y-44469833D01*
X119772883Y-44469833D01*
G37*
G36*
X122312883Y-44469833D02*
G01*
X122473302Y-44518496D01*
X122605966Y-44589406D01*
X122621138Y-44597516D01*
X122750719Y-44703861D01*
X122857064Y-44833442D01*
X122857065Y-44833444D01*
X122936084Y-44981278D01*
X122984747Y-45141697D01*
X123001177Y-45308520D01*
X122984747Y-45475343D01*
X122936084Y-45635762D01*
X122865174Y-45768426D01*
X122857064Y-45783598D01*
X122750719Y-45913179D01*
X122621138Y-46019524D01*
X122621136Y-46019525D01*
X122473302Y-46098544D01*
X122312883Y-46147207D01*
X122187864Y-46159520D01*
X122104256Y-46159520D01*
X121979237Y-46147207D01*
X121818818Y-46098544D01*
X121670984Y-46019525D01*
X121670982Y-46019524D01*
X121541401Y-45913179D01*
X121435056Y-45783598D01*
X121426946Y-45768426D01*
X121356036Y-45635762D01*
X121307373Y-45475343D01*
X121290943Y-45308520D01*
X121307373Y-45141697D01*
X121356036Y-44981278D01*
X121435055Y-44833444D01*
X121435056Y-44833442D01*
X121541401Y-44703861D01*
X121670982Y-44597516D01*
X121686154Y-44589406D01*
X121818818Y-44518496D01*
X121979237Y-44469833D01*
X122104256Y-44457520D01*
X122187864Y-44457520D01*
X122312883Y-44469833D01*
X122312883Y-44469833D01*
G37*
G36*
X145172883Y-44469833D02*
G01*
X145333302Y-44518496D01*
X145465966Y-44589406D01*
X145481138Y-44597516D01*
X145610719Y-44703861D01*
X145717064Y-44833442D01*
X145717065Y-44833444D01*
X145796084Y-44981278D01*
X145844747Y-45141697D01*
X145861177Y-45308520D01*
X145844747Y-45475343D01*
X145796084Y-45635762D01*
X145725174Y-45768426D01*
X145717064Y-45783598D01*
X145610719Y-45913179D01*
X145481138Y-46019524D01*
X145481136Y-46019525D01*
X145333302Y-46098544D01*
X145172883Y-46147207D01*
X145047864Y-46159520D01*
X144964256Y-46159520D01*
X144839237Y-46147207D01*
X144678818Y-46098544D01*
X144530984Y-46019525D01*
X144530982Y-46019524D01*
X144401401Y-45913179D01*
X144295056Y-45783598D01*
X144286946Y-45768426D01*
X144216036Y-45635762D01*
X144167373Y-45475343D01*
X144150943Y-45308520D01*
X144167373Y-45141697D01*
X144216036Y-44981278D01*
X144295055Y-44833444D01*
X144295056Y-44833442D01*
X144401401Y-44703861D01*
X144530982Y-44597516D01*
X144546154Y-44589406D01*
X144678818Y-44518496D01*
X144839237Y-44469833D01*
X144964256Y-44457520D01*
X145047864Y-44457520D01*
X145172883Y-44469833D01*
X145172883Y-44469833D01*
G37*
G36*
X124852883Y-44469833D02*
G01*
X125013302Y-44518496D01*
X125145966Y-44589406D01*
X125161138Y-44597516D01*
X125290719Y-44703861D01*
X125397064Y-44833442D01*
X125397065Y-44833444D01*
X125476084Y-44981278D01*
X125524747Y-45141697D01*
X125541177Y-45308520D01*
X125524747Y-45475343D01*
X125476084Y-45635762D01*
X125405174Y-45768426D01*
X125397064Y-45783598D01*
X125290719Y-45913179D01*
X125161138Y-46019524D01*
X125161136Y-46019525D01*
X125013302Y-46098544D01*
X124852883Y-46147207D01*
X124727864Y-46159520D01*
X124644256Y-46159520D01*
X124519237Y-46147207D01*
X124358818Y-46098544D01*
X124210984Y-46019525D01*
X124210982Y-46019524D01*
X124081401Y-45913179D01*
X123975056Y-45783598D01*
X123966946Y-45768426D01*
X123896036Y-45635762D01*
X123847373Y-45475343D01*
X123830943Y-45308520D01*
X123847373Y-45141697D01*
X123896036Y-44981278D01*
X123975055Y-44833444D01*
X123975056Y-44833442D01*
X124081401Y-44703861D01*
X124210982Y-44597516D01*
X124226154Y-44589406D01*
X124358818Y-44518496D01*
X124519237Y-44469833D01*
X124644256Y-44457520D01*
X124727864Y-44457520D01*
X124852883Y-44469833D01*
X124852883Y-44469833D01*
G37*
G36*
X127392883Y-44469833D02*
G01*
X127553302Y-44518496D01*
X127685966Y-44589406D01*
X127701138Y-44597516D01*
X127830719Y-44703861D01*
X127937064Y-44833442D01*
X127937065Y-44833444D01*
X128016084Y-44981278D01*
X128064747Y-45141697D01*
X128081177Y-45308520D01*
X128064747Y-45475343D01*
X128016084Y-45635762D01*
X127945174Y-45768426D01*
X127937064Y-45783598D01*
X127830719Y-45913179D01*
X127701138Y-46019524D01*
X127701136Y-46019525D01*
X127553302Y-46098544D01*
X127392883Y-46147207D01*
X127267864Y-46159520D01*
X127184256Y-46159520D01*
X127059237Y-46147207D01*
X126898818Y-46098544D01*
X126750984Y-46019525D01*
X126750982Y-46019524D01*
X126621401Y-45913179D01*
X126515056Y-45783598D01*
X126506946Y-45768426D01*
X126436036Y-45635762D01*
X126387373Y-45475343D01*
X126370943Y-45308520D01*
X126387373Y-45141697D01*
X126436036Y-44981278D01*
X126515055Y-44833444D01*
X126515056Y-44833442D01*
X126621401Y-44703861D01*
X126750982Y-44597516D01*
X126766154Y-44589406D01*
X126898818Y-44518496D01*
X127059237Y-44469833D01*
X127184256Y-44457520D01*
X127267864Y-44457520D01*
X127392883Y-44469833D01*
X127392883Y-44469833D01*
G37*
G36*
X129932883Y-44469833D02*
G01*
X130093302Y-44518496D01*
X130225966Y-44589406D01*
X130241138Y-44597516D01*
X130370719Y-44703861D01*
X130477064Y-44833442D01*
X130477065Y-44833444D01*
X130556084Y-44981278D01*
X130604747Y-45141697D01*
X130621177Y-45308520D01*
X130604747Y-45475343D01*
X130556084Y-45635762D01*
X130485174Y-45768426D01*
X130477064Y-45783598D01*
X130370719Y-45913179D01*
X130241138Y-46019524D01*
X130241136Y-46019525D01*
X130093302Y-46098544D01*
X129932883Y-46147207D01*
X129807864Y-46159520D01*
X129724256Y-46159520D01*
X129599237Y-46147207D01*
X129438818Y-46098544D01*
X129290984Y-46019525D01*
X129290982Y-46019524D01*
X129161401Y-45913179D01*
X129055056Y-45783598D01*
X129046946Y-45768426D01*
X128976036Y-45635762D01*
X128927373Y-45475343D01*
X128910943Y-45308520D01*
X128927373Y-45141697D01*
X128976036Y-44981278D01*
X129055055Y-44833444D01*
X129055056Y-44833442D01*
X129161401Y-44703861D01*
X129290982Y-44597516D01*
X129306154Y-44589406D01*
X129438818Y-44518496D01*
X129599237Y-44469833D01*
X129724256Y-44457520D01*
X129807864Y-44457520D01*
X129932883Y-44469833D01*
X129932883Y-44469833D01*
G37*
G36*
X132472883Y-44469833D02*
G01*
X132633302Y-44518496D01*
X132765966Y-44589406D01*
X132781138Y-44597516D01*
X132910719Y-44703861D01*
X133017064Y-44833442D01*
X133017065Y-44833444D01*
X133096084Y-44981278D01*
X133144747Y-45141697D01*
X133161177Y-45308520D01*
X133144747Y-45475343D01*
X133096084Y-45635762D01*
X133025174Y-45768426D01*
X133017064Y-45783598D01*
X132910719Y-45913179D01*
X132781138Y-46019524D01*
X132781136Y-46019525D01*
X132633302Y-46098544D01*
X132472883Y-46147207D01*
X132347864Y-46159520D01*
X132264256Y-46159520D01*
X132139237Y-46147207D01*
X131978818Y-46098544D01*
X131830984Y-46019525D01*
X131830982Y-46019524D01*
X131701401Y-45913179D01*
X131595056Y-45783598D01*
X131586946Y-45768426D01*
X131516036Y-45635762D01*
X131467373Y-45475343D01*
X131450943Y-45308520D01*
X131467373Y-45141697D01*
X131516036Y-44981278D01*
X131595055Y-44833444D01*
X131595056Y-44833442D01*
X131701401Y-44703861D01*
X131830982Y-44597516D01*
X131846154Y-44589406D01*
X131978818Y-44518496D01*
X132139237Y-44469833D01*
X132264256Y-44457520D01*
X132347864Y-44457520D01*
X132472883Y-44469833D01*
X132472883Y-44469833D01*
G37*
G36*
X137552883Y-44469833D02*
G01*
X137713302Y-44518496D01*
X137845966Y-44589406D01*
X137861138Y-44597516D01*
X137990719Y-44703861D01*
X138097064Y-44833442D01*
X138097065Y-44833444D01*
X138176084Y-44981278D01*
X138224747Y-45141697D01*
X138241177Y-45308520D01*
X138224747Y-45475343D01*
X138176084Y-45635762D01*
X138105174Y-45768426D01*
X138097064Y-45783598D01*
X137990719Y-45913179D01*
X137861138Y-46019524D01*
X137861136Y-46019525D01*
X137713302Y-46098544D01*
X137552883Y-46147207D01*
X137427864Y-46159520D01*
X137344256Y-46159520D01*
X137219237Y-46147207D01*
X137058818Y-46098544D01*
X136910984Y-46019525D01*
X136910982Y-46019524D01*
X136781401Y-45913179D01*
X136675056Y-45783598D01*
X136666946Y-45768426D01*
X136596036Y-45635762D01*
X136547373Y-45475343D01*
X136530943Y-45308520D01*
X136547373Y-45141697D01*
X136596036Y-44981278D01*
X136675055Y-44833444D01*
X136675056Y-44833442D01*
X136781401Y-44703861D01*
X136910982Y-44597516D01*
X136926154Y-44589406D01*
X137058818Y-44518496D01*
X137219237Y-44469833D01*
X137344256Y-44457520D01*
X137427864Y-44457520D01*
X137552883Y-44469833D01*
X137552883Y-44469833D01*
G37*
G36*
X140092883Y-44469833D02*
G01*
X140253302Y-44518496D01*
X140385966Y-44589406D01*
X140401138Y-44597516D01*
X140530719Y-44703861D01*
X140637064Y-44833442D01*
X140637065Y-44833444D01*
X140716084Y-44981278D01*
X140764747Y-45141697D01*
X140781177Y-45308520D01*
X140764747Y-45475343D01*
X140716084Y-45635762D01*
X140645174Y-45768426D01*
X140637064Y-45783598D01*
X140530719Y-45913179D01*
X140401138Y-46019524D01*
X140401136Y-46019525D01*
X140253302Y-46098544D01*
X140092883Y-46147207D01*
X139967864Y-46159520D01*
X139884256Y-46159520D01*
X139759237Y-46147207D01*
X139598818Y-46098544D01*
X139450984Y-46019525D01*
X139450982Y-46019524D01*
X139321401Y-45913179D01*
X139215056Y-45783598D01*
X139206946Y-45768426D01*
X139136036Y-45635762D01*
X139087373Y-45475343D01*
X139070943Y-45308520D01*
X139087373Y-45141697D01*
X139136036Y-44981278D01*
X139215055Y-44833444D01*
X139215056Y-44833442D01*
X139321401Y-44703861D01*
X139450982Y-44597516D01*
X139466154Y-44589406D01*
X139598818Y-44518496D01*
X139759237Y-44469833D01*
X139884256Y-44457520D01*
X139967864Y-44457520D01*
X140092883Y-44469833D01*
X140092883Y-44469833D01*
G37*
G36*
X142632883Y-44469833D02*
G01*
X142793302Y-44518496D01*
X142925966Y-44589406D01*
X142941138Y-44597516D01*
X143070719Y-44703861D01*
X143177064Y-44833442D01*
X143177065Y-44833444D01*
X143256084Y-44981278D01*
X143304747Y-45141697D01*
X143321177Y-45308520D01*
X143304747Y-45475343D01*
X143256084Y-45635762D01*
X143185174Y-45768426D01*
X143177064Y-45783598D01*
X143070719Y-45913179D01*
X142941138Y-46019524D01*
X142941136Y-46019525D01*
X142793302Y-46098544D01*
X142632883Y-46147207D01*
X142507864Y-46159520D01*
X142424256Y-46159520D01*
X142299237Y-46147207D01*
X142138818Y-46098544D01*
X141990984Y-46019525D01*
X141990982Y-46019524D01*
X141861401Y-45913179D01*
X141755056Y-45783598D01*
X141746946Y-45768426D01*
X141676036Y-45635762D01*
X141627373Y-45475343D01*
X141610943Y-45308520D01*
X141627373Y-45141697D01*
X141676036Y-44981278D01*
X141755055Y-44833444D01*
X141755056Y-44833442D01*
X141861401Y-44703861D01*
X141990982Y-44597516D01*
X142006154Y-44589406D01*
X142138818Y-44518496D01*
X142299237Y-44469833D01*
X142424256Y-44457520D01*
X142507864Y-44457520D01*
X142632883Y-44469833D01*
X142632883Y-44469833D01*
G37*
G36*
X147712883Y-44469833D02*
G01*
X147873302Y-44518496D01*
X148005966Y-44589406D01*
X148021138Y-44597516D01*
X148150719Y-44703861D01*
X148257064Y-44833442D01*
X148257065Y-44833444D01*
X148336084Y-44981278D01*
X148384747Y-45141697D01*
X148401177Y-45308520D01*
X148384747Y-45475343D01*
X148336084Y-45635762D01*
X148265174Y-45768426D01*
X148257064Y-45783598D01*
X148150719Y-45913179D01*
X148021138Y-46019524D01*
X148021136Y-46019525D01*
X147873302Y-46098544D01*
X147712883Y-46147207D01*
X147587864Y-46159520D01*
X147504256Y-46159520D01*
X147379237Y-46147207D01*
X147218818Y-46098544D01*
X147070984Y-46019525D01*
X147070982Y-46019524D01*
X146941401Y-45913179D01*
X146835056Y-45783598D01*
X146826946Y-45768426D01*
X146756036Y-45635762D01*
X146707373Y-45475343D01*
X146690943Y-45308520D01*
X146707373Y-45141697D01*
X146756036Y-44981278D01*
X146835055Y-44833444D01*
X146835056Y-44833442D01*
X146941401Y-44703861D01*
X147070982Y-44597516D01*
X147086154Y-44589406D01*
X147218818Y-44518496D01*
X147379237Y-44469833D01*
X147504256Y-44457520D01*
X147587864Y-44457520D01*
X147712883Y-44469833D01*
X147712883Y-44469833D01*
G37*
G36*
X135012883Y-44469833D02*
G01*
X135173302Y-44518496D01*
X135305966Y-44589406D01*
X135321138Y-44597516D01*
X135450719Y-44703861D01*
X135557064Y-44833442D01*
X135557065Y-44833444D01*
X135636084Y-44981278D01*
X135684747Y-45141697D01*
X135701177Y-45308520D01*
X135684747Y-45475343D01*
X135636084Y-45635762D01*
X135565174Y-45768426D01*
X135557064Y-45783598D01*
X135450719Y-45913179D01*
X135321138Y-46019524D01*
X135321136Y-46019525D01*
X135173302Y-46098544D01*
X135012883Y-46147207D01*
X134887864Y-46159520D01*
X134804256Y-46159520D01*
X134679237Y-46147207D01*
X134518818Y-46098544D01*
X134370984Y-46019525D01*
X134370982Y-46019524D01*
X134241401Y-45913179D01*
X134135056Y-45783598D01*
X134126946Y-45768426D01*
X134056036Y-45635762D01*
X134007373Y-45475343D01*
X133990943Y-45308520D01*
X134007373Y-45141697D01*
X134056036Y-44981278D01*
X134135055Y-44833444D01*
X134135056Y-44833442D01*
X134241401Y-44703861D01*
X134370982Y-44597516D01*
X134386154Y-44589406D01*
X134518818Y-44518496D01*
X134679237Y-44469833D01*
X134804256Y-44457520D01*
X134887864Y-44457520D01*
X135012883Y-44469833D01*
X135012883Y-44469833D01*
G37*
G36*
X117232883Y-44469833D02*
G01*
X117393302Y-44518496D01*
X117525966Y-44589406D01*
X117541138Y-44597516D01*
X117670719Y-44703861D01*
X117777064Y-44833442D01*
X117777065Y-44833444D01*
X117856084Y-44981278D01*
X117904747Y-45141697D01*
X117921177Y-45308520D01*
X117904747Y-45475343D01*
X117856084Y-45635762D01*
X117785174Y-45768426D01*
X117777064Y-45783598D01*
X117670719Y-45913179D01*
X117541138Y-46019524D01*
X117541136Y-46019525D01*
X117393302Y-46098544D01*
X117232883Y-46147207D01*
X117107864Y-46159520D01*
X117024256Y-46159520D01*
X116899237Y-46147207D01*
X116738818Y-46098544D01*
X116590984Y-46019525D01*
X116590982Y-46019524D01*
X116461401Y-45913179D01*
X116355056Y-45783598D01*
X116346946Y-45768426D01*
X116276036Y-45635762D01*
X116227373Y-45475343D01*
X116210943Y-45308520D01*
X116227373Y-45141697D01*
X116276036Y-44981278D01*
X116355055Y-44833444D01*
X116355056Y-44833442D01*
X116461401Y-44703861D01*
X116590982Y-44597516D01*
X116606154Y-44589406D01*
X116738818Y-44518496D01*
X116899237Y-44469833D01*
X117024256Y-44457520D01*
X117107864Y-44457520D01*
X117232883Y-44469833D01*
X117232883Y-44469833D01*
G37*
G36*
X91102065Y-37478677D02*
G01*
X91388085Y-37565440D01*
X91488684Y-37595956D01*
X91844983Y-37786402D01*
X91844986Y-37786404D01*
X91844987Y-37786405D01*
X92157293Y-38042707D01*
X92362849Y-38293179D01*
X92413598Y-38355017D01*
X92604044Y-38711316D01*
X92604045Y-38711319D01*
X92721323Y-39097934D01*
X92737414Y-39261309D01*
X92751000Y-39399249D01*
X92751000Y-40600750D01*
X92741108Y-40701188D01*
X92721323Y-40902065D01*
X92634560Y-41188085D01*
X92604044Y-41288684D01*
X92413598Y-41644983D01*
X92413596Y-41644986D01*
X92413595Y-41644987D01*
X92157293Y-41957293D01*
X91844987Y-42213595D01*
X91844983Y-42213598D01*
X91488684Y-42404044D01*
X91488681Y-42404045D01*
X91102066Y-42521323D01*
X90700000Y-42560923D01*
X90297935Y-42521323D01*
X89911320Y-42404045D01*
X89911317Y-42404044D01*
X89555018Y-42213598D01*
X89555014Y-42213595D01*
X89242708Y-41957293D01*
X88986406Y-41644987D01*
X88986405Y-41644986D01*
X88986403Y-41644983D01*
X88795956Y-41288684D01*
X88682435Y-40914453D01*
X88678677Y-40902066D01*
X88649000Y-40600750D01*
X88649000Y-39399251D01*
X88649540Y-39393773D01*
X88662586Y-39261309D01*
X88678677Y-39097935D01*
X88795955Y-38711320D01*
X88795956Y-38711316D01*
X88986402Y-38355017D01*
X89037151Y-38293179D01*
X89242707Y-38042707D01*
X89555013Y-37786405D01*
X89555014Y-37786404D01*
X89555017Y-37786402D01*
X89911316Y-37595956D01*
X89911319Y-37595955D01*
X90297934Y-37478677D01*
X90700000Y-37439077D01*
X91102065Y-37478677D01*
X91102065Y-37478677D01*
G37*
G36*
X81702065Y-37478677D02*
G01*
X81988085Y-37565440D01*
X82088684Y-37595956D01*
X82444983Y-37786402D01*
X82444986Y-37786404D01*
X82444987Y-37786405D01*
X82757293Y-38042707D01*
X82962849Y-38293179D01*
X83013598Y-38355017D01*
X83204044Y-38711316D01*
X83204045Y-38711319D01*
X83321323Y-39097934D01*
X83337414Y-39261309D01*
X83351000Y-39399249D01*
X83351000Y-40600750D01*
X83341108Y-40701188D01*
X83321323Y-40902065D01*
X83234560Y-41188085D01*
X83204044Y-41288684D01*
X83013598Y-41644983D01*
X83013596Y-41644986D01*
X83013595Y-41644987D01*
X82757293Y-41957293D01*
X82444987Y-42213595D01*
X82444983Y-42213598D01*
X82088684Y-42404044D01*
X82088681Y-42404045D01*
X81702066Y-42521323D01*
X81300000Y-42560923D01*
X80897935Y-42521323D01*
X80511320Y-42404045D01*
X80511317Y-42404044D01*
X80155018Y-42213598D01*
X80155014Y-42213595D01*
X79842708Y-41957293D01*
X79586406Y-41644987D01*
X79586405Y-41644986D01*
X79586403Y-41644983D01*
X79395956Y-41288684D01*
X79282435Y-40914453D01*
X79278677Y-40902066D01*
X79249000Y-40600750D01*
X79249000Y-39399251D01*
X79249540Y-39393773D01*
X79262586Y-39261309D01*
X79278677Y-39097935D01*
X79395955Y-38711320D01*
X79395956Y-38711316D01*
X79586402Y-38355017D01*
X79637151Y-38293179D01*
X79842707Y-38042707D01*
X80155013Y-37786405D01*
X80155014Y-37786404D01*
X80155017Y-37786402D01*
X80511316Y-37595956D01*
X80511319Y-37595955D01*
X80897934Y-37478677D01*
X81300000Y-37439077D01*
X81702065Y-37478677D01*
X81702065Y-37478677D01*
G37*
G36*
X86402065Y-37478677D02*
G01*
X86688085Y-37565440D01*
X86788684Y-37595956D01*
X87144983Y-37786402D01*
X87144986Y-37786404D01*
X87144987Y-37786405D01*
X87457293Y-38042707D01*
X87662849Y-38293179D01*
X87713598Y-38355017D01*
X87904044Y-38711316D01*
X87904045Y-38711319D01*
X88021323Y-39097934D01*
X88037414Y-39261309D01*
X88051000Y-39399249D01*
X88051000Y-40600750D01*
X88041108Y-40701188D01*
X88021323Y-40902065D01*
X87934560Y-41188085D01*
X87904044Y-41288684D01*
X87713598Y-41644983D01*
X87713596Y-41644986D01*
X87713595Y-41644987D01*
X87457293Y-41957293D01*
X87144987Y-42213595D01*
X87144983Y-42213598D01*
X86788684Y-42404044D01*
X86788681Y-42404045D01*
X86402066Y-42521323D01*
X86000000Y-42560923D01*
X85597935Y-42521323D01*
X85211320Y-42404045D01*
X85211317Y-42404044D01*
X84855018Y-42213598D01*
X84855014Y-42213595D01*
X84542708Y-41957293D01*
X84286406Y-41644987D01*
X84286405Y-41644986D01*
X84286403Y-41644983D01*
X84095956Y-41288684D01*
X83982435Y-40914453D01*
X83978677Y-40902066D01*
X83949000Y-40600750D01*
X83949000Y-39399251D01*
X83949540Y-39393773D01*
X83962586Y-39261309D01*
X83978677Y-39097935D01*
X84095955Y-38711320D01*
X84095956Y-38711316D01*
X84286402Y-38355017D01*
X84337151Y-38293179D01*
X84542707Y-38042707D01*
X84855013Y-37786405D01*
X84855014Y-37786404D01*
X84855017Y-37786402D01*
X85211316Y-37595956D01*
X85211319Y-37595955D01*
X85597934Y-37478677D01*
X86000000Y-37439077D01*
X86402065Y-37478677D01*
X86402065Y-37478677D01*
G37*
G36*
X104547395Y-39085546D02*
G01*
X104720466Y-39157234D01*
X104720467Y-39157235D01*
X104876227Y-39261310D01*
X105008690Y-39393773D01*
X105012350Y-39399251D01*
X105112766Y-39549534D01*
X105184454Y-39722605D01*
X105221000Y-39906333D01*
X105221000Y-40093667D01*
X105184454Y-40277395D01*
X105112766Y-40450466D01*
X105112765Y-40450467D01*
X105008690Y-40606227D01*
X104876227Y-40738690D01*
X104797818Y-40791081D01*
X104720466Y-40842766D01*
X104547395Y-40914454D01*
X104363667Y-40951000D01*
X104176333Y-40951000D01*
X103992605Y-40914454D01*
X103819534Y-40842766D01*
X103742182Y-40791081D01*
X103663773Y-40738690D01*
X103531310Y-40606227D01*
X103427235Y-40450467D01*
X103427234Y-40450466D01*
X103355546Y-40277395D01*
X103319000Y-40093667D01*
X103319000Y-39906333D01*
X103355546Y-39722605D01*
X103427234Y-39549534D01*
X103527650Y-39399251D01*
X103531310Y-39393773D01*
X103663773Y-39261310D01*
X103819533Y-39157235D01*
X103819534Y-39157234D01*
X103992605Y-39085546D01*
X104176333Y-39049000D01*
X104363667Y-39049000D01*
X104547395Y-39085546D01*
X104547395Y-39085546D01*
G37*
G36*
X95681000Y-40951000D02*
G01*
X93779000Y-40951000D01*
X93779000Y-39049000D01*
X95681000Y-39049000D01*
X95681000Y-40951000D01*
X95681000Y-40951000D01*
G37*
G36*
X97547395Y-39085546D02*
G01*
X97720466Y-39157234D01*
X97720467Y-39157235D01*
X97876227Y-39261310D01*
X98008690Y-39393773D01*
X98012350Y-39399251D01*
X98112766Y-39549534D01*
X98184454Y-39722605D01*
X98221000Y-39906333D01*
X98221000Y-40093667D01*
X98184454Y-40277395D01*
X98112766Y-40450466D01*
X98112765Y-40450467D01*
X98008690Y-40606227D01*
X97876227Y-40738690D01*
X97797818Y-40791081D01*
X97720466Y-40842766D01*
X97547395Y-40914454D01*
X97363667Y-40951000D01*
X97176333Y-40951000D01*
X96992605Y-40914454D01*
X96819534Y-40842766D01*
X96742182Y-40791081D01*
X96663773Y-40738690D01*
X96531310Y-40606227D01*
X96427235Y-40450467D01*
X96427234Y-40450466D01*
X96355546Y-40277395D01*
X96319000Y-40093667D01*
X96319000Y-39906333D01*
X96355546Y-39722605D01*
X96427234Y-39549534D01*
X96527650Y-39399251D01*
X96531310Y-39393773D01*
X96663773Y-39261310D01*
X96819533Y-39157235D01*
X96819534Y-39157234D01*
X96992605Y-39085546D01*
X97176333Y-39049000D01*
X97363667Y-39049000D01*
X97547395Y-39085546D01*
X97547395Y-39085546D01*
G37*
G36*
X102681000Y-40951000D02*
G01*
X100779000Y-40951000D01*
X100779000Y-39049000D01*
X102681000Y-39049000D01*
X102681000Y-40951000D01*
X102681000Y-40951000D01*
G37*
G36*
X127392883Y-36849833D02*
G01*
X127553302Y-36898496D01*
X127685966Y-36969406D01*
X127701138Y-36977516D01*
X127830719Y-37083861D01*
X127937064Y-37213442D01*
X127937065Y-37213444D01*
X128016084Y-37361278D01*
X128064747Y-37521697D01*
X128081177Y-37688520D01*
X128064747Y-37855343D01*
X128016084Y-38015762D01*
X128001681Y-38042708D01*
X127937064Y-38163598D01*
X127830719Y-38293179D01*
X127701138Y-38399524D01*
X127701136Y-38399525D01*
X127553302Y-38478544D01*
X127392883Y-38527207D01*
X127267864Y-38539520D01*
X127184256Y-38539520D01*
X127059237Y-38527207D01*
X126898818Y-38478544D01*
X126750984Y-38399525D01*
X126750982Y-38399524D01*
X126621401Y-38293179D01*
X126515056Y-38163598D01*
X126450439Y-38042708D01*
X126436036Y-38015762D01*
X126387373Y-37855343D01*
X126370943Y-37688520D01*
X126387373Y-37521697D01*
X126436036Y-37361278D01*
X126515055Y-37213444D01*
X126515056Y-37213442D01*
X126621401Y-37083861D01*
X126750982Y-36977516D01*
X126766154Y-36969406D01*
X126898818Y-36898496D01*
X127059237Y-36849833D01*
X127184256Y-36837520D01*
X127267864Y-36837520D01*
X127392883Y-36849833D01*
X127392883Y-36849833D01*
G37*
G36*
X140092883Y-36849833D02*
G01*
X140253302Y-36898496D01*
X140385966Y-36969406D01*
X140401138Y-36977516D01*
X140530719Y-37083861D01*
X140637064Y-37213442D01*
X140637065Y-37213444D01*
X140716084Y-37361278D01*
X140764747Y-37521697D01*
X140781177Y-37688520D01*
X140764747Y-37855343D01*
X140716084Y-38015762D01*
X140701681Y-38042708D01*
X140637064Y-38163598D01*
X140530719Y-38293179D01*
X140401138Y-38399524D01*
X140401136Y-38399525D01*
X140253302Y-38478544D01*
X140092883Y-38527207D01*
X139967864Y-38539520D01*
X139884256Y-38539520D01*
X139759237Y-38527207D01*
X139598818Y-38478544D01*
X139450984Y-38399525D01*
X139450982Y-38399524D01*
X139321401Y-38293179D01*
X139215056Y-38163598D01*
X139150439Y-38042708D01*
X139136036Y-38015762D01*
X139087373Y-37855343D01*
X139070943Y-37688520D01*
X139087373Y-37521697D01*
X139136036Y-37361278D01*
X139215055Y-37213444D01*
X139215056Y-37213442D01*
X139321401Y-37083861D01*
X139450982Y-36977516D01*
X139466154Y-36969406D01*
X139598818Y-36898496D01*
X139759237Y-36849833D01*
X139884256Y-36837520D01*
X139967864Y-36837520D01*
X140092883Y-36849833D01*
X140092883Y-36849833D01*
G37*
G36*
X137552883Y-36849833D02*
G01*
X137713302Y-36898496D01*
X137845966Y-36969406D01*
X137861138Y-36977516D01*
X137990719Y-37083861D01*
X138097064Y-37213442D01*
X138097065Y-37213444D01*
X138176084Y-37361278D01*
X138224747Y-37521697D01*
X138241177Y-37688520D01*
X138224747Y-37855343D01*
X138176084Y-38015762D01*
X138161681Y-38042708D01*
X138097064Y-38163598D01*
X137990719Y-38293179D01*
X137861138Y-38399524D01*
X137861136Y-38399525D01*
X137713302Y-38478544D01*
X137552883Y-38527207D01*
X137427864Y-38539520D01*
X137344256Y-38539520D01*
X137219237Y-38527207D01*
X137058818Y-38478544D01*
X136910984Y-38399525D01*
X136910982Y-38399524D01*
X136781401Y-38293179D01*
X136675056Y-38163598D01*
X136610439Y-38042708D01*
X136596036Y-38015762D01*
X136547373Y-37855343D01*
X136530943Y-37688520D01*
X136547373Y-37521697D01*
X136596036Y-37361278D01*
X136675055Y-37213444D01*
X136675056Y-37213442D01*
X136781401Y-37083861D01*
X136910982Y-36977516D01*
X136926154Y-36969406D01*
X137058818Y-36898496D01*
X137219237Y-36849833D01*
X137344256Y-36837520D01*
X137427864Y-36837520D01*
X137552883Y-36849833D01*
X137552883Y-36849833D01*
G37*
G36*
X135012883Y-36849833D02*
G01*
X135173302Y-36898496D01*
X135305966Y-36969406D01*
X135321138Y-36977516D01*
X135450719Y-37083861D01*
X135557064Y-37213442D01*
X135557065Y-37213444D01*
X135636084Y-37361278D01*
X135684747Y-37521697D01*
X135701177Y-37688520D01*
X135684747Y-37855343D01*
X135636084Y-38015762D01*
X135621681Y-38042708D01*
X135557064Y-38163598D01*
X135450719Y-38293179D01*
X135321138Y-38399524D01*
X135321136Y-38399525D01*
X135173302Y-38478544D01*
X135012883Y-38527207D01*
X134887864Y-38539520D01*
X134804256Y-38539520D01*
X134679237Y-38527207D01*
X134518818Y-38478544D01*
X134370984Y-38399525D01*
X134370982Y-38399524D01*
X134241401Y-38293179D01*
X134135056Y-38163598D01*
X134070439Y-38042708D01*
X134056036Y-38015762D01*
X134007373Y-37855343D01*
X133990943Y-37688520D01*
X134007373Y-37521697D01*
X134056036Y-37361278D01*
X134135055Y-37213444D01*
X134135056Y-37213442D01*
X134241401Y-37083861D01*
X134370982Y-36977516D01*
X134386154Y-36969406D01*
X134518818Y-36898496D01*
X134679237Y-36849833D01*
X134804256Y-36837520D01*
X134887864Y-36837520D01*
X135012883Y-36849833D01*
X135012883Y-36849833D01*
G37*
G36*
X132472883Y-36849833D02*
G01*
X132633302Y-36898496D01*
X132765966Y-36969406D01*
X132781138Y-36977516D01*
X132910719Y-37083861D01*
X133017064Y-37213442D01*
X133017065Y-37213444D01*
X133096084Y-37361278D01*
X133144747Y-37521697D01*
X133161177Y-37688520D01*
X133144747Y-37855343D01*
X133096084Y-38015762D01*
X133081681Y-38042708D01*
X133017064Y-38163598D01*
X132910719Y-38293179D01*
X132781138Y-38399524D01*
X132781136Y-38399525D01*
X132633302Y-38478544D01*
X132472883Y-38527207D01*
X132347864Y-38539520D01*
X132264256Y-38539520D01*
X132139237Y-38527207D01*
X131978818Y-38478544D01*
X131830984Y-38399525D01*
X131830982Y-38399524D01*
X131701401Y-38293179D01*
X131595056Y-38163598D01*
X131530439Y-38042708D01*
X131516036Y-38015762D01*
X131467373Y-37855343D01*
X131450943Y-37688520D01*
X131467373Y-37521697D01*
X131516036Y-37361278D01*
X131595055Y-37213444D01*
X131595056Y-37213442D01*
X131701401Y-37083861D01*
X131830982Y-36977516D01*
X131846154Y-36969406D01*
X131978818Y-36898496D01*
X132139237Y-36849833D01*
X132264256Y-36837520D01*
X132347864Y-36837520D01*
X132472883Y-36849833D01*
X132472883Y-36849833D01*
G37*
G36*
X129932883Y-36849833D02*
G01*
X130093302Y-36898496D01*
X130225966Y-36969406D01*
X130241138Y-36977516D01*
X130370719Y-37083861D01*
X130477064Y-37213442D01*
X130477065Y-37213444D01*
X130556084Y-37361278D01*
X130604747Y-37521697D01*
X130621177Y-37688520D01*
X130604747Y-37855343D01*
X130556084Y-38015762D01*
X130541681Y-38042708D01*
X130477064Y-38163598D01*
X130370719Y-38293179D01*
X130241138Y-38399524D01*
X130241136Y-38399525D01*
X130093302Y-38478544D01*
X129932883Y-38527207D01*
X129807864Y-38539520D01*
X129724256Y-38539520D01*
X129599237Y-38527207D01*
X129438818Y-38478544D01*
X129290984Y-38399525D01*
X129290982Y-38399524D01*
X129161401Y-38293179D01*
X129055056Y-38163598D01*
X128990439Y-38042708D01*
X128976036Y-38015762D01*
X128927373Y-37855343D01*
X128910943Y-37688520D01*
X128927373Y-37521697D01*
X128976036Y-37361278D01*
X129055055Y-37213444D01*
X129055056Y-37213442D01*
X129161401Y-37083861D01*
X129290982Y-36977516D01*
X129306154Y-36969406D01*
X129438818Y-36898496D01*
X129599237Y-36849833D01*
X129724256Y-36837520D01*
X129807864Y-36837520D01*
X129932883Y-36849833D01*
X129932883Y-36849833D01*
G37*
G36*
X124852883Y-36849833D02*
G01*
X125013302Y-36898496D01*
X125145966Y-36969406D01*
X125161138Y-36977516D01*
X125290719Y-37083861D01*
X125397064Y-37213442D01*
X125397065Y-37213444D01*
X125476084Y-37361278D01*
X125524747Y-37521697D01*
X125541177Y-37688520D01*
X125524747Y-37855343D01*
X125476084Y-38015762D01*
X125461681Y-38042708D01*
X125397064Y-38163598D01*
X125290719Y-38293179D01*
X125161138Y-38399524D01*
X125161136Y-38399525D01*
X125013302Y-38478544D01*
X124852883Y-38527207D01*
X124727864Y-38539520D01*
X124644256Y-38539520D01*
X124519237Y-38527207D01*
X124358818Y-38478544D01*
X124210984Y-38399525D01*
X124210982Y-38399524D01*
X124081401Y-38293179D01*
X123975056Y-38163598D01*
X123910439Y-38042708D01*
X123896036Y-38015762D01*
X123847373Y-37855343D01*
X123830943Y-37688520D01*
X123847373Y-37521697D01*
X123896036Y-37361278D01*
X123975055Y-37213444D01*
X123975056Y-37213442D01*
X124081401Y-37083861D01*
X124210982Y-36977516D01*
X124226154Y-36969406D01*
X124358818Y-36898496D01*
X124519237Y-36849833D01*
X124644256Y-36837520D01*
X124727864Y-36837520D01*
X124852883Y-36849833D01*
X124852883Y-36849833D01*
G37*
G36*
X122312883Y-36849833D02*
G01*
X122473302Y-36898496D01*
X122605966Y-36969406D01*
X122621138Y-36977516D01*
X122750719Y-37083861D01*
X122857064Y-37213442D01*
X122857065Y-37213444D01*
X122936084Y-37361278D01*
X122984747Y-37521697D01*
X123001177Y-37688520D01*
X122984747Y-37855343D01*
X122936084Y-38015762D01*
X122921681Y-38042708D01*
X122857064Y-38163598D01*
X122750719Y-38293179D01*
X122621138Y-38399524D01*
X122621136Y-38399525D01*
X122473302Y-38478544D01*
X122312883Y-38527207D01*
X122187864Y-38539520D01*
X122104256Y-38539520D01*
X121979237Y-38527207D01*
X121818818Y-38478544D01*
X121670984Y-38399525D01*
X121670982Y-38399524D01*
X121541401Y-38293179D01*
X121435056Y-38163598D01*
X121370439Y-38042708D01*
X121356036Y-38015762D01*
X121307373Y-37855343D01*
X121290943Y-37688520D01*
X121307373Y-37521697D01*
X121356036Y-37361278D01*
X121435055Y-37213444D01*
X121435056Y-37213442D01*
X121541401Y-37083861D01*
X121670982Y-36977516D01*
X121686154Y-36969406D01*
X121818818Y-36898496D01*
X121979237Y-36849833D01*
X122104256Y-36837520D01*
X122187864Y-36837520D01*
X122312883Y-36849833D01*
X122312883Y-36849833D01*
G37*
G36*
X119772883Y-36849833D02*
G01*
X119933302Y-36898496D01*
X120065966Y-36969406D01*
X120081138Y-36977516D01*
X120210719Y-37083861D01*
X120317064Y-37213442D01*
X120317065Y-37213444D01*
X120396084Y-37361278D01*
X120444747Y-37521697D01*
X120461177Y-37688520D01*
X120444747Y-37855343D01*
X120396084Y-38015762D01*
X120381681Y-38042708D01*
X120317064Y-38163598D01*
X120210719Y-38293179D01*
X120081138Y-38399524D01*
X120081136Y-38399525D01*
X119933302Y-38478544D01*
X119772883Y-38527207D01*
X119647864Y-38539520D01*
X119564256Y-38539520D01*
X119439237Y-38527207D01*
X119278818Y-38478544D01*
X119130984Y-38399525D01*
X119130982Y-38399524D01*
X119001401Y-38293179D01*
X118895056Y-38163598D01*
X118830439Y-38042708D01*
X118816036Y-38015762D01*
X118767373Y-37855343D01*
X118750943Y-37688520D01*
X118767373Y-37521697D01*
X118816036Y-37361278D01*
X118895055Y-37213444D01*
X118895056Y-37213442D01*
X119001401Y-37083861D01*
X119130982Y-36977516D01*
X119146154Y-36969406D01*
X119278818Y-36898496D01*
X119439237Y-36849833D01*
X119564256Y-36837520D01*
X119647864Y-36837520D01*
X119772883Y-36849833D01*
X119772883Y-36849833D01*
G37*
G36*
X117232883Y-36849833D02*
G01*
X117393302Y-36898496D01*
X117525966Y-36969406D01*
X117541138Y-36977516D01*
X117670719Y-37083861D01*
X117777064Y-37213442D01*
X117777065Y-37213444D01*
X117856084Y-37361278D01*
X117904747Y-37521697D01*
X117921177Y-37688520D01*
X117904747Y-37855343D01*
X117856084Y-38015762D01*
X117841681Y-38042708D01*
X117777064Y-38163598D01*
X117670719Y-38293179D01*
X117541138Y-38399524D01*
X117541136Y-38399525D01*
X117393302Y-38478544D01*
X117232883Y-38527207D01*
X117107864Y-38539520D01*
X117024256Y-38539520D01*
X116899237Y-38527207D01*
X116738818Y-38478544D01*
X116590984Y-38399525D01*
X116590982Y-38399524D01*
X116461401Y-38293179D01*
X116355056Y-38163598D01*
X116290439Y-38042708D01*
X116276036Y-38015762D01*
X116227373Y-37855343D01*
X116210943Y-37688520D01*
X116227373Y-37521697D01*
X116276036Y-37361278D01*
X116355055Y-37213444D01*
X116355056Y-37213442D01*
X116461401Y-37083861D01*
X116590982Y-36977516D01*
X116606154Y-36969406D01*
X116738818Y-36898496D01*
X116899237Y-36849833D01*
X117024256Y-36837520D01*
X117107864Y-36837520D01*
X117232883Y-36849833D01*
X117232883Y-36849833D01*
G37*
G36*
X148397060Y-38539520D02*
G01*
X146695060Y-38539520D01*
X146695060Y-36837520D01*
X148397060Y-36837520D01*
X148397060Y-38539520D01*
X148397060Y-38539520D01*
G37*
G36*
X145172883Y-36849833D02*
G01*
X145333302Y-36898496D01*
X145465966Y-36969406D01*
X145481138Y-36977516D01*
X145610719Y-37083861D01*
X145717064Y-37213442D01*
X145717065Y-37213444D01*
X145796084Y-37361278D01*
X145844747Y-37521697D01*
X145861177Y-37688520D01*
X145844747Y-37855343D01*
X145796084Y-38015762D01*
X145781681Y-38042708D01*
X145717064Y-38163598D01*
X145610719Y-38293179D01*
X145481138Y-38399524D01*
X145481136Y-38399525D01*
X145333302Y-38478544D01*
X145172883Y-38527207D01*
X145047864Y-38539520D01*
X144964256Y-38539520D01*
X144839237Y-38527207D01*
X144678818Y-38478544D01*
X144530984Y-38399525D01*
X144530982Y-38399524D01*
X144401401Y-38293179D01*
X144295056Y-38163598D01*
X144230439Y-38042708D01*
X144216036Y-38015762D01*
X144167373Y-37855343D01*
X144150943Y-37688520D01*
X144167373Y-37521697D01*
X144216036Y-37361278D01*
X144295055Y-37213444D01*
X144295056Y-37213442D01*
X144401401Y-37083861D01*
X144530982Y-36977516D01*
X144546154Y-36969406D01*
X144678818Y-36898496D01*
X144839237Y-36849833D01*
X144964256Y-36837520D01*
X145047864Y-36837520D01*
X145172883Y-36849833D01*
X145172883Y-36849833D01*
G37*
G36*
X114692883Y-36849833D02*
G01*
X114853302Y-36898496D01*
X114985966Y-36969406D01*
X115001138Y-36977516D01*
X115130719Y-37083861D01*
X115237064Y-37213442D01*
X115237065Y-37213444D01*
X115316084Y-37361278D01*
X115364747Y-37521697D01*
X115381177Y-37688520D01*
X115364747Y-37855343D01*
X115316084Y-38015762D01*
X115301681Y-38042708D01*
X115237064Y-38163598D01*
X115130719Y-38293179D01*
X115001138Y-38399524D01*
X115001136Y-38399525D01*
X114853302Y-38478544D01*
X114692883Y-38527207D01*
X114567864Y-38539520D01*
X114484256Y-38539520D01*
X114359237Y-38527207D01*
X114198818Y-38478544D01*
X114050984Y-38399525D01*
X114050982Y-38399524D01*
X113921401Y-38293179D01*
X113815056Y-38163598D01*
X113750439Y-38042708D01*
X113736036Y-38015762D01*
X113687373Y-37855343D01*
X113670943Y-37688520D01*
X113687373Y-37521697D01*
X113736036Y-37361278D01*
X113815055Y-37213444D01*
X113815056Y-37213442D01*
X113921401Y-37083861D01*
X114050982Y-36977516D01*
X114066154Y-36969406D01*
X114198818Y-36898496D01*
X114359237Y-36849833D01*
X114484256Y-36837520D01*
X114567864Y-36837520D01*
X114692883Y-36849833D01*
X114692883Y-36849833D01*
G37*
G36*
X142632883Y-36849833D02*
G01*
X142793302Y-36898496D01*
X142925966Y-36969406D01*
X142941138Y-36977516D01*
X143070719Y-37083861D01*
X143177064Y-37213442D01*
X143177065Y-37213444D01*
X143256084Y-37361278D01*
X143304747Y-37521697D01*
X143321177Y-37688520D01*
X143304747Y-37855343D01*
X143256084Y-38015762D01*
X143241681Y-38042708D01*
X143177064Y-38163598D01*
X143070719Y-38293179D01*
X142941138Y-38399524D01*
X142941136Y-38399525D01*
X142793302Y-38478544D01*
X142632883Y-38527207D01*
X142507864Y-38539520D01*
X142424256Y-38539520D01*
X142299237Y-38527207D01*
X142138818Y-38478544D01*
X141990984Y-38399525D01*
X141990982Y-38399524D01*
X141861401Y-38293179D01*
X141755056Y-38163598D01*
X141690439Y-38042708D01*
X141676036Y-38015762D01*
X141627373Y-37855343D01*
X141610943Y-37688520D01*
X141627373Y-37521697D01*
X141676036Y-37361278D01*
X141755055Y-37213444D01*
X141755056Y-37213442D01*
X141861401Y-37083861D01*
X141990982Y-36977516D01*
X142006154Y-36969406D01*
X142138818Y-36898496D01*
X142299237Y-36849833D01*
X142424256Y-36837520D01*
X142507864Y-36837520D01*
X142632883Y-36849833D01*
X142632883Y-36849833D01*
G37*
G36*
X147375256Y-30391298D02*
G01*
X147481579Y-30412447D01*
X147694037Y-30500450D01*
X147710565Y-30507296D01*
X147782042Y-30536903D01*
X148052451Y-30717585D01*
X148282415Y-30947549D01*
X148463097Y-31217958D01*
X148587553Y-31518421D01*
X148593742Y-31549534D01*
X148651000Y-31837389D01*
X148651000Y-32162611D01*
X148608702Y-32375256D01*
X148587553Y-32481579D01*
X148586258Y-32484705D01*
X148466736Y-32773258D01*
X148463097Y-32782042D01*
X148282415Y-33052451D01*
X148052451Y-33282415D01*
X147782042Y-33463097D01*
X147481579Y-33587553D01*
X147375256Y-33608702D01*
X147162611Y-33651000D01*
X146837389Y-33651000D01*
X146624744Y-33608702D01*
X146518421Y-33587553D01*
X146217958Y-33463097D01*
X145947549Y-33282415D01*
X145717585Y-33052451D01*
X145536903Y-32782042D01*
X145533265Y-32773258D01*
X145413742Y-32484705D01*
X145412447Y-32481579D01*
X145391298Y-32375256D01*
X145349000Y-32162611D01*
X145349000Y-31837389D01*
X145406258Y-31549534D01*
X145412447Y-31518421D01*
X145536903Y-31217958D01*
X145717585Y-30947549D01*
X145947549Y-30717585D01*
X146217958Y-30536903D01*
X146289436Y-30507296D01*
X146305963Y-30500450D01*
X146518421Y-30412447D01*
X146624744Y-30391298D01*
X146837389Y-30349000D01*
X147162611Y-30349000D01*
X147375256Y-30391298D01*
X147375256Y-30391298D01*
G37*
G36*
X82375256Y-30391298D02*
G01*
X82481579Y-30412447D01*
X82694037Y-30500450D01*
X82710565Y-30507296D01*
X82782042Y-30536903D01*
X83052451Y-30717585D01*
X83282415Y-30947549D01*
X83463097Y-31217958D01*
X83587553Y-31518421D01*
X83593742Y-31549534D01*
X83651000Y-31837389D01*
X83651000Y-32162611D01*
X83608702Y-32375256D01*
X83587553Y-32481579D01*
X83586258Y-32484705D01*
X83466736Y-32773258D01*
X83463097Y-32782042D01*
X83282415Y-33052451D01*
X83052451Y-33282415D01*
X82782042Y-33463097D01*
X82481579Y-33587553D01*
X82375256Y-33608702D01*
X82162611Y-33651000D01*
X81837389Y-33651000D01*
X81624744Y-33608702D01*
X81518421Y-33587553D01*
X81217958Y-33463097D01*
X80947549Y-33282415D01*
X80717585Y-33052451D01*
X80536903Y-32782042D01*
X80533265Y-32773258D01*
X80413742Y-32484705D01*
X80412447Y-32481579D01*
X80391298Y-32375256D01*
X80349000Y-32162611D01*
X80349000Y-31837389D01*
X80406258Y-31549534D01*
X80412447Y-31518421D01*
X80536903Y-31217958D01*
X80717585Y-30947549D01*
X80947549Y-30717585D01*
X81217958Y-30536903D01*
X81289436Y-30507296D01*
X81305963Y-30500450D01*
X81518421Y-30412447D01*
X81624744Y-30391298D01*
X81837389Y-30349000D01*
X82162611Y-30349000D01*
X82375256Y-30391298D01*
X82375256Y-30391298D01*
G37*
G36*
X135140659Y-30611893D02*
G01*
X135274758Y-30652572D01*
X135398345Y-30718631D01*
X135506670Y-30807530D01*
X135595569Y-30915855D01*
X135661628Y-31039442D01*
X135702307Y-31173541D01*
X135712600Y-31278051D01*
X135712600Y-32668749D01*
X135702307Y-32773259D01*
X135661628Y-32907358D01*
X135595569Y-33030945D01*
X135506669Y-33139270D01*
X135398344Y-33228169D01*
X135274757Y-33294228D01*
X135140658Y-33334907D01*
X135001200Y-33348642D01*
X134861741Y-33334907D01*
X134727642Y-33294228D01*
X134604055Y-33228169D01*
X134495730Y-33139269D01*
X134406831Y-33030944D01*
X134340772Y-32907357D01*
X134300093Y-32773258D01*
X134289800Y-32668748D01*
X134289801Y-31278051D01*
X134300094Y-31173541D01*
X134340773Y-31039442D01*
X134406832Y-30915855D01*
X134495731Y-30807530D01*
X134604056Y-30718631D01*
X134727643Y-30652572D01*
X134861742Y-30611893D01*
X135001200Y-30598158D01*
X135140659Y-30611893D01*
X135140659Y-30611893D01*
G37*
G36*
X132640659Y-30611893D02*
G01*
X132774758Y-30652572D01*
X132898345Y-30718631D01*
X133006670Y-30807530D01*
X133095569Y-30915855D01*
X133161628Y-31039442D01*
X133202307Y-31173541D01*
X133212600Y-31278051D01*
X133212600Y-32668749D01*
X133202307Y-32773259D01*
X133161628Y-32907358D01*
X133095569Y-33030945D01*
X133006669Y-33139270D01*
X132898344Y-33228169D01*
X132774757Y-33294228D01*
X132640658Y-33334907D01*
X132501200Y-33348642D01*
X132361741Y-33334907D01*
X132227642Y-33294228D01*
X132104055Y-33228169D01*
X131995730Y-33139269D01*
X131906831Y-33030944D01*
X131840772Y-32907357D01*
X131800093Y-32773258D01*
X131789800Y-32668748D01*
X131789801Y-31278051D01*
X131800094Y-31173541D01*
X131840773Y-31039442D01*
X131906832Y-30915855D01*
X131995731Y-30807530D01*
X132104056Y-30718631D01*
X132227643Y-30652572D01*
X132361742Y-30611893D01*
X132501200Y-30598158D01*
X132640659Y-30611893D01*
X132640659Y-30611893D01*
G37*
G36*
X137640659Y-30611893D02*
G01*
X137774758Y-30652572D01*
X137898345Y-30718631D01*
X138006670Y-30807530D01*
X138095569Y-30915855D01*
X138161628Y-31039442D01*
X138202307Y-31173541D01*
X138212600Y-31278051D01*
X138212600Y-32668749D01*
X138202307Y-32773259D01*
X138161628Y-32907358D01*
X138095569Y-33030945D01*
X138006669Y-33139270D01*
X137898344Y-33228169D01*
X137774757Y-33294228D01*
X137640658Y-33334907D01*
X137501200Y-33348642D01*
X137361741Y-33334907D01*
X137227642Y-33294228D01*
X137104055Y-33228169D01*
X136995730Y-33139269D01*
X136906831Y-33030944D01*
X136840772Y-32907357D01*
X136800093Y-32773258D01*
X136789800Y-32668748D01*
X136789801Y-31278051D01*
X136800094Y-31173541D01*
X136840773Y-31039442D01*
X136906832Y-30915855D01*
X136995731Y-30807530D01*
X137104056Y-30718631D01*
X137227643Y-30652572D01*
X137361742Y-30611893D01*
X137501200Y-30598158D01*
X137640659Y-30611893D01*
X137640659Y-30611893D01*
G37*
G36*
X123492585Y-29974802D02*
G01*
X123642410Y-30004604D01*
X123924674Y-30121521D01*
X124178705Y-30291259D01*
X124394741Y-30507295D01*
X124564479Y-30761326D01*
X124681396Y-31043590D01*
X124741000Y-31343240D01*
X124741000Y-31648760D01*
X124681396Y-31948410D01*
X124564479Y-32230674D01*
X124394741Y-32484705D01*
X124178705Y-32700741D01*
X123924674Y-32870479D01*
X123642410Y-32987396D01*
X123492585Y-33017198D01*
X123342761Y-33047000D01*
X123037239Y-33047000D01*
X122887415Y-33017198D01*
X122737590Y-32987396D01*
X122455326Y-32870479D01*
X122201295Y-32700741D01*
X121985259Y-32484705D01*
X121815521Y-32230674D01*
X121698604Y-31948410D01*
X121639000Y-31648760D01*
X121639000Y-31343240D01*
X121698604Y-31043590D01*
X121815521Y-30761326D01*
X121985259Y-30507295D01*
X122201295Y-30291259D01*
X122455326Y-30121521D01*
X122737590Y-30004604D01*
X122887415Y-29974802D01*
X123037239Y-29945000D01*
X123342761Y-29945000D01*
X123492585Y-29974802D01*
X123492585Y-29974802D01*
G37*
G36*
X128681000Y-32951000D02*
G01*
X126779000Y-32951000D01*
X126779000Y-31049000D01*
X128681000Y-31049000D01*
X128681000Y-32951000D01*
X128681000Y-32951000D01*
G37*
G36*
X130547395Y-31085546D02*
G01*
X130720466Y-31157234D01*
X130720467Y-31157235D01*
X130876227Y-31261310D01*
X131008690Y-31393773D01*
X131008691Y-31393775D01*
X131112766Y-31549534D01*
X131184454Y-31722605D01*
X131221000Y-31906333D01*
X131221000Y-32093667D01*
X131184454Y-32277395D01*
X131112766Y-32450466D01*
X131091977Y-32481579D01*
X131008690Y-32606227D01*
X130876227Y-32738690D01*
X130811349Y-32782040D01*
X130720466Y-32842766D01*
X130547395Y-32914454D01*
X130363667Y-32951000D01*
X130176333Y-32951000D01*
X129992605Y-32914454D01*
X129819534Y-32842766D01*
X129728651Y-32782040D01*
X129663773Y-32738690D01*
X129531310Y-32606227D01*
X129448023Y-32481579D01*
X129427234Y-32450466D01*
X129355546Y-32277395D01*
X129319000Y-32093667D01*
X129319000Y-31906333D01*
X129355546Y-31722605D01*
X129427234Y-31549534D01*
X129531309Y-31393775D01*
X129531310Y-31393773D01*
X129663773Y-31261310D01*
X129819533Y-31157235D01*
X129819534Y-31157234D01*
X129992605Y-31085546D01*
X130176333Y-31049000D01*
X130363667Y-31049000D01*
X130547395Y-31085546D01*
X130547395Y-31085546D01*
G37*
M02*
